<svg width="636" height="480" viewBox="0 0 636 480" fill="none" xmlns="http://www.w3.org/2000/svg">
<g clip-path="url(#clip0)">
<path d="M366.508 23.3617C371.964 34.9687 360.404 38.2563 347.162 44.4775C333.92 50.6987 324.011 57.4975 318.555 45.8906C313.1 34.2836 308.674 11.246 327.407 2.44505C346.785 -6.65907 361.053 11.7548 366.508 23.3617Z" fill="#2F2E41"/>
<path d="M339.491 46.188C349.337 46.188 357.318 38.2084 357.318 28.3652C357.318 18.5219 349.337 10.5424 339.491 10.5424C329.646 10.5424 321.665 18.5219 321.665 28.3652C321.665 38.2084 329.646 46.188 339.491 46.188Z" fill="#FFB8B8"/>
<path d="M427.807 107.406C427.19 106.6 426.573 105.809 425.949 105.04C425.143 104.039 424.333 103.069 423.517 102.13C414.278 91.4703 404.45 84.758 393.629 84.0397H393.614L393.455 84.0251L371.891 105.04L364.56 112.18L364.72 112.572L368.676 122.419H437.983C434.86 117.238 431.463 112.226 427.807 107.406Z" fill="#2F2E41"/>
<path d="M320.106 35.5406L326.488 32.5426L325.599 23.3389L329.866 30.9555L332.916 29.5226L332.397 24.1538L334.886 28.5968L357.549 17.9496C355.421 13.4208 351.58 9.92294 346.872 8.22542C342.164 6.5279 336.974 6.76979 332.444 8.89787L329.16 10.441C324.63 12.5691 321.132 16.409 319.434 21.1161C317.736 25.8232 317.978 31.0119 320.106 35.5406Z" fill="#2F2E41"/>
<path d="M467.798 359.053H95.5791C92.4041 359.05 89.3601 357.787 87.115 355.543C84.8699 353.298 83.607 350.255 83.6034 347.08V123.467C83.606 121.142 84.5311 118.912 86.1759 117.268C87.8207 115.623 90.0507 114.698 92.3768 114.695H470.849C473.215 114.698 475.484 115.639 477.157 117.312C478.83 118.985 479.772 121.253 479.774 123.619V347.08C479.771 350.255 478.508 353.298 476.263 355.543C474.018 357.787 470.974 359.05 467.798 359.053Z" fill="#F2F2F2"/>
<path d="M107.192 347.08H456.186C459.266 347.08 462.219 345.857 464.397 343.68C466.575 341.502 467.799 338.549 467.799 335.47V145.677C467.799 142.597 466.575 139.644 464.397 137.467C462.219 135.289 459.266 134.066 456.186 134.066H107.192C104.112 134.066 101.158 135.289 98.9805 137.467C96.8026 139.644 95.5792 142.597 95.5792 145.677V335.47C95.5792 338.549 96.8026 341.502 98.9805 343.68C101.158 345.857 104.112 347.08 107.192 347.08Z" fill="white"/>
<path d="M479.607 122.782H83.4353V116.687C83.4399 113.502 84.708 110.449 86.9612 108.197C89.2145 105.946 92.269 104.68 95.4546 104.677H467.588C470.774 104.68 473.828 105.946 476.082 108.197C478.335 110.449 479.603 113.502 479.607 116.687V122.782Z" fill="#31D498"/>
<path d="M105.279 116.856C106.996 116.856 108.388 115.464 108.388 113.748C108.388 112.031 106.996 110.64 105.279 110.64C103.562 110.64 102.17 112.031 102.17 113.748C102.17 115.464 103.562 116.856 105.279 116.856Z" fill="white"/>
<path d="M117.079 116.856C118.796 116.856 120.188 115.464 120.188 113.748C120.188 112.031 118.796 110.64 117.079 110.64C115.362 110.64 113.97 112.031 113.97 113.748C113.97 115.464 115.362 116.856 117.079 116.856Z" fill="white"/>
<path d="M128.88 116.856C130.597 116.856 131.989 115.464 131.989 113.748C131.989 112.031 130.597 110.64 128.88 110.64C127.163 110.64 125.771 112.031 125.771 113.748C125.771 115.464 127.163 116.856 128.88 116.856Z" fill="white"/>
<path d="M292.578 305.92H261.369C259.541 305.918 257.788 305.191 256.496 303.899C255.203 302.607 254.476 300.854 254.474 299.027V267.824C254.476 265.996 255.203 264.244 256.496 262.951C257.788 261.659 259.541 260.932 261.369 260.93H292.578C294.406 260.932 296.159 261.659 297.452 262.951C298.744 264.244 299.471 265.996 299.473 267.824V299.027C299.471 300.854 298.744 302.607 297.452 303.899C296.159 305.191 294.406 305.918 292.578 305.92ZM261.369 262.381C259.926 262.383 258.542 262.957 257.521 263.977C256.501 264.997 255.927 266.381 255.925 267.824V299.027C255.927 300.47 256.501 301.853 257.521 302.873C258.542 303.894 259.926 304.467 261.369 304.469H292.578C294.022 304.467 295.405 303.894 296.426 302.873C297.446 301.853 298.02 300.47 298.022 299.027V267.824C298.02 266.381 297.446 264.997 296.426 263.977C295.405 262.957 294.022 262.383 292.578 262.381H261.369Z" fill="#CCCCCC"/>
<path d="M286.409 297.212H267.538C266.961 297.212 266.407 296.982 265.999 296.574C265.591 296.166 265.361 295.613 265.361 295.036V271.815C265.361 271.237 265.591 270.684 265.999 270.276C266.407 269.868 266.961 269.638 267.538 269.638H281.212C281.708 269.638 282.189 269.807 282.576 270.118L287.773 274.293C288.027 274.497 288.233 274.755 288.374 275.049C288.514 275.342 288.587 275.664 288.586 275.99V295.036C288.586 295.613 288.356 296.166 287.948 296.574C287.54 296.982 286.986 297.212 286.409 297.212ZM267.538 271.089C267.346 271.089 267.161 271.166 267.025 271.302C266.889 271.438 266.813 271.622 266.812 271.815V295.036C266.813 295.228 266.889 295.412 267.025 295.548C267.161 295.684 267.346 295.761 267.538 295.761H286.409C286.601 295.761 286.786 295.684 286.922 295.548C287.058 295.412 287.135 295.228 287.135 295.036V275.99C287.135 275.881 287.111 275.774 287.064 275.676C287.017 275.578 286.949 275.492 286.864 275.424L281.666 271.249C281.537 271.145 281.377 271.089 281.212 271.089H267.538Z" fill="#CCCCCC"/>
<path d="M282.78 279.797H271.167C270.975 279.797 270.79 279.72 270.654 279.584C270.518 279.448 270.441 279.264 270.441 279.071C270.441 278.879 270.518 278.694 270.654 278.558C270.79 278.422 270.975 278.345 271.167 278.345H282.78C282.973 278.345 283.157 278.422 283.293 278.558C283.429 278.694 283.506 278.879 283.506 279.071C283.506 279.264 283.429 279.448 283.293 279.584C283.157 279.72 282.973 279.797 282.78 279.797Z" fill="#CCCCCC"/>
<path d="M282.78 284.151H271.167C270.975 284.151 270.79 284.074 270.654 283.938C270.518 283.802 270.441 283.618 270.441 283.425C270.441 283.233 270.518 283.048 270.654 282.912C270.79 282.776 270.975 282.699 271.167 282.699H282.78C282.973 282.699 283.157 282.776 283.293 282.912C283.429 283.048 283.506 283.233 283.506 283.425C283.506 283.618 283.429 283.802 283.293 283.938C283.157 284.074 282.973 284.151 282.78 284.151Z" fill="#CCCCCC"/>
<path d="M282.78 288.505H271.167C270.975 288.505 270.79 288.428 270.654 288.292C270.518 288.156 270.441 287.971 270.441 287.779C270.441 287.587 270.518 287.402 270.654 287.266C270.79 287.13 270.975 287.053 271.167 287.053H282.78C282.973 287.053 283.157 287.13 283.293 287.266C283.429 287.402 283.506 287.587 283.506 287.779C283.506 287.971 283.429 288.156 283.293 288.292C283.157 288.428 282.973 288.505 282.78 288.505Z" fill="#CCCCCC"/>
<path d="M366.61 305.92H335.401C333.573 305.918 331.82 305.191 330.527 303.899C329.235 302.607 328.508 300.854 328.506 299.027V267.824C328.508 265.996 329.235 264.244 330.527 262.951C331.82 261.659 333.573 260.932 335.401 260.93H366.61C368.438 260.932 370.191 261.659 371.483 262.951C372.776 264.244 373.503 265.996 373.505 267.824V299.027C373.503 300.854 372.776 302.607 371.483 303.899C370.191 305.191 368.438 305.918 366.61 305.92ZM335.401 262.381C333.957 262.383 332.574 262.957 331.553 263.977C330.533 264.997 329.959 266.381 329.957 267.824V299.027C329.959 300.47 330.533 301.853 331.553 302.873C332.574 303.894 333.957 304.467 335.401 304.469H366.61C368.053 304.467 369.437 303.894 370.458 302.873C371.478 301.853 372.052 300.47 372.054 299.027V267.824C372.052 266.381 371.478 264.997 370.458 263.977C369.437 262.957 368.053 262.383 366.61 262.381H335.401Z" fill="#CCCCCC"/>
<path d="M361.167 291.407H340.844C340.267 291.407 339.713 291.177 339.305 290.769C338.897 290.361 338.667 289.807 338.667 289.23V277.62C338.667 277.043 338.897 276.489 339.305 276.081C339.713 275.673 340.267 275.444 340.844 275.443H361.167C361.744 275.444 362.297 275.673 362.706 276.081C363.114 276.489 363.343 277.043 363.344 277.62V289.23C363.343 289.807 363.114 290.361 362.706 290.769C362.297 291.177 361.744 291.407 361.167 291.407ZM340.844 276.894C340.652 276.894 340.467 276.971 340.331 277.107C340.195 277.243 340.119 277.427 340.118 277.62V289.23C340.119 289.423 340.195 289.607 340.331 289.743C340.467 289.879 340.652 289.956 340.844 289.956H361.167C361.359 289.956 361.544 289.879 361.68 289.743C361.816 289.607 361.892 289.423 361.892 289.23V277.62C361.892 277.427 361.816 277.243 361.68 277.107C361.544 276.971 361.359 276.894 361.167 276.894H340.844Z" fill="#CCCCCC"/>
<path d="M351.005 285.34C350.598 285.34 350.198 285.226 349.852 285.011L339.008 278.235C338.845 278.133 338.729 277.97 338.686 277.783C338.643 277.596 338.676 277.399 338.778 277.236C338.88 277.073 339.043 276.957 339.23 276.914C339.417 276.87 339.614 276.903 339.777 277.004L350.621 283.78C350.737 283.852 350.87 283.89 351.006 283.89C351.142 283.89 351.275 283.852 351.39 283.78L362.233 277.004C362.397 276.903 362.594 276.87 362.781 276.914C362.968 276.957 363.131 277.073 363.233 277.236C363.335 277.399 363.368 277.596 363.325 277.783C363.282 277.97 363.166 278.133 363.003 278.235L352.16 285.011C351.813 285.226 351.413 285.34 351.005 285.34Z" fill="#CCCCCC"/>
<path d="M218.547 305.92H187.337C185.509 305.918 183.756 305.191 182.464 303.899C181.171 302.607 180.444 300.854 180.442 299.027V267.824C180.444 265.996 181.171 264.244 182.464 262.951C183.756 261.659 185.509 260.932 187.337 260.93H218.547C220.375 260.932 222.127 261.659 223.42 262.951C224.712 264.244 225.44 265.996 225.442 267.824V299.027C225.44 300.854 224.712 302.607 223.42 303.899C222.127 305.191 220.375 305.918 218.547 305.92ZM187.337 262.381C185.894 262.383 184.51 262.957 183.49 263.977C182.469 264.997 181.895 266.381 181.893 267.824V299.027C181.895 300.47 182.469 301.853 183.49 302.873C184.51 303.894 185.894 304.467 187.337 304.469H218.547C219.99 304.467 221.373 303.894 222.394 302.873C223.414 301.853 223.988 300.47 223.99 299.027V267.824C223.988 266.381 223.414 264.997 222.394 263.977C221.373 262.957 219.99 262.383 218.547 262.381H187.337Z" fill="#CCCCCC"/>
<path d="M213.103 291.407H192.78C192.203 291.407 191.65 291.177 191.242 290.769C190.833 290.361 190.604 289.807 190.603 289.23V277.62C190.604 277.043 190.833 276.489 191.242 276.081C191.65 275.673 192.203 275.444 192.78 275.443H213.103C213.68 275.444 214.234 275.673 214.642 276.081C215.05 276.489 215.28 277.043 215.28 277.62V289.23C215.28 289.807 215.05 290.361 214.642 290.769C214.234 291.177 213.68 291.407 213.103 291.407ZM192.78 276.894C192.588 276.894 192.404 276.971 192.268 277.107C192.131 277.243 192.055 277.427 192.055 277.62V289.23C192.055 289.423 192.131 289.607 192.268 289.743C192.404 289.879 192.588 289.956 192.78 289.956H213.103C213.295 289.956 213.48 289.879 213.616 289.743C213.752 289.607 213.829 289.423 213.829 289.23V277.62C213.829 277.427 213.752 277.243 213.616 277.107C213.48 276.971 213.295 276.894 213.103 276.894H192.78Z" fill="#CCCCCC"/>
<path d="M209.882 291.407H195.276C195.021 291.407 194.771 291.34 194.55 291.213C194.329 291.086 194.146 290.902 194.019 290.682C193.891 290.461 193.824 290.211 193.824 289.956C193.824 289.701 193.891 289.451 194.019 289.23L198.418 281.611C198.546 281.39 198.729 281.207 198.95 281.08C199.17 280.952 199.421 280.885 199.675 280.885C199.93 280.885 200.181 280.952 200.401 281.08C200.622 281.207 200.805 281.39 200.933 281.611L203.774 286.532L205.42 283.681C205.548 283.46 205.731 283.277 205.952 283.15C206.172 283.022 206.423 282.955 206.678 282.955C206.932 282.955 207.183 283.022 207.403 283.15C207.624 283.277 207.807 283.46 207.935 283.681L211.139 289.23C211.267 289.451 211.334 289.701 211.334 289.956C211.334 290.211 211.267 290.461 211.139 290.682C211.012 290.902 210.828 291.086 210.608 291.213C210.387 291.34 210.137 291.407 209.882 291.407H209.882ZM209.882 289.956L206.677 284.407L204.403 288.346C204.339 288.456 204.248 288.548 204.137 288.612C204.027 288.675 203.902 288.709 203.774 288.709C203.647 288.709 203.522 288.675 203.411 288.612C203.301 288.548 203.209 288.456 203.146 288.346L199.676 282.337L195.276 289.956H209.882Z" fill="#CCCCCC"/>
<path d="M210.925 281.248C211.727 281.248 212.377 280.598 212.377 279.797C212.377 278.995 211.727 278.345 210.925 278.345C210.124 278.345 209.474 278.995 209.474 279.797C209.474 280.598 210.124 281.248 210.925 281.248Z" fill="#CCCCCC"/>
<path d="M558.015 470.332L549.117 470.331L544.884 436.017L558.016 436.018L558.015 470.332Z" fill="#FFB8B8"/>
<path d="M560.284 478.956L531.593 478.955V478.592C531.593 477.126 531.882 475.674 532.443 474.319C533.004 472.965 533.827 471.734 534.864 470.697C535.901 469.66 537.132 468.838 538.487 468.277C539.842 467.716 541.294 467.427 542.76 467.427H542.761L560.285 467.428L560.284 478.956Z" fill="#2F2E41"/>
<path d="M594.305 470.332L585.407 470.331L581.174 436.017L594.307 436.018L594.305 470.332Z" fill="#FFB8B8"/>
<path d="M596.574 478.956L567.883 478.955V478.592C567.883 477.126 568.172 475.674 568.733 474.319C569.294 472.965 570.117 471.734 571.154 470.697C572.191 469.66 573.422 468.838 574.777 468.277C576.132 467.716 577.584 467.427 579.05 467.427H579.051L596.575 467.428L596.574 478.956Z" fill="#2F2E41"/>
<path d="M591.638 455.457L583.396 452.95C582.782 452.764 582.237 452.401 581.828 451.906C581.419 451.411 581.165 450.807 581.099 450.169L573.415 377.367C573.409 377.279 573.37 377.196 573.306 377.136C573.241 377.076 573.156 377.042 573.068 377.042C572.98 377.034 572.892 377.06 572.823 377.115C572.753 377.171 572.709 377.251 572.698 377.339L559.828 447.872C559.75 448.3 559.587 448.708 559.349 449.072C559.111 449.436 558.803 449.749 558.442 449.993C558.081 450.236 557.676 450.405 557.249 450.489C556.822 450.574 556.383 450.572 555.956 450.484L545.424 448.315C544.652 448.153 543.963 447.719 543.486 447.09C543.008 446.462 542.773 445.683 542.824 444.896L550.652 329.29L603.736 323.563L595.848 452.531C595.797 453.36 595.432 454.139 594.828 454.709C594.223 455.279 593.424 455.597 592.593 455.599C592.269 455.599 591.947 455.551 591.638 455.457Z" fill="#2F2E41"/>
<path d="M591.587 228.616C601.432 228.616 609.414 220.636 609.414 210.793C609.414 200.95 601.432 192.97 591.587 192.97C581.742 192.97 573.761 200.95 573.761 210.793C573.761 220.636 581.742 228.616 591.587 228.616Z" fill="#FFB8B8"/>
<path d="M550.571 329.969L562.081 257.512C562.693 253.659 564.118 249.981 566.263 246.722C568.407 243.464 571.221 240.699 574.517 238.612C577.813 236.525 581.516 235.164 585.38 234.619C589.243 234.074 593.178 234.358 596.923 235.452C603.471 237.346 609.077 241.612 612.648 247.417C616.218 253.222 617.495 260.149 616.23 266.846L604.188 331.553L550.571 329.969Z" fill="#31D498"/>
<path d="M596.508 342.933C597.399 342.346 598.15 341.57 598.708 340.661C599.266 339.751 599.617 338.731 599.738 337.671C599.859 336.611 599.746 335.537 599.407 334.526C599.068 333.514 598.512 332.59 597.776 331.816L609.677 308.776L596.275 310.206L587.029 331.866C585.812 333.187 585.121 334.909 585.089 336.704C585.056 338.5 585.683 340.245 586.852 341.61C588.02 342.974 589.649 343.862 591.429 344.106C593.208 344.35 595.016 343.933 596.508 342.933V342.933Z" fill="#FFB8B8"/>
<path d="M599.057 327.752C598.398 327.659 597.784 327.368 597.296 326.917L592.742 322.711C592.251 322.254 591.911 321.658 591.769 321.002C591.627 320.346 591.69 319.662 591.95 319.043L601.05 297.478L599.759 254.868C599.944 253.498 600.398 252.179 601.094 250.984C601.79 249.79 602.715 248.744 603.815 247.908C604.916 247.071 606.17 246.459 607.507 246.107C608.844 245.755 610.237 245.67 611.607 245.857C612.977 246.044 614.297 246.499 615.491 247.196C616.684 247.893 617.729 248.818 618.565 249.919C619.401 251.02 620.012 252.275 620.363 253.612C620.713 254.949 620.797 256.342 620.609 257.712L622.816 284.497C623.487 292.627 621.182 300.723 616.329 307.28L602.138 326.461C601.865 326.83 601.517 327.137 601.118 327.362C600.718 327.588 600.276 327.727 599.819 327.77C599.565 327.794 599.309 327.788 599.057 327.752Z" fill="#31D498"/>
<path d="M488.93 201.082C489.124 202.131 489.546 203.125 490.166 203.993C490.786 204.861 491.589 205.583 492.518 206.108C493.447 206.632 494.48 206.947 495.544 207.029C496.607 207.112 497.676 206.96 498.675 206.584L515.257 226.524L519.165 213.628L502.82 196.67C502.078 195.034 500.761 193.727 499.12 192.997C497.479 192.267 495.627 192.164 493.914 192.708C492.202 193.252 490.749 194.405 489.831 195.948C488.912 197.492 488.592 199.318 488.93 201.082Z" fill="#FFB8B8"/>
<path d="M501.919 209.347C502.261 208.778 502.769 208.326 503.375 208.052L509.024 205.5C509.637 205.225 510.319 205.145 510.978 205.27C511.637 205.395 512.243 205.72 512.711 206.2L529.026 222.986L568.775 238.411C569.965 239.116 571.004 240.048 571.833 241.154C572.662 242.261 573.265 243.52 573.606 244.859C573.948 246.199 574.023 247.593 573.826 248.961C573.629 250.329 573.164 251.645 572.457 252.834C571.751 254.022 570.817 255.06 569.71 255.888C568.602 256.715 567.342 257.316 566.002 257.657C564.662 257.997 563.268 258.07 561.899 257.871C560.531 257.672 559.215 257.206 558.027 256.498L532.496 248.087C524.746 245.535 518.188 240.256 514.041 233.231L501.907 212.688C501.674 212.293 501.527 211.853 501.475 211.397C501.423 210.942 501.467 210.48 501.606 210.042C501.682 209.799 501.788 209.566 501.919 209.347Z" fill="#31D498"/>
<path opacity="0.1" d="M606.046 272.593L605.321 295.814L591.95 319.043L603.114 293.157L606.046 272.593Z" fill="black"/>
<path d="M589.545 214.142C588.425 214.288 587.291 214.022 586.352 213.395C585.414 212.767 584.735 211.82 584.442 210.73C584.159 209.475 583.541 208.321 582.652 207.391C581.763 206.462 580.638 205.791 579.397 205.452C576.127 204.705 572.13 206.244 569.734 203.767C569.221 203.201 568.85 202.522 568.651 201.785C568.452 201.048 568.432 200.274 568.591 199.527C569.032 197.12 570.754 195.302 572.629 193.847C576.573 190.801 581.346 189.017 586.322 188.731C588.897 188.656 591.475 188.785 594.03 189.114C596.706 189.283 599.353 189.767 601.915 190.555C604.835 191.656 607.429 193.476 609.459 195.845C611.489 198.214 612.889 201.057 613.529 204.11C614.115 207.173 614.025 210.327 613.266 213.351C612.506 216.375 611.096 219.198 609.133 221.621C606.783 224.546 603.753 226.853 600.307 228.339C599.486 228.727 598.545 228.774 597.689 228.472C595.543 227.619 595.894 224.96 596.872 223.187C597.92 221.29 599.531 219.453 598.689 217.144C598.267 216.073 597.456 215.201 596.419 214.701C594.285 213.613 591.899 213.87 589.605 214.135L589.545 214.142Z" fill="#2F2E41"/>
<path d="M482.973 224.207H262.329C259.154 224.203 256.11 222.941 253.865 220.696C251.62 218.452 250.357 215.408 250.353 212.234V165.066C250.357 161.892 251.62 158.849 253.865 156.604C256.11 154.359 259.154 153.097 262.329 153.093H482.973C486.148 153.097 489.192 154.359 491.437 156.604C493.682 158.849 494.945 161.892 494.949 165.066V212.234C494.945 215.408 493.682 218.451 491.437 220.696C489.192 222.941 486.148 224.203 482.973 224.207Z" fill="white"/>
<path d="M482.973 224.57H262.329C259.058 224.566 255.921 223.265 253.608 220.953C251.295 218.64 249.994 215.504 249.99 212.234V165.066C249.994 161.796 251.295 158.66 253.608 156.347C255.921 154.035 259.058 152.734 262.329 152.73H482.973C486.244 152.734 489.38 154.035 491.693 156.347C494.007 158.66 495.308 161.796 495.311 165.066V212.234C495.308 215.504 494.007 218.64 491.693 220.953C489.38 223.265 486.244 224.566 482.973 224.57ZM262.329 154.182C259.443 154.185 256.675 155.333 254.634 157.373C252.593 159.414 251.445 162.181 251.442 165.066V212.234C251.445 215.12 252.593 217.886 254.634 219.927C256.675 221.968 259.443 223.115 262.329 223.119H482.973C485.859 223.115 488.627 221.968 490.668 219.927C492.709 217.886 493.857 215.12 493.86 212.234V165.066C493.857 162.181 492.709 159.414 490.668 157.373C488.627 155.333 485.859 154.185 482.973 154.182H262.329Z" fill="#3F3D56"/>
<path d="M456.118 212.597H289.184C286.009 212.593 282.965 211.33 280.719 209.086C278.474 206.841 277.212 203.798 277.208 200.623V175.951C277.212 172.777 278.474 169.733 280.719 167.489C282.965 165.244 286.009 163.981 289.184 163.978H456.118C459.293 163.981 462.337 165.244 464.582 167.489C466.827 169.733 468.09 172.777 468.094 175.951V200.623C468.09 203.798 466.827 206.841 464.582 209.086C462.337 211.33 459.293 212.593 456.118 212.597Z" fill="#F2F2F2"/>
<path d="M325.107 199.299C333.017 199.299 339.429 192.888 339.429 184.98C339.429 177.072 333.017 170.661 325.107 170.661C317.198 170.661 310.785 177.072 310.785 184.98C310.785 192.888 317.198 199.299 325.107 199.299Z" fill="#033D8C"/>
<path d="M445.744 211.152L425.529 194.201L405.663 177.542C405.138 177.103 404.475 176.862 403.791 176.864C403.107 176.865 402.445 177.108 401.923 177.55L382.12 194.284L377.284 198.372L369.99 192.257L347.827 173.672C347.302 173.233 346.64 172.992 345.955 172.994C345.271 172.995 344.609 173.238 344.087 173.679L321.995 192.349L299.555 211.313C299.442 211.409 299.36 211.538 299.322 211.682C299.284 211.826 299.291 211.978 299.342 212.117C299.394 212.257 299.487 212.378 299.609 212.463C299.731 212.548 299.876 212.593 300.025 212.593L346.031 212.504L360.594 212.476L360.452 212.597L403.86 212.513L445.279 212.433C445.428 212.433 445.573 212.387 445.695 212.302C445.817 212.216 445.91 212.095 445.96 211.955C446.011 211.815 446.018 211.663 445.979 211.519C445.94 211.376 445.858 211.247 445.744 211.152Z" fill="#3F3D56"/>
<path d="M635.274 480H495.92C495.728 480 495.543 479.924 495.407 479.787C495.271 479.651 495.194 479.467 495.194 479.274C495.194 479.082 495.271 478.897 495.407 478.761C495.543 478.625 495.728 478.549 495.92 478.549H635.274C635.467 478.549 635.651 478.625 635.787 478.761C635.923 478.897 636 479.082 636 479.274C636 479.467 635.923 479.651 635.787 479.787C635.651 479.924 635.467 480 635.274 480Z" fill="#CCCCCC"/>
<path d="M438.425 95.7226C437.846 94.7808 437.08 93.9669 436.175 93.3307C435.271 92.6944 434.246 92.249 433.163 92.0218C432.767 91.9384 432.364 91.8874 431.959 91.8694L376.66 42.4379C375.573 41.3216 374.124 40.6295 372.573 40.4859C372.267 40.4507 371.959 40.441 371.652 40.4568C370.376 40.5148 369.144 40.9432 368.108 41.6896C367.072 42.4361 366.276 43.4683 365.817 44.6599C365.358 45.8516 365.256 47.1511 365.524 48.3996C365.792 49.6481 366.418 50.7915 367.326 51.6899L388.497 70.1433L423.263 100.439C423.292 101.01 423.377 101.576 423.517 102.13C423.933 103.734 424.828 105.174 426.081 106.259C427.334 107.344 428.888 108.022 430.536 108.204C432.039 108.379 433.561 108.128 434.927 107.478C436.01 106.972 436.971 106.236 437.743 105.323C437.823 105.229 437.895 105.142 437.968 105.04C438.983 103.718 439.571 102.117 439.652 100.453C439.734 98.7879 439.306 97.1378 438.425 95.7226H438.425Z" fill="#FFB8B8"/>
<path d="M343.839 143.362L343.324 122.419L342.888 105.04L342.59 92.8781L342.002 69.171C341.886 67.9017 341.403 66.6937 340.611 65.6945C339.82 64.6953 338.754 63.9481 337.545 63.5441C336.336 63.1401 335.036 63.0968 333.802 63.4195C332.569 63.7422 331.456 64.4169 330.6 65.3613C330.398 65.5771 330.216 65.8102 330.056 66.0579C329.162 67.3375 328.76 68.8962 328.923 70.4481L330.215 105.04L330.862 122.419L331.689 144.588C331.45 144.914 331.234 145.256 331.043 145.611C330.527 146.59 330.215 147.663 330.126 148.766C330.038 149.869 330.174 150.978 330.528 152.026C330.896 153.126 331.494 154.134 332.281 154.986C333.068 155.838 334.026 156.513 335.093 156.968C336.16 157.422 337.312 157.646 338.471 157.623C339.631 157.601 340.772 157.333 341.821 156.837C343.039 156.261 344.096 155.395 344.899 154.314C345.703 153.232 346.227 151.97 346.427 150.638C346.626 149.306 346.494 147.945 346.043 146.676C345.592 145.407 344.835 144.269 343.839 143.362H343.839Z" fill="#FFB8B8"/>
<path d="M393.629 84.0396L388.497 70.1433L380.194 47.6336C379.595 45.9958 378.635 44.5139 377.385 43.2979C376.134 42.0818 374.626 41.1629 372.972 40.6092C372.842 40.5657 372.704 40.5222 372.573 40.4858C370.971 39.9996 369.283 39.8659 367.624 40.0939C365.965 40.3219 364.375 40.9061 362.964 41.8065L334.998 59.5415C332.437 61.162 330.607 63.7144 329.893 66.6594C329.179 69.6045 329.638 72.7116 331.173 75.3245C334.671 81.3704 338.482 87.2296 342.59 92.878C345.849 97.3118 351.917 97.7834 352.97 105.04H373.589L394.464 86.3036L393.629 84.0396Z" fill="#CCCCCC"/>
<path d="M73.4255 253.873C82.7139 253.873 90.2436 246.345 90.2436 237.058C90.2436 227.772 82.7139 220.244 73.4255 220.244C64.1372 220.244 56.6075 227.772 56.6075 237.058C56.6075 246.345 64.1372 253.873 73.4255 253.873Z" fill="#A0616A"/>
<path d="M114.714 225.484C114.88 225.616 115.04 225.755 115.196 225.903C115.969 226.631 116.579 227.513 116.986 228.493C117.394 229.473 117.59 230.528 117.561 231.589C117.533 232.65 117.28 233.692 116.82 234.649C116.361 235.605 115.704 236.454 114.893 237.139C114.704 237.298 114.507 237.446 114.303 237.584L115.441 276.004C115.473 277.261 115.099 278.496 114.374 279.524C113.649 280.553 112.612 281.32 111.416 281.712L111.347 281.727L80.1455 285.049C79.2973 285.14 78.4395 285.061 77.6218 284.818C76.8042 284.575 76.0428 284.172 75.3816 283.633C74.7204 283.094 74.1725 282.43 73.7697 281.678C73.3668 280.926 73.1168 280.102 73.0343 279.253C72.9517 278.404 73.0382 277.548 73.2887 276.732C73.5392 275.917 73.9487 275.159 74.4937 274.503C75.0387 273.847 75.7082 273.305 76.4638 272.909C77.2193 272.513 78.0458 272.271 78.8956 272.196L101.137 270.238L104.984 236.966C104.732 236.743 104.496 236.503 104.279 236.247C103.073 234.82 102.44 232.996 102.504 231.129C102.568 229.262 103.323 227.485 104.624 226.143C105.924 224.802 107.677 223.992 109.542 223.87C111.406 223.748 113.25 224.323 114.714 225.484H114.714Z" fill="#A0616A"/>
<path d="M101.125 471.075H109.52L113.513 438.702H101.123L101.125 471.075Z" fill="#A0616A"/>
<path d="M98.9836 468.335L115.516 468.334H115.517C116.9 468.334 118.27 468.607 119.548 469.136C120.827 469.666 121.988 470.441 122.967 471.42C123.945 472.398 124.721 473.559 125.25 474.837C125.78 476.115 126.052 477.485 126.052 478.868V479.21L98.9841 479.211L98.9836 468.335Z" fill="#2F2E41"/>
<path d="M17.6849 459.471L24.8979 463.764L44.8959 437.991L34.2499 431.654L17.6849 459.471Z" fill="#A0616A"/>
<path d="M17.2472 456.021L31.4524 464.477L31.4529 464.477C32.6417 465.185 33.6795 466.12 34.5069 467.229C35.3343 468.337 35.9352 469.598 36.2753 470.939C36.6154 472.28 36.688 473.674 36.4889 475.043C36.2899 476.412 35.8231 477.729 35.1152 478.917L34.94 479.211L11.6821 465.366L17.2472 456.021Z" fill="#2F2E41"/>
<path d="M111.501 459.641H102.1C101.339 459.642 100.604 459.361 100.039 458.852C99.4726 458.343 99.1155 457.643 99.0363 456.886L89.5593 367.821C89.5354 367.597 89.4384 367.387 89.2832 367.223C89.128 367.06 88.9233 366.952 88.7007 366.916C88.478 366.88 88.2498 366.919 88.0512 367.025C87.8526 367.132 87.6946 367.301 87.6017 367.507L70.5052 405.356L40.2366 454.702C39.8449 455.335 39.2383 455.805 38.528 456.027C37.8177 456.249 37.0513 456.208 36.3689 455.911L24.2768 450.592C23.877 450.416 23.5192 450.157 23.2271 449.832C22.9349 449.508 22.7152 449.125 22.5824 448.708C22.4496 448.292 22.4068 447.853 22.4569 447.419C22.5069 446.985 22.6486 446.567 22.8726 446.192L50.6977 399.61L59.2314 360.363C56.5475 343.343 68.0536 318.039 68.1703 317.785L68.2273 317.661L99.9212 305.276L100.08 305.47C112.579 346.48 120.196 390.613 114.572 456.818C114.503 457.586 114.15 458.301 113.582 458.823C113.014 459.345 112.272 459.636 111.501 459.641Z" fill="#2F2E41"/>
<path d="M66.9503 321.808L66.8027 321.498C66.7322 321.35 59.6848 306.489 54.2522 290.606C53.2081 287.534 52.8134 284.28 53.0931 281.048C53.3728 277.816 54.3207 274.677 55.8769 271.831C57.4534 268.955 59.61 266.437 62.2103 264.438C64.8106 262.439 67.7978 261.002 70.9828 260.217C76.5119 258.892 82.3332 259.597 87.3859 262.204C92.4387 264.81 96.3868 269.145 98.5108 274.418C102.82 285.192 101.447 296.692 100.154 305.735L100.129 305.916L99.9637 305.995L66.9503 321.808Z" fill="#3F3D56"/>
<path d="M93.8169 227.56H67.1119V215.922C72.9733 213.593 78.7091 211.613 82.1763 215.922C85.2636 215.922 88.2244 217.148 90.4074 219.33C92.5905 221.513 93.8169 224.473 93.8169 227.56V227.56Z" fill="#2F2E41"/>
<path d="M65.6334 213.868C49.6686 213.868 45.2 233.875 45.2 245.162C45.2 251.457 48.0473 253.708 52.5216 254.47L54.1017 246.044L57.8026 254.832C59.0594 254.839 60.3797 254.814 61.7486 254.789L63.0034 252.206L65.8015 254.743C77.0086 254.759 86.0664 256.393 86.0664 245.162C86.0664 233.875 82.1475 213.868 65.6334 213.868Z" fill="#2F2E41"/>
<path d="M140.08 480H0.725802C0.533308 480 0.348696 479.924 0.212582 479.787C0.0764677 479.651 0 479.467 0 479.274C0 479.082 0.0764677 478.897 0.212582 478.761C0.348696 478.625 0.533308 478.549 0.725802 478.549H140.08C140.272 478.549 140.457 478.625 140.593 478.761C140.729 478.897 140.806 479.082 140.806 479.274C140.806 479.467 140.729 479.651 140.593 479.787C140.457 479.924 140.272 480 140.08 480Z" fill="#CCCCCC"/>
<path d="M142.7 241.26H111.491C109.663 241.258 107.91 240.531 106.617 239.239C105.325 237.946 104.598 236.194 104.596 234.366V203.163C104.598 201.336 105.325 199.583 106.617 198.291C107.91 196.999 109.663 196.272 111.491 196.27H142.7C144.528 196.272 146.281 196.999 147.573 198.291C148.866 199.583 149.593 201.336 149.595 203.163V234.366C149.593 236.194 148.866 237.946 147.573 239.239C146.281 240.531 144.528 241.258 142.7 241.26Z" fill="white"/>
<path d="M142.7 241.26H111.491C109.663 241.258 107.91 240.531 106.617 239.239C105.325 237.946 104.598 236.194 104.596 234.366V203.163C104.598 201.336 105.325 199.583 106.617 198.291C107.91 196.999 109.663 196.272 111.491 196.27H142.7C144.528 196.272 146.281 196.999 147.573 198.291C148.866 199.583 149.593 201.336 149.595 203.163V234.366C149.593 236.194 148.866 237.946 147.573 239.239C146.281 240.531 144.528 241.258 142.7 241.26ZM111.491 197.721C110.047 197.722 108.664 198.296 107.643 199.317C106.623 200.337 106.049 201.72 106.047 203.163V234.366C106.049 235.809 106.623 237.193 107.643 238.213C108.664 239.233 110.047 239.807 111.491 239.809H142.7C144.143 239.807 145.527 239.233 146.548 238.213C147.568 237.193 148.142 235.809 148.144 234.366V203.163C148.142 201.72 147.568 200.337 146.548 199.317C145.527 198.296 144.143 197.722 142.7 197.721H111.491Z" fill="#3F3D56"/>
<path d="M137.257 228.561H116.934C116.357 228.56 115.803 228.331 115.395 227.923C114.987 227.515 114.757 226.961 114.757 226.384V211.145C114.757 210.568 114.987 210.015 115.395 209.607C115.803 209.199 116.357 208.969 116.934 208.968H122.655C123.027 208.967 123.393 209.062 123.718 209.243C124.043 209.424 124.316 209.687 124.51 210.004L126.105 212.597H137.257C137.834 212.597 138.387 212.827 138.796 213.235C139.204 213.643 139.433 214.196 139.434 214.774V226.384C139.433 226.961 139.204 227.515 138.796 227.923C138.387 228.331 137.834 228.56 137.257 228.561Z" fill="#31D498"/>
<path d="M136.596 236.26C136.697 236.445 136.791 236.637 136.877 236.833C137.307 237.803 137.526 238.854 137.522 239.915C137.517 240.976 137.288 242.024 136.85 242.991C136.412 243.958 135.775 244.821 134.98 245.524C134.185 246.227 133.25 246.754 132.237 247.071C132.001 247.144 131.762 247.204 131.52 247.252L117.658 283.103C117.199 284.275 116.375 285.267 115.308 285.934C114.241 286.6 112.987 286.905 111.733 286.803L111.663 286.79L81.6172 277.747C80.8003 277.501 80.0403 277.095 79.3809 276.554C78.7215 276.013 78.176 275.346 77.7757 274.593C77.3754 273.84 77.1283 273.015 77.0488 272.166C76.9692 271.316 77.0587 270.46 77.3121 269.645C77.5655 268.831 77.9778 268.075 78.5252 267.421C79.0725 266.766 79.7441 266.227 80.5011 265.834C81.2581 265.44 82.0855 265.201 82.9356 265.129C83.7857 265.057 84.6416 265.155 85.4539 265.415L106.713 272.239L123.171 243.067C123.026 242.764 122.902 242.451 122.8 242.131C122.243 240.348 122.368 238.421 123.151 236.725C123.935 235.029 125.321 233.685 127.04 232.953C128.759 232.221 130.689 232.155 132.455 232.766C134.221 233.377 135.697 234.622 136.596 236.26H136.596Z" fill="#A0616A"/>
</g>
<defs>
<clipPath id="clip0">
<rect width="636" height="480" fill="white"/>
</clipPath>
</defs>
</svg>
