<svg width="610" height="384" viewBox="0 0 610 384" fill="none" xmlns="http://www.w3.org/2000/svg">
<g clip-path="url(#clip0)">
<path d="M523.678 310.434H65.9361C62.8114 310.431 59.8157 309.188 57.6062 306.978C55.3968 304.768 54.1539 301.772 54.1504 298.647V16.3551C54.1529 14.0656 55.0634 11.8706 56.6821 10.2516C58.3007 8.63269 60.4954 7.722 62.7846 7.71936H526.68C529.009 7.72201 531.241 8.64842 532.888 10.2954C534.535 11.9423 535.461 14.1753 535.464 16.5044V298.647C535.46 301.772 534.217 304.768 532.008 306.978C529.798 309.188 526.803 310.431 523.678 310.434Z" fill="#F2F2F2"/>
<path d="M506.98 295.885H80.3765C74.1229 295.885 69.0354 291.12 69.0354 285.263V39.4397C69.0354 35.0962 72.8054 31.5623 77.4394 31.5623H509.778C514.489 31.5623 518.321 35.1544 518.321 39.5694V285.263C518.321 291.12 513.233 295.885 506.98 295.885Z" fill="white"/>
<path d="M535.3 17.8241H53.9851V11.8229C53.9896 8.68741 55.2376 5.68173 57.4551 3.46527C59.6726 1.24881 62.6786 0.00258857 65.8137 0H523.471C526.606 0.00257347 529.612 1.24879 531.83 3.46525C534.047 5.68171 535.295 8.68741 535.3 11.8229V17.8241Z" fill="#31D498"/>
<path d="M75.4817 11.9898C77.1715 11.9898 78.5413 10.6198 78.5413 8.92976C78.5413 7.23976 77.1715 5.86975 75.4817 5.86975C73.7919 5.86975 72.4221 7.23976 72.4221 8.92976C72.4221 10.6198 73.7919 11.9898 75.4817 11.9898Z" fill="white"/>
<path d="M87.0952 11.9898C88.785 11.9898 90.1548 10.6198 90.1548 8.92976C90.1548 7.23976 88.785 5.86975 87.0952 5.86975C85.4055 5.86975 84.0356 7.23976 84.0356 8.92976C84.0356 10.6198 85.4055 11.9898 87.0952 11.9898Z" fill="white"/>
<path d="M98.7088 11.9898C100.399 11.9898 101.768 10.6198 101.768 8.92976C101.768 7.23976 100.399 5.86975 98.7088 5.86975C97.019 5.86975 95.6492 7.23976 95.6492 8.92976C95.6492 10.6198 97.019 11.9898 98.7088 11.9898Z" fill="white"/>
<path d="M281.059 264.167H132.603C129.289 264.163 126.111 262.845 123.768 260.501C121.425 258.157 120.107 254.98 120.103 251.665V72.2448C120.106 69.7659 121.091 67.3893 122.844 65.6364C124.597 63.8836 126.973 62.8975 129.451 62.8947H284.061C286.579 62.8975 288.993 63.8993 290.774 65.6802C292.554 67.461 293.556 69.8756 293.559 72.3941V251.665C293.555 254.98 292.237 258.157 289.894 260.501C287.55 262.845 284.373 264.163 281.059 264.167ZM129.451 64.3234C127.351 64.3258 125.338 65.1612 123.854 66.6462C122.369 68.1313 121.534 70.1447 121.531 72.2448V251.665C121.535 254.601 122.702 257.415 124.778 259.491C126.853 261.567 129.667 262.735 132.603 262.738H281.059C283.994 262.735 286.808 261.567 288.884 259.491C290.959 257.415 292.127 254.601 292.13 251.665V72.3941C292.128 70.2544 291.277 68.203 289.764 66.69C288.251 65.177 286.2 64.3259 284.061 64.3234H129.451Z" fill="#CCCCCC"/>
<path d="M144.031 251.665H269.63C272.661 251.665 275.568 250.461 277.712 248.317C279.855 246.174 281.059 243.266 281.059 240.235V86.9653C281.059 83.9338 279.855 81.0265 277.712 78.883C275.568 76.7394 272.661 75.5352 269.63 75.5352H144.031C141 75.5352 138.093 76.7394 135.95 78.883C133.807 81.0265 132.603 83.9338 132.603 86.9653V240.235C132.603 243.266 133.807 246.174 135.95 248.317C138.093 250.461 141 251.665 144.031 251.665Z" fill="#E6E6E6"/>
<path d="M241.473 106.807H172.188C170.956 106.807 169.775 106.317 168.905 105.447C168.034 104.576 167.545 103.395 167.545 102.163C167.545 100.932 168.034 99.7505 168.905 98.8797C169.775 98.0089 170.956 97.5197 172.188 97.5197H241.473C242.705 97.5197 243.886 98.0089 244.756 98.8797C245.627 99.7505 246.116 100.932 246.116 102.163C246.116 103.395 245.627 104.576 244.756 105.447C243.886 106.317 242.705 106.807 241.473 106.807Z" fill="white"/>
<path d="M241.473 207.535H172.188C170.956 207.535 169.775 207.046 168.905 206.175C168.034 205.304 167.545 204.123 167.545 202.891C167.545 201.66 168.034 200.479 168.905 199.608C169.775 198.737 170.956 198.248 172.188 198.248H241.473C242.705 198.248 243.886 198.737 244.756 199.608C245.627 200.479 246.116 201.66 246.116 202.891C246.116 204.123 245.627 205.304 244.756 206.175C243.886 207.046 242.705 207.535 241.473 207.535Z" fill="white"/>
<path d="M241.473 229.681H172.188C170.956 229.681 169.775 229.192 168.905 228.321C168.034 227.45 167.545 226.269 167.545 225.037C167.545 223.806 168.034 222.625 168.905 221.754C169.775 220.883 170.956 220.394 172.188 220.394H241.473C242.705 220.394 243.886 220.883 244.756 221.754C245.627 222.625 246.116 223.806 246.116 225.037C246.116 226.269 245.627 227.45 244.756 228.321C243.886 229.192 242.705 229.681 241.473 229.681Z" fill="white"/>
<path d="M207.188 175.03C222.573 175.03 235.045 162.557 235.045 147.169C235.045 131.782 222.573 119.308 207.188 119.308C191.803 119.308 179.331 131.782 179.331 147.169C179.331 162.557 191.803 175.03 207.188 175.03Z" fill="white"/>
<path d="M386.391 121.639L374.222 124.206C374.114 124.229 374.014 124.276 373.928 124.344C373.842 124.411 373.772 124.498 373.725 124.597C373.678 124.696 373.654 124.804 373.655 124.914C373.656 125.023 373.682 125.131 373.732 125.229L374.866 127.463L319.834 155.4C319.751 155.443 319.676 155.501 319.615 155.573C319.554 155.644 319.508 155.726 319.479 155.816C319.449 155.905 319.438 155.999 319.445 156.092C319.453 156.186 319.478 156.277 319.521 156.361C319.563 156.444 319.622 156.519 319.693 156.58C319.764 156.641 319.847 156.687 319.936 156.716C320.025 156.746 320.119 156.757 320.212 156.75C320.306 156.742 320.397 156.717 320.481 156.674L375.513 128.737L376.646 130.971C376.696 131.069 376.767 131.154 376.855 131.219C376.943 131.285 377.044 131.33 377.152 131.35C377.26 131.37 377.371 131.365 377.476 131.336C377.582 131.306 377.679 131.253 377.76 131.179L387.015 122.87C387.132 122.765 387.211 122.624 387.24 122.47C387.269 122.315 387.246 122.155 387.175 122.015C387.104 121.875 386.989 121.762 386.847 121.694C386.705 121.626 386.545 121.607 386.391 121.639Z" fill="#E6E6E6"/>
<path d="M386.391 191.082L374.222 188.515C374.115 188.492 374.014 188.446 373.928 188.378C373.842 188.31 373.772 188.223 373.725 188.125C373.678 188.026 373.654 187.917 373.655 187.808C373.656 187.698 373.682 187.59 373.732 187.493L374.866 185.259L319.834 157.321C319.751 157.279 319.676 157.22 319.615 157.149C319.554 157.078 319.508 156.995 319.479 156.906C319.449 156.817 319.438 156.723 319.445 156.629C319.453 156.536 319.478 156.444 319.521 156.361C319.563 156.277 319.622 156.203 319.693 156.142C319.764 156.081 319.847 156.034 319.936 156.005C320.025 155.976 320.119 155.965 320.212 155.972C320.306 155.979 320.397 156.005 320.481 156.047L375.513 183.985L376.646 181.75C376.696 181.653 376.767 181.568 376.855 181.502C376.943 181.436 377.044 181.392 377.152 181.371C377.26 181.351 377.371 181.356 377.476 181.386C377.582 181.415 377.679 181.469 377.76 181.542L387.015 189.851C387.132 189.957 387.211 190.097 387.24 190.252C387.269 190.406 387.246 190.566 387.175 190.706C387.104 190.847 386.988 190.96 386.847 191.027C386.705 191.095 386.545 191.115 386.391 191.082Z" fill="#E6E6E6"/>
<path d="M426.502 137.537C423.394 137.537 420.356 136.616 417.771 134.889C415.187 133.162 413.173 130.707 411.984 127.835C410.794 124.963 410.483 121.803 411.089 118.755C411.696 115.706 413.192 112.906 415.39 110.708C417.588 108.51 420.388 107.013 423.436 106.406C426.484 105.8 429.644 106.111 432.515 107.301C435.387 108.49 437.841 110.505 439.568 113.089C441.294 115.674 442.216 118.712 442.216 121.821C442.211 125.988 440.554 129.982 437.608 132.929C434.662 135.875 430.668 137.533 426.502 137.537ZM426.502 107.533C423.676 107.533 420.914 108.371 418.565 109.941C416.216 111.511 414.385 113.742 413.303 116.353C412.222 118.964 411.939 121.837 412.491 124.608C413.042 127.38 414.402 129.926 416.4 131.924C418.398 133.922 420.944 135.283 423.715 135.834C426.486 136.385 429.358 136.102 431.969 135.021C434.579 133.94 436.81 132.108 438.38 129.759C439.95 127.409 440.787 124.647 440.787 121.821C440.783 118.033 439.277 114.401 436.598 111.723C433.92 109.044 430.289 107.537 426.502 107.533Z" fill="#E6E6E6"/>
<path d="M426.502 206.833C423.394 206.833 420.356 205.911 417.771 204.184C415.187 202.457 413.173 200.002 411.984 197.131C410.794 194.259 410.483 191.099 411.089 188.05C411.696 185.001 413.192 182.201 415.39 180.003C417.588 177.805 420.388 176.308 423.436 175.702C426.484 175.095 429.644 175.406 432.515 176.596C435.387 177.786 437.841 179.8 439.568 182.385C441.294 184.969 442.216 188.008 442.216 191.116C442.211 195.283 440.554 199.278 437.608 202.224C434.662 205.171 430.668 206.828 426.502 206.833ZM426.502 176.828C423.676 176.828 420.914 177.666 418.565 179.236C416.216 180.806 414.385 183.038 413.303 185.648C412.222 188.259 411.939 191.132 412.491 193.904C413.042 196.675 414.402 199.221 416.4 201.219C418.398 203.217 420.944 204.578 423.715 205.129C426.486 205.681 429.358 205.398 431.969 204.316C434.579 203.235 436.81 201.404 438.38 199.054C439.95 196.704 440.787 193.942 440.787 191.116C440.783 187.328 439.277 183.696 436.598 181.018C433.92 178.339 430.289 176.833 426.502 176.828Z" fill="#E6E6E6"/>
<path d="M425.256 129.565C424.802 129.566 424.36 129.419 423.997 129.147L423.974 129.13L419.231 125.501C419.012 125.333 418.827 125.123 418.689 124.883C418.55 124.643 418.461 124.379 418.424 124.104C418.388 123.83 418.406 123.551 418.478 123.284C418.549 123.016 418.673 122.765 418.841 122.546C419.01 122.326 419.22 122.142 419.459 122.003C419.699 121.865 419.963 121.775 420.238 121.738C420.512 121.702 420.791 121.72 421.058 121.792C421.326 121.863 421.577 121.987 421.796 122.155L424.868 124.511L432.128 115.039C432.296 114.82 432.506 114.635 432.746 114.497C432.985 114.359 433.25 114.269 433.524 114.232C433.798 114.196 434.077 114.214 434.344 114.286C434.612 114.357 434.862 114.481 435.082 114.649L435.082 114.65L435.037 114.712L435.083 114.65C435.526 114.99 435.816 115.492 435.889 116.046C435.962 116.6 435.813 117.161 435.473 117.604L426.934 128.741C426.737 128.997 426.483 129.205 426.192 129.348C425.901 129.49 425.582 129.564 425.258 129.563L425.256 129.565Z" fill="#E6E6E6"/>
<path d="M419.683 197.936C419.584 197.836 419.505 197.718 419.451 197.588C419.397 197.458 419.369 197.319 419.369 197.178C419.369 197.037 419.397 196.898 419.451 196.768C419.505 196.638 419.584 196.52 419.683 196.42L431.805 184.297C432.006 184.096 432.278 183.983 432.562 183.983C432.847 183.983 433.119 184.096 433.32 184.297C433.521 184.498 433.634 184.77 433.634 185.054C433.634 185.339 433.521 185.611 433.32 185.812L421.198 197.936C421.099 198.035 420.981 198.114 420.851 198.168C420.721 198.222 420.582 198.249 420.441 198.249C420.3 198.249 420.161 198.222 420.031 198.168C419.901 198.114 419.783 198.035 419.683 197.936Z" fill="#E6E6E6"/>
<path d="M432.606 197.936C432.705 197.836 432.784 197.718 432.838 197.588C432.892 197.458 432.92 197.319 432.92 197.178C432.92 197.037 432.892 196.898 432.838 196.768C432.784 196.638 432.705 196.52 432.606 196.42L420.484 184.297C420.283 184.096 420.011 183.983 419.727 183.983C419.443 183.983 419.17 184.096 418.969 184.297C418.768 184.498 418.656 184.77 418.656 185.054C418.655 185.339 418.768 185.611 418.969 185.812L431.091 197.936C431.19 198.035 431.308 198.114 431.438 198.168C431.568 198.222 431.708 198.249 431.848 198.249C431.989 198.249 432.128 198.222 432.258 198.168C432.388 198.114 432.507 198.035 432.606 197.936Z" fill="#E6E6E6"/>
<path d="M453.636 156.935C453.589 156.935 453.543 156.932 453.497 156.925C453.374 156.907 453.255 156.865 453.148 156.802C453.041 156.738 452.947 156.653 452.873 156.553L447.034 148.722C447.009 148.689 446.976 148.663 446.938 148.646C446.9 148.63 446.858 148.624 446.817 148.629C446.776 148.634 446.737 148.649 446.704 148.674C446.671 148.699 446.645 148.732 446.629 148.77L443.635 155.775C443.557 155.958 443.424 156.111 443.254 156.214C443.085 156.317 442.887 156.364 442.69 156.349C442.492 156.334 442.304 156.258 442.152 156.131C442 156.003 441.891 155.832 441.842 155.64L435.867 132.512C435.82 132.329 435.828 132.136 435.891 131.958C435.954 131.78 436.068 131.625 436.219 131.513C436.37 131.4 436.552 131.335 436.74 131.325C436.929 131.316 437.115 131.363 437.277 131.461L457.734 143.787C457.904 143.889 458.038 144.042 458.116 144.224C458.195 144.406 458.214 144.608 458.172 144.802C458.13 144.996 458.029 145.172 457.882 145.305C457.735 145.438 457.55 145.522 457.353 145.544L449.788 146.414C449.746 146.419 449.707 146.435 449.674 146.459C449.641 146.484 449.615 146.517 449.598 146.555C449.582 146.593 449.576 146.635 449.581 146.676C449.585 146.717 449.601 146.756 449.626 146.789L455.465 154.62C455.615 154.822 455.679 155.075 455.643 155.324C455.606 155.574 455.473 155.798 455.271 155.949L454.202 156.746C454.038 156.869 453.84 156.935 453.636 156.935Z" fill="#31D498"/>
<path d="M486.859 173.971H461.145C459.25 173.971 457.433 173.218 456.094 171.879C454.754 170.539 454.002 168.722 454.002 166.827C454.002 164.932 454.754 163.115 456.094 161.776C457.433 160.436 459.25 159.683 461.145 159.683H486.859C488.753 159.683 490.57 160.436 491.91 161.776C493.249 163.115 494.002 164.932 494.002 166.827C494.002 168.722 493.249 170.539 491.91 171.879C490.57 173.218 488.753 173.971 486.859 173.971Z" fill="#31D498"/>
<path d="M175.23 124.599L174.161 123.802C173.959 123.651 173.826 123.426 173.789 123.177C173.753 122.928 173.817 122.674 173.967 122.472L179.806 114.642C179.831 114.609 179.847 114.569 179.851 114.528C179.856 114.487 179.85 114.446 179.834 114.408C179.817 114.37 179.791 114.337 179.758 114.312C179.725 114.287 179.685 114.272 179.644 114.267L172.079 113.397C171.882 113.374 171.697 113.29 171.55 113.157C171.403 113.024 171.302 112.849 171.26 112.655C171.218 112.461 171.237 112.259 171.316 112.077C171.394 111.895 171.528 111.742 171.698 111.64L192.155 99.3132C192.317 99.2158 192.503 99.1688 192.692 99.178C192.88 99.1873 193.062 99.2524 193.213 99.3652C193.364 99.4779 193.478 99.6332 193.541 99.8111C193.603 99.989 193.612 100.182 193.565 100.364L187.59 123.492C187.541 123.684 187.432 123.856 187.28 123.983C187.128 124.11 186.94 124.187 186.742 124.202C186.545 124.217 186.347 124.17 186.178 124.067C186.008 123.964 185.875 123.81 185.797 123.628L182.803 116.622C182.787 116.584 182.761 116.551 182.728 116.527C182.695 116.502 182.656 116.486 182.615 116.481C182.574 116.477 182.532 116.483 182.494 116.499C182.456 116.515 182.423 116.541 182.398 116.575L176.559 124.406C176.485 124.506 176.391 124.59 176.284 124.654C176.177 124.718 176.058 124.76 175.935 124.778C175.889 124.784 175.843 124.788 175.796 124.788C175.592 124.788 175.394 124.722 175.23 124.599Z" fill="#3F3D56"/>
<path d="M135.43 134.68C135.432 132.786 136.186 130.97 137.525 129.631C138.864 128.291 140.679 127.538 142.573 127.536H168.287C170.182 127.536 171.999 128.289 173.338 129.628C174.678 130.968 175.43 132.785 175.43 134.68C175.43 136.574 174.678 138.391 173.338 139.731C171.999 141.071 170.182 141.824 168.287 141.824H142.573C140.679 141.821 138.864 141.068 137.525 139.729C136.186 138.39 135.432 136.574 135.43 134.68Z" fill="#3F3D56"/>
<path d="M516.679 264.177C517.453 263.467 518.062 262.596 518.463 261.626C518.864 260.655 519.048 259.608 519.001 258.559C518.954 257.51 518.677 256.484 518.19 255.553C517.704 254.623 517.019 253.81 516.185 253.172L524.17 228.926L511.368 232.397L505.748 254.89C504.77 256.364 504.367 258.144 504.614 259.895C504.861 261.646 505.742 263.245 507.09 264.39C508.437 265.534 510.157 266.145 511.925 266.106C513.692 266.066 515.384 265.38 516.679 264.177Z" fill="#A0616A"/>
<path d="M593.467 262.748C592.693 262.038 592.084 261.167 591.683 260.197C591.282 259.226 591.098 258.179 591.146 257.13C591.193 256.081 591.469 255.055 591.956 254.124C592.442 253.194 593.127 252.381 593.962 251.744L585.976 227.497L598.778 230.969L604.398 253.462C605.376 254.935 605.779 256.715 605.532 258.466C605.285 260.217 604.404 261.816 603.057 262.961C601.709 264.106 599.989 264.716 598.221 264.677C596.454 264.638 594.762 263.951 593.467 262.748Z" fill="#A0616A"/>
<path d="M555.945 141.626C565.634 141.626 573.489 133.771 573.489 124.08C573.489 114.39 565.634 106.534 555.945 106.534C546.256 106.534 538.401 114.39 538.401 124.08C538.401 133.771 546.256 141.626 555.945 141.626Z" fill="#A0616A"/>
<path d="M539.384 375.308H530.628L526.461 341.527H539.386L539.384 375.308Z" fill="#A0616A"/>
<path d="M541.618 383.798L513.382 383.797V383.44C513.382 381.997 513.666 380.567 514.218 379.234C514.771 377.9 515.58 376.688 516.601 375.668C517.621 374.647 518.833 373.837 520.166 373.285C521.5 372.733 522.929 372.448 524.372 372.448H524.373L541.618 372.449L541.618 383.798Z" fill="#2F2E41"/>
<path d="M569.384 375.308H560.628L556.461 341.527H569.386L569.384 375.308Z" fill="#A0616A"/>
<path d="M571.618 383.798L543.382 383.797V383.44C543.382 381.997 543.666 380.567 544.218 379.234C544.771 377.9 545.58 376.688 546.601 375.668C547.621 374.647 548.833 373.837 550.166 373.285C551.5 372.733 552.929 372.448 554.372 372.448H554.373L571.618 372.449L571.618 383.798Z" fill="#2F2E41"/>
<path d="M539.241 365.434L528.955 365.406C528.514 365.462 528.066 365.425 527.641 365.297C527.215 365.169 526.821 364.953 526.484 364.663C526.14 364.369 525.862 364.006 525.668 363.597C525.473 363.188 525.367 362.743 525.357 362.291L526.542 248.435L574.011 247.961L571.257 361.452C571.242 362.292 570.896 363.093 570.294 363.68C569.693 364.267 568.884 364.594 568.044 364.589H557.437C556.605 364.591 555.804 364.27 555.204 363.692C554.605 363.115 554.253 362.327 554.225 361.495L551.658 293.379C551.658 293.333 551.65 293.287 551.632 293.244C551.614 293.202 551.588 293.163 551.556 293.131C551.523 293.099 551.484 293.074 551.441 293.057C551.398 293.041 551.352 293.033 551.306 293.035C551.214 293.032 551.125 293.065 551.057 293.128C550.99 293.19 550.949 293.276 550.944 293.368L542.012 362.488C541.957 363.222 541.652 363.915 541.148 364.451C540.643 364.987 539.971 365.334 539.241 365.434Z" fill="#2F2E41"/>
<path d="M548.098 256.191C541.084 256.191 533.672 254.938 526.981 251.274C526.481 251.001 526.061 250.6 525.765 250.113C525.469 249.625 525.306 249.068 525.294 248.498L524.359 196.535L523.042 185.416C522.253 178.802 523.431 172.102 526.429 166.154C529.427 160.206 534.112 155.274 539.898 151.976L540.506 151.629L542.219 147.631C542.359 147.3 542.595 147.02 542.897 146.827C543.2 146.634 543.553 146.537 543.912 146.549L566.942 147.207C567.308 147.219 567.661 147.342 567.955 147.56C568.249 147.778 568.469 148.081 568.585 148.428L569.655 151.638C575.566 155.031 580.309 160.137 583.26 166.282C586.21 172.426 587.229 179.321 586.182 186.056L576.742 248.542C576.658 249.105 576.425 249.634 576.069 250.078C575.712 250.521 575.245 250.861 574.714 251.064C570.536 252.652 559.882 256.191 548.098 256.191Z" fill="#3F3D56"/>
<path d="M593.103 249.145C592.742 249.145 592.39 249.036 592.092 248.832C591.795 248.628 591.565 248.339 591.434 248.003L579.74 217.732L570.177 170.571C569.815 168.791 569.983 166.945 570.659 165.26C571.334 163.575 572.489 162.124 573.98 161.088C575.268 160.192 576.761 159.637 578.321 159.473C579.881 159.309 581.457 159.543 582.903 160.153C584.348 160.762 585.616 161.727 586.588 162.958C587.56 164.189 588.205 165.646 588.463 167.194L591.14 183.254L604.412 244.732C604.509 245.189 604.423 245.666 604.173 246.061C603.924 246.456 603.53 246.738 603.075 246.847L593.509 249.098C593.376 249.129 593.24 249.145 593.103 249.145Z" fill="#3F3D56"/>
<path d="M517.757 249.145C517.621 249.145 517.484 249.129 517.351 249.098L507.785 246.847C507.331 246.738 506.937 246.456 506.687 246.061C506.438 245.666 506.352 245.189 506.448 244.732L519.724 183.237L522.397 167.194C522.655 165.647 523.3 164.189 524.272 162.958C525.245 161.727 526.512 160.762 527.958 160.153C529.403 159.543 530.979 159.309 532.54 159.473C534.1 159.637 535.593 160.192 536.881 161.088C538.371 162.124 539.526 163.575 540.202 165.26C540.878 166.945 541.045 168.791 540.684 170.571L531.137 217.674L519.426 248.004C519.295 248.34 519.066 248.628 518.768 248.832C518.47 249.036 518.118 249.145 517.757 249.145Z" fill="#3F3D56"/>
<path d="M569.6 140.819C567.976 141.754 561.555 142.373 561.098 140.556L561.088 140.516C560.77 139.184 561.034 137.793 561.125 136.427C561.217 135.061 561.083 133.56 560.153 132.556C558.418 130.683 555.333 131.676 552.825 131.202C551.356 130.875 550.057 130.022 549.171 128.806C548.285 127.589 547.873 126.091 548.011 124.592C548.047 124.308 548.103 124.024 548.165 123.74C548.322 123.02 548.31 122.274 548.13 121.559C547.95 120.845 547.607 120.182 547.127 119.623C546.648 119.063 546.045 118.623 545.367 118.335C544.689 118.048 543.953 117.922 543.218 117.967C540.683 118.112 537.948 118.88 535.851 117.002C534.229 115.55 533.834 111.771 534.546 109.715C535.744 106.258 543.413 104.449 546.762 103.454C550.904 102.257 555.26 101.998 559.514 102.697C563.768 103.395 567.813 105.032 571.355 107.49C573.47 108.981 575.446 110.855 576.347 113.281C577.249 115.707 576.814 118.767 574.781 120.369C576.356 122.037 577.466 124.091 577.998 126.323C578.531 128.556 578.467 130.889 577.814 133.089C576.81 136.325 572.018 139.427 569.6 140.819Z" fill="#2F2E41"/>
<path d="M81.1205 237.968C80.0757 237.863 79.0667 237.53 78.1645 236.993C77.2622 236.456 76.4888 235.727 75.8986 234.858C75.3083 233.99 74.9157 233.002 74.7484 231.966C74.581 230.929 74.643 229.868 74.9299 228.858L54.0198 214.217L66.3522 209.333L84.3181 223.985C85.9831 224.579 87.3721 225.764 88.222 227.314C89.0719 228.865 89.3237 230.673 88.9295 232.397C88.5354 234.121 87.5227 235.64 86.0835 236.667C84.6442 237.693 82.8784 238.157 81.1205 237.968Z" fill="#FFB8B8"/>
<path d="M69.7654 226.839L50.829 215.855C48.9264 214.779 47.2684 213.32 45.9603 211.569C44.6523 209.818 43.7228 207.814 43.231 205.684C42.7869 203.669 42.7603 201.584 43.153 199.559C43.5456 197.533 44.3492 195.609 45.514 193.906L61.19 170.781C62.2988 169.145 63.9848 167.988 65.9102 167.543C67.8357 167.098 69.8582 167.396 71.5727 168.379C73.2872 169.363 74.5669 170.957 75.1554 172.844C75.744 174.731 75.5979 176.77 74.7464 178.554L62.5057 204.204L74.9059 215.124C75.3347 215.503 75.655 215.988 75.834 216.531C76.0129 217.074 76.0439 217.655 75.924 218.214L74.5202 224.735C74.416 225.231 74.1946 225.696 73.8742 226.09C73.5538 226.483 73.1439 226.795 72.6787 226.998C72.2156 227.206 71.7096 227.3 71.2028 227.272C70.696 227.245 70.2031 227.096 69.7654 226.839L69.7654 226.839Z" fill="#3F3D56"/>
<path d="M155.568 175.453C155.25 176.454 154.717 177.373 154.005 178.145C153.294 178.918 152.422 179.525 151.451 179.924C150.479 180.323 149.432 180.504 148.384 180.455C147.335 180.405 146.309 180.127 145.38 179.638L126.754 197.093L124.511 184.018L142.543 169.447C143.467 167.94 144.912 166.824 146.604 166.311C148.296 165.798 150.117 165.923 151.722 166.664C153.328 167.404 154.606 168.708 155.315 170.327C156.023 171.947 156.113 173.771 155.568 175.453Z" fill="#FFB8B8"/>
<path d="M79.2797 152.539C88.9687 152.539 96.8233 144.683 96.8233 134.993C96.8233 125.303 88.9687 117.447 79.2797 117.447C69.5906 117.447 61.7361 125.303 61.7361 134.993C61.7361 144.683 69.5906 152.539 79.2797 152.539Z" fill="#FFB8B8"/>
<path d="M130.934 375.024L139.328 372.527L133.689 338.959L121.302 342.645L130.934 375.024Z" fill="#FFB8B8"/>
<path d="M127.978 372.92L144.508 368.001L144.508 368.001C145.892 367.59 147.343 367.455 148.778 367.604C150.214 367.753 151.606 368.183 152.875 368.871C154.144 369.558 155.265 370.488 156.175 371.609C157.085 372.73 157.765 374.019 158.176 375.402L158.278 375.745L131.215 383.798L127.978 372.92Z" fill="#2F2E41"/>
<path d="M38.9785 374.594H47.7349L51.9014 340.812H43.2628L38.9785 374.594Z" fill="#FFB8B8"/>
<path d="M36.7446 371.735L53.9902 371.734H53.9909C55.4342 371.734 56.8633 372.018 58.1967 372.571C59.5301 373.123 60.7417 373.933 61.7623 374.953C62.7828 375.974 63.5924 377.186 64.1447 378.519C64.697 379.853 64.9813 381.282 64.9813 382.726V383.083L36.7452 383.084L36.7446 371.735Z" fill="#2F2E41"/>
<path d="M124.669 362.933L91.822 268.401C91.753 268.193 91.6207 268.012 91.4436 267.883C91.2666 267.754 91.0537 267.683 90.8347 267.681C90.615 267.669 90.3972 267.728 90.2136 267.849C90.03 267.97 89.8904 268.148 89.8154 268.355L51.9661 362.988C51.7195 363.61 51.2838 364.14 50.7204 364.501C50.157 364.863 49.4944 365.039 48.8257 365.004L38.9468 364.525C38.471 364.502 38.0064 364.374 37.5864 364.149C37.1665 363.924 36.8017 363.609 36.5185 363.226C36.2353 362.843 36.0407 362.402 35.9488 361.935C35.8569 361.467 35.8701 360.985 35.9872 360.523L71.7894 219.401L107.709 216.47L107.943 216.808C108.137 217.088 127.356 245.385 127.344 294.24L139.659 361.296C139.744 361.76 139.727 362.237 139.607 362.693C139.488 363.149 139.269 363.573 138.968 363.935C138.666 364.297 138.288 364.588 137.862 364.788C137.435 364.989 136.969 365.092 136.498 365.092H127.705C127.038 365.092 126.387 364.884 125.843 364.497C125.299 364.11 124.889 363.564 124.669 362.933Z" fill="#2F2E41"/>
<path d="M58.9864 187.392C57.7227 183.773 57.4107 179.89 58.0805 176.116C58.7503 172.341 60.3793 168.803 62.811 165.84C65.1863 162.894 68.2789 160.608 71.792 159.202C75.3052 157.795 79.1208 157.316 82.8724 157.81C83.1701 157.85 83.4659 157.89 83.7599 157.931C88.5354 158.575 92.9745 160.748 96.4144 164.123C99.8543 167.498 102.111 171.895 102.847 176.658L109.555 219.328L71.3117 222.215L71.0372 222.235L58.9864 187.392Z" fill="#3F3D56"/>
<path d="M114.793 204.706C112.7 204.634 110.645 204.128 108.759 203.219C106.872 202.311 105.195 201.019 103.834 199.428L85.7437 178.454C84.3402 176.881 83.606 174.823 83.6973 172.717C83.7537 171.616 84.044 170.54 84.5489 169.56C85.0538 168.58 85.7617 167.719 86.6254 167.035C88.051 165.896 89.8287 165.29 91.6526 165.321C93.4766 165.352 95.2328 166.018 96.6191 167.204L118.193 185.696L131.466 176.461C131.942 176.13 132.499 175.933 133.078 175.893C133.657 175.853 134.236 175.97 134.754 176.232L141.106 179.449C141.56 179.679 141.953 180.013 142.252 180.424C142.552 180.836 142.75 181.313 142.829 181.815C142.908 182.318 142.867 182.832 142.709 183.316C142.551 183.8 142.28 184.239 141.919 184.598L126.124 200.287C124.716 201.695 123.044 202.811 121.204 203.571C119.365 204.331 117.393 204.721 115.402 204.717C115.199 204.717 114.996 204.713 114.793 204.706Z" fill="#3F3D56"/>
<path d="M92.6203 130.611C94.8048 131.458 97.1066 131.965 99.4449 132.113C101.797 132.142 104.297 131.327 105.584 129.536C106.078 128.753 106.397 127.873 106.519 126.956C106.64 126.039 106.563 125.106 106.29 124.221C105.803 122.428 104.926 120.765 103.722 119.35C102.518 117.936 101.016 116.804 99.3245 116.037C97.5467 115.23 95.6273 114.783 93.6762 114.72C91.7251 114.657 89.7808 114.98 87.9549 115.671C86.6349 111.657 81.6633 109.473 77.0617 109.35C67.6619 109.097 59.2572 115.508 55.1732 123.216C51.0892 130.924 50.4925 139.734 50.2386 148.288C50.1767 150.375 50.1508 152.55 51.1388 154.433C52.6101 157.238 55.9535 158.748 59.1049 159.946C67.3687 163.081 75.8943 165.478 84.5814 167.108C80.4103 164.442 79.0873 158.702 81.7293 154.735C83.0219 152.794 85.1444 151.179 85.4879 148.931C85.8997 146.236 83.6004 143.878 82.7498 141.27C82.3199 139.857 82.3005 138.352 82.6937 136.929C83.0869 135.506 83.8765 134.224 84.9706 133.233C86.1613 132.198 87.5851 131.468 89.1199 131.104C90.6546 130.74 92.2547 130.753 93.7832 131.143" fill="#2F2E41"/>
<path d="M177.857 384H0.714286C0.524845 384 0.343163 383.925 0.209209 383.791C0.0752543 383.657 0 383.475 0 383.286C0 383.096 0.0752543 382.914 0.209209 382.78C0.343163 382.646 0.524845 382.571 0.714286 382.571H177.857C178.047 382.571 178.228 382.646 178.362 382.78C178.496 382.914 178.571 383.096 178.571 383.286C178.571 383.475 178.496 383.657 178.362 383.791C178.228 383.925 178.047 384 177.857 384Z" fill="#CCCCCC"/>
<path d="M609.286 384H483.571C483.382 384 483.2 383.925 483.066 383.791C482.932 383.657 482.857 383.475 482.857 383.286C482.857 383.096 482.932 382.914 483.066 382.78C483.2 382.646 483.382 382.571 483.571 382.571H609.286C609.475 382.571 609.657 382.646 609.791 382.78C609.925 382.914 610 383.096 610 383.286C610 383.475 609.925 383.657 609.791 383.791C609.657 383.925 609.475 384 609.286 384Z" fill="#CCCCCC"/>
</g>
<defs>
<clipPath id="clip0">
<rect width="610" height="384" fill="white"/>
</clipPath>
</defs>
</svg>
