<svg width="124" height="124" viewBox="0 0 124 124" fill="none" xmlns="http://www.w3.org/2000/svg">
<g clip-path="url(#clip0)">
<path d="M11.1399 16.7572C11.1399 18.6286 12.657 20.1457 14.5283 20.1457C16.3997 20.1457 17.9168 18.6286 17.9168 16.7572C17.9168 14.8858 16.3997 13.3688 14.5281 13.3688C12.6567 13.3688 11.1399 14.8858 11.1399 16.7572Z" fill="black"/>
<path d="M24.9519 20.1457C26.8233 20.1457 28.3404 18.6286 28.3404 16.7572C28.3404 14.8858 26.8233 13.3688 24.9519 13.3688C23.0805 13.3688 21.5635 14.8858 21.5635 16.7572C21.5635 18.6286 23.0805 20.1457 24.9519 20.1457Z" fill="black"/>
<path d="M35.3755 20.1457C37.2469 20.1457 38.764 18.6286 38.764 16.7572C38.764 14.8858 37.2469 13.3688 35.3755 13.3688C33.5041 13.3688 31.9871 14.8858 31.9871 16.7572C31.9871 18.6286 33.5041 20.1457 35.3755 20.1457Z" fill="black"/>
<path d="M31.6793 66.6924C32.4032 66.6924 33.0878 66.2577 33.3717 65.5439L43.4995 40.0803C43.8712 39.1457 43.415 38.0871 42.4804 37.7154C41.5465 37.3444 40.4874 37.7999 40.1156 38.7345L29.9878 64.1981C29.6161 65.1327 30.0724 66.1913 31.007 66.5631C31.2276 66.6507 31.4553 66.6924 31.6793 66.6924Z" fill="black"/>
<path d="M51.4342 65.2257C51.7214 65.3921 52.0353 65.4713 52.3451 65.4713C52.9733 65.4713 53.5848 65.1456 53.9224 64.5629L60.7233 52.8216C61.0558 52.2472 61.0498 51.5373 60.7068 50.9689L53.906 39.6883C53.387 38.8268 52.2673 38.55 51.4066 39.069C50.5451 39.5883 50.2681 40.7074 50.7873 41.5684L57.0324 51.9275L50.7709 62.7375C50.2669 63.6077 50.5638 64.7217 51.4342 65.2257Z" fill="black"/>
<path d="M22.9049 62.7375L16.6433 51.9275L22.8884 41.5684C23.4076 40.7072 23.1306 39.5883 22.2691 39.069C21.4086 38.5503 20.289 38.8271 19.7697 39.6883L12.9689 50.9689C12.6259 51.5373 12.6199 52.2472 12.9524 52.8217L19.7533 64.5629C20.0909 65.1459 20.7024 65.4714 21.3306 65.4714C21.6404 65.4714 21.9545 65.3922 22.2415 65.2258C23.1122 64.7218 23.4089 63.6077 22.9049 62.7375Z" fill="black"/>
<path d="M91.3124 89.2996C90.3276 89.0981 89.3652 89.7329 89.1634 90.7184C88.4855 94.0303 85.535 96.4342 82.1477 96.4342C78.1994 96.4342 74.987 93.2219 74.987 89.2732C74.987 85.3246 78.1994 82.1122 82.1477 82.1122C83.899 82.1122 85.5849 82.7511 86.8944 83.9112C87.6471 84.5779 88.7982 84.5084 89.4647 83.7557C90.1317 83.003 90.0622 81.8524 89.3095 81.1854C87.3335 79.4346 84.79 78.4705 82.148 78.4705C76.1914 78.4705 71.3455 83.3166 71.3455 89.2732C71.3455 95.2298 76.1914 100.076 82.148 100.076C87.2572 100.076 91.7083 96.4476 92.7313 91.4486C92.9328 90.4633 92.2973 89.5011 91.3124 89.2996Z" fill="black"/>
<path d="M110.207 41.8215C106.901 40.4708 103.112 42.0619 101.762 45.368C101.108 46.9694 101.117 48.7299 101.787 50.3249C102.457 51.9199 103.405 52.878 105.309 53.8129C108.061 55.1643 112.486 53.6419 113.753 50.2665C114.865 47.3051 113.587 43.0833 110.207 41.8215ZM107.758 50.6618C106.189 50.6618 104.918 49.3903 104.918 47.8219C104.918 46.2535 106.189 44.982 107.758 44.982C109.326 44.982 110.598 46.2535 110.598 47.8219C110.598 49.3903 109.326 50.6618 107.758 50.6618Z" fill="black"/>
<path d="M122.306 48.7299L121.212 48.2828C121.224 47.9285 121.222 47.5739 121.206 47.2198L122.296 46.7621C123.681 46.1806 124.335 44.5805 123.753 43.1949L122.257 39.6333C121.7 38.4747 120.449 37.5975 118.69 38.1758L117.6 38.6333C117.358 38.3742 117.107 38.1245 116.845 37.8849L117.292 36.7917C117.716 35.8174 117.385 33.8525 115.8 33.2383L112.224 31.7775C111.25 31.3536 109.284 31.6845 108.671 33.2696L108.224 34.3635C107.87 34.3512 107.515 34.3531 107.161 34.3691L106.703 33.2797C106.421 32.6084 105.895 32.0872 105.221 31.8118C104.738 31.6145 104.22 31.5629 103.718 31.6525V13.8883C103.718 8.71975 99.5129 4.51465 94.3444 4.51465H90.5277C89.5219 4.51465 88.707 5.32985 88.707 6.33541C88.707 7.34098 89.5222 8.15618 90.5277 8.15618H94.3444C97.5049 8.15618 100.076 10.7275 100.076 13.888V25.358H3.64177V22.2774V13.888C3.64177 10.7275 6.21308 8.15618 9.37362 8.15618H82.0568C83.0626 8.15618 83.8775 7.34098 83.8775 6.33541C83.8775 5.32985 83.0623 4.51465 82.0568 4.51465H9.37362C4.2051 4.51489 0 8.71975 0 13.8883V90.39C0 95.5585 4.2051 99.7636 9.37362 99.7636H16.2178C17.2236 99.7636 18.0386 98.9484 18.0386 97.9428C18.0386 96.9373 17.2234 96.1221 16.2178 96.1221H9.37362C6.21308 96.1221 3.64177 93.5508 3.64177 90.3902V28.9998H100.076V33.1066L99.5737 33.3178C98.1889 33.8995 97.5352 35.4999 98.1167 36.8849L98.5742 37.9748C98.315 38.2167 98.0654 38.4686 97.8261 38.7299L96.7321 38.2831C95.3422 37.7147 93.7476 38.3836 93.179 39.7752L91.7186 43.3509C91.2943 44.3252 91.6251 46.2903 93.2107 46.904L94.3044 47.3508C94.2923 47.7052 94.294 48.06 94.31 48.414L93.2204 48.8718C92.062 49.429 91.1848 50.6809 91.7632 52.4392L93.2587 56.0003C93.8162 57.1592 95.0671 58.0364 96.8261 57.458L97.9159 57.0003C98.1579 57.2597 98.4095 57.5091 98.6711 57.7487L98.2242 58.8429C97.6561 60.2338 98.3257 61.8274 99.7163 62.3955L100.076 62.5425V64.6738C99.5553 64.3853 98.9675 64.2303 98.3555 64.2303C97.4035 64.2303 96.5078 64.6014 95.8346 65.2746L93.3664 67.7428C92.1071 67.0852 90.7932 66.5408 89.4391 66.115V62.6254C89.4391 60.6598 87.84 59.0606 85.8744 59.0606H78.422C76.4564 59.0606 74.857 60.6598 74.857 62.6254V66.115C73.5027 66.541 72.1896 67.0852 70.9299 67.7428L68.4618 65.2746C67.0719 63.8847 64.8108 63.8845 63.4202 65.2746L58.1504 70.5444C56.7605 71.9343 56.7605 74.1961 58.1504 75.586L60.6186 78.0542C59.961 79.3138 59.4168 80.6272 58.9911 81.9812H55.5016C53.536 81.9812 51.9366 83.5804 51.9366 85.546V92.9986C51.9366 94.342 52.6843 95.5135 53.7848 96.1211H24.6239C23.6181 96.1211 22.8032 96.9363 22.8032 97.9419C22.8032 98.9474 23.6184 99.7626 24.6239 99.7626H60.2579C60.3749 100.007 60.4924 100.25 60.6178 100.491L58.1497 102.959C57.4764 103.632 57.1056 104.527 57.1056 105.48C57.1056 106.432 57.4767 107.327 58.1497 108L63.4195 113.27C64.8103 114.661 67.0714 114.661 68.4611 113.27L70.9292 110.802C72.1888 111.46 73.5025 112.004 74.8563 112.43V115.919C74.8563 117.885 76.4557 119.484 78.4213 119.484H85.8736C87.8392 119.484 89.4384 117.885 89.4384 115.919V112.431C90.7927 112.005 92.1061 111.461 93.3657 110.803L95.8338 113.271C96.5071 113.945 97.4027 114.316 98.3548 114.316C99.307 114.316 100.202 113.945 100.875 113.271L106.145 108.002C106.818 107.328 107.189 106.433 107.189 105.481C107.189 104.528 106.818 103.633 106.145 102.96L103.677 100.492C104.334 99.2322 104.879 97.9191 105.305 96.5645H108.794C110.76 96.5645 112.359 94.9654 112.359 92.9995V85.547C112.359 83.5814 110.76 81.9822 108.794 81.9822H105.305C104.879 80.6276 104.334 79.3143 103.677 78.0551L106.146 75.5868C107.536 74.1968 107.536 71.935 106.146 70.5451L103.718 68.1174V63.9894C104.612 64.24 106.306 63.7673 106.845 62.3652L107.292 61.2713C107.646 61.2836 108.001 61.2817 108.355 61.2657L108.813 62.356C109.395 63.7414 110.995 64.3943 112.38 63.8128L115.942 62.3171C117.1 61.76 117.978 60.5084 117.399 58.7496L116.942 57.6598C117.201 57.4178 117.451 57.166 117.69 56.9046L118.784 57.3515C119.758 57.7753 121.723 57.4445 122.337 55.8594L123.798 52.283C124.366 50.8919 123.696 49.2983 122.306 48.7299ZM103.928 85.6237H108.718V92.9228H103.928C103.093 92.9228 102.365 93.4909 102.162 94.3013C101.671 96.2611 100.895 98.1342 99.8541 99.8685C99.4243 100.585 99.5374 101.502 100.128 102.093L103.517 105.481L98.355 110.642L94.967 107.254C94.3764 106.663 93.4597 106.55 92.7428 106.98C91.0078 108.021 89.1347 108.797 87.1756 109.287C86.3653 109.49 85.7969 110.218 85.7969 111.054V115.844H78.4978V111.054C78.4978 110.218 77.9294 109.49 77.119 109.287C75.1602 108.797 73.2874 108.021 71.5521 106.98C70.8352 106.55 69.9186 106.663 69.3279 107.254L65.9399 110.642L60.7784 105.481L64.1666 102.093C64.7573 101.502 64.8704 100.585 64.4405 99.8687C63.3998 98.1337 62.6236 96.2606 62.1332 94.3015C61.9302 93.4912 61.2022 92.923 60.3669 92.923H55.5767V85.624H60.3669C61.2022 85.624 61.9302 85.0556 62.1332 84.2454C62.6236 82.2864 63.3998 80.4136 64.4405 78.6785C64.8704 77.9621 64.7573 77.0452 64.1666 76.4543L60.7784 73.0661L65.9397 67.9048L69.3279 71.293C69.9188 71.8837 70.8352 71.9968 71.5521 71.5669C73.2869 70.5265 75.16 69.75 77.119 69.2596C77.9294 69.0569 78.4978 68.3286 78.4978 67.4933V62.7031H85.7969V67.4933C85.7969 68.3286 86.3653 69.0569 87.1756 69.2596C89.1349 69.7503 91.008 70.5265 92.7428 71.5669C93.4592 71.9968 94.3761 71.8837 94.967 71.293L98.355 67.9048L103.517 73.0661L100.128 76.4543C99.5374 77.045 99.4243 77.9621 99.8541 78.6785C100.895 80.4126 101.671 82.2854 102.162 84.2454C102.365 85.0556 103.093 85.6237 103.928 85.6237ZM119.312 53.6332L117.825 53.026C117.052 52.7097 116.163 52.9609 115.669 53.6341C115.101 54.4084 114.422 55.0933 113.652 55.6702C112.983 56.1711 112.741 57.0626 113.064 57.8327L113.686 59.3142L111.815 60.1001L111.193 58.6186C110.87 57.8482 110.064 57.3975 109.238 57.5239C108.287 57.6702 107.323 57.6753 106.372 57.5387C105.544 57.4195 104.744 57.8795 104.428 58.6525L103.82 60.1393L101.942 59.3718L102.549 57.8853C102.865 57.112 102.614 56.2231 101.941 55.7288C101.167 55.1607 100.482 54.482 99.9048 53.7116C99.4042 53.0432 98.5129 52.8005 97.7423 53.1243L96.2613 53.7465L95.4754 51.8754L96.9566 51.2532C97.727 50.9296 98.1782 50.1236 98.0513 49.2978C97.9053 48.3467 97.9002 47.3826 98.0365 46.432C98.1552 45.6051 97.696 44.8037 96.9227 44.4877L95.4362 43.8803L96.2037 42.0016L97.6904 42.609C98.463 42.9251 99.3523 42.6744 99.8469 42.0009C100.416 41.2266 101.094 40.5417 101.864 39.9651C102.533 39.4642 102.775 38.573 102.451 37.8026L101.829 36.3211L103.7 35.5352L104.323 37.0167C104.646 37.7871 105.452 38.2385 106.278 38.1114C107.229 37.9651 108.193 37.9605 109.144 38.0966C109.971 38.2155 110.772 37.7559 111.088 36.9828L111.695 35.4962L113.574 36.2635L112.966 37.7503C112.651 38.5233 112.902 39.4122 113.575 39.9067C114.349 40.4754 115.034 41.154 115.61 41.9237C116.111 42.5923 117.002 42.835 117.773 42.5112L119.254 41.889L120.04 43.7602L118.559 44.3823C117.789 44.7059 117.337 45.5119 117.464 46.3378C117.61 47.2886 117.615 48.2527 117.479 49.2038C117.361 50.0306 117.82 50.8318 118.593 51.1476L120.079 51.755L119.312 53.6332Z" fill="black"/>
</g>
<defs>
<clipPath id="clip0">
<rect width="124" height="124" fill="white"/>
</clipPath>
</defs>
</svg>
