<svg width="112" height="112" viewBox="0 0 112 112" fill="none" xmlns="http://www.w3.org/2000/svg">
<path d="M110.359 87.5396C109.453 87.5396 108.719 88.274 108.719 89.1802V91.2188C108.719 94.4151 106.118 97.0157 102.922 97.0157H9.07812C5.88175 97.0157 3.28125 94.4151 3.28125 91.2188V48.9302C3.28125 48.024 2.54669 47.2896 1.64062 47.2896C0.734562 47.2896 0 48.024 0 48.9302V91.2188C0 96.2244 4.07247 100.297 9.07812 100.297H102.922C107.928 100.297 112 96.2244 112 91.2188V89.1802C112 88.274 111.265 87.5396 110.359 87.5396Z" fill="black"/>
<path d="M102.922 11.7031H98.0324C97.1263 11.7031 96.3918 12.4375 96.3918 13.3438C96.3918 14.25 97.1263 14.9844 98.0324 14.9844H102.922C106.118 14.9844 108.719 17.5849 108.719 20.7813V29.2031H3.28125V20.7813C3.28125 17.5849 5.88175 14.9844 9.07812 14.9844H90.951C91.8571 14.9844 92.5916 14.25 92.5916 13.3438C92.5916 12.4375 91.8571 11.7031 90.951 11.7031H9.07812C4.07247 11.7031 0 15.7756 0 20.7813V41.8869C0 42.7932 0.734562 43.5275 1.64062 43.5275C2.54669 43.5275 3.28125 42.7932 3.28125 41.8869V32.4844H108.719V82.1393C108.719 83.0456 109.453 83.7799 110.359 83.7799C111.265 83.7799 112 83.0456 112 82.1393V20.7813C112 15.7756 107.928 11.7031 102.922 11.7031Z" fill="black"/>
<path d="M8.85938 22.022C8.85938 24.8566 11.1654 27.1627 14 27.1627C16.8346 27.1627 19.1406 24.8566 19.1406 22.022C19.1406 19.1875 16.8346 16.8814 14 16.8814C11.1654 16.8814 8.85938 19.1875 8.85938 22.022ZM15.8594 22.022C15.8594 23.0473 15.0253 23.8814 14 23.8814C12.9747 23.8814 12.1406 23.0473 12.1406 22.022C12.1406 20.9968 12.9747 20.1627 14 20.1627C15.0253 20.1627 15.8594 20.9968 15.8594 22.022Z" fill="black"/>
<path d="M21.3281 22.022C21.3281 24.8566 23.6342 27.1627 26.4688 27.1627C29.3033 27.1627 31.6094 24.8566 31.6094 22.022C31.6094 19.1875 29.3033 16.8814 26.4688 16.8814C23.6342 16.8814 21.3281 19.1875 21.3281 22.022ZM28.3281 22.022C28.3281 23.0473 27.494 23.8814 26.4688 23.8814C25.4435 23.8814 24.6094 23.0473 24.6094 22.022C24.6094 20.9968 25.4435 20.1627 26.4688 20.1627C27.494 20.1627 28.3281 20.9968 28.3281 22.022Z" fill="black"/>
<path d="M33.7969 22.022C33.7969 24.8566 36.1029 27.1627 38.9375 27.1627C41.7721 27.1627 44.0781 24.8566 44.0781 22.022C44.0781 19.1875 41.7721 16.8814 38.9375 16.8814C36.1029 16.8814 33.7969 19.1875 33.7969 22.022ZM40.7969 22.022C40.7969 23.0473 39.9628 23.8814 38.9375 23.8814C37.9122 23.8814 37.0781 23.0473 37.0781 22.022C37.0781 20.9968 37.9122 20.1627 38.9375 20.1627C39.9628 20.1627 40.7969 20.9968 40.7969 22.022Z" fill="black"/>
<path d="M13.4531 86.5156C13.4531 87.4219 14.1877 88.1562 15.0938 88.1562H96.9062C97.8123 88.1562 98.5469 87.4219 98.5469 86.5156C98.5469 85.6093 97.8123 84.875 96.9062 84.875H15.0938C14.1877 84.875 13.4531 85.6093 13.4531 86.5156Z" fill="black"/>
<path d="M44.625 44.7344H24.0625C19.0568 44.7344 14.9844 48.8068 14.9844 53.8125V68.25C14.9844 73.2557 19.0568 77.3281 24.0625 77.3281H44.625C49.6307 77.3281 53.7031 73.2557 53.7031 68.25V65.8438H58.2969V68.25C58.2969 73.2557 62.3693 77.3281 67.375 77.3281H87.9375C92.9432 77.3281 97.0156 73.2557 97.0156 68.25V53.8125C97.0156 48.8068 92.9432 44.7344 87.9375 44.7344H67.375C62.3693 44.7344 58.2969 48.8068 58.2969 53.8125V56.2188H53.7031V53.8125C53.7031 48.8068 49.6307 44.7344 44.625 44.7344ZM68.7969 59.5C69.6413 59.5 70.3281 60.1871 70.3281 61.0312C70.3281 61.8754 69.6413 62.5625 68.7969 62.5625H43.2031C42.3587 62.5625 41.6719 61.8754 41.6719 61.0312C41.6719 60.1871 42.3587 59.5 43.2031 59.5H68.7969ZM68.1406 65.8438H68.7969C71.4505 65.8438 73.6094 63.6849 73.6094 61.0312C73.6094 58.3776 71.4505 56.2188 68.7969 56.2188H68.1406V54.5781H87.1719V67.4844H68.1406V65.8438ZM43.8594 56.2188H43.2031C40.5495 56.2188 38.3906 58.3776 38.3906 61.0312C38.3906 63.6849 40.5495 65.8438 43.2031 65.8438H43.8594V67.4844H24.8281V54.5781H43.8594V56.2188ZM50.4219 68.25C50.4219 71.4464 47.8214 74.0469 44.625 74.0469H24.0625C20.8661 74.0469 18.2656 71.4464 18.2656 68.25V53.8125C18.2656 50.6161 20.8661 48.0156 24.0625 48.0156H44.625C47.8214 48.0156 50.4219 50.6161 50.4219 53.8125V56.2188H47.1406V53.8125C47.1406 52.4254 46.0121 51.2969 44.625 51.2969H24.0625C22.6754 51.2969 21.5469 52.4254 21.5469 53.8125V68.25C21.5469 69.6371 22.6754 70.7656 24.0625 70.7656H44.625C46.0121 70.7656 47.1406 69.6371 47.1406 68.25V65.8438H50.4219V68.25ZM61.5781 53.8125C61.5781 50.6161 64.1786 48.0156 67.375 48.0156H87.9375C91.1339 48.0156 93.7344 50.6161 93.7344 53.8125V68.25C93.7344 71.4464 91.1339 74.0469 87.9375 74.0469H67.375C64.1786 74.0469 61.5781 71.4464 61.5781 68.25V65.8438H64.8594V68.25C64.8594 69.6371 65.9879 70.7656 67.375 70.7656H87.9375C89.3246 70.7656 90.4531 69.6371 90.4531 68.25V53.8125C90.4531 52.4254 89.3246 51.2969 87.9375 51.2969H67.375C65.9879 51.2969 64.8594 52.4254 64.8594 53.8125V56.2188H61.5781V53.8125Z" fill="black"/>
</svg>
