<svg width="129" height="129" viewBox="0 0 129 129" fill="none" xmlns="http://www.w3.org/2000/svg">
<path d="M114.891 69.5995V30.0731C121.718 29.0895 126.984 23.218 126.984 16.125C126.984 8.3467 120.655 2.01562 112.875 2.01562C105.095 2.01562 98.7656 8.3467 98.7656 16.125H2.01562V96.75H62.5872C63.6353 113.593 77.6338 126.984 94.7344 126.984C112.516 126.984 126.984 112.516 126.984 94.7344C126.984 84.5776 122.254 75.5154 114.891 69.5995ZM112.875 6.04688C118.432 6.04688 122.953 10.5679 122.953 16.125C122.953 21.6821 118.432 26.2031 112.875 26.2031C107.318 26.2031 102.797 21.6821 102.797 16.125C102.797 10.5679 107.318 6.04688 112.875 6.04688ZM6.04688 20.1562H99.3602C99.842 21.7647 100.608 23.2462 101.592 24.5604L89.264 36.888C88.4738 36.509 87.6031 36.2812 86.6719 36.2812C85.7407 36.2812 84.8699 36.509 84.0818 36.888L80.0203 32.8265C80.3972 32.0363 80.625 31.1656 80.625 30.2344C80.625 26.9005 77.912 24.1875 74.5781 24.1875C71.2443 24.1875 68.5312 26.9005 68.5312 30.2344C68.5312 31.1656 68.759 32.0363 69.1379 32.8245L59.0296 42.9328C58.2395 42.5559 57.3687 42.3281 56.4375 42.3281C53.1037 42.3281 50.3906 45.0412 50.3906 48.375C50.3906 51.7088 53.1037 54.4219 56.4375 54.4219C59.7713 54.4219 62.4844 51.7088 62.4844 48.375C62.4844 47.4438 62.2566 46.573 61.8777 45.7849L71.986 35.6766C72.7762 36.0535 73.6469 36.2812 74.5781 36.2812C75.5093 36.2812 76.3801 36.0535 77.1682 35.6745L81.2297 39.736C80.8528 40.5262 80.625 41.3969 80.625 42.3281C80.625 45.662 83.338 48.375 86.6719 48.375C90.0057 48.375 92.7188 45.662 92.7188 42.3281C92.7188 41.3969 92.491 40.5262 92.1121 39.738L104.442 27.4105C106.286 28.7932 108.475 29.7305 110.859 30.0751V66.8502C106.109 64.0908 100.612 62.4844 94.7344 62.4844C85.0997 62.4844 76.4607 66.7535 70.5469 73.4756V64.5H58.4531V88.6875H63.0729C62.823 90.0037 62.6718 91.3522 62.5872 92.7188H6.04688V20.1562ZM86.6719 40.3125C87.7825 40.3125 88.6875 41.2155 88.6875 42.3281C88.6875 43.4408 87.7825 44.3438 86.6719 44.3438C85.5613 44.3438 84.6562 43.4408 84.6562 42.3281C84.6562 41.2155 85.5613 40.3125 86.6719 40.3125ZM72.5625 30.2344C72.5625 29.1217 73.4675 28.2188 74.5781 28.2188C75.6887 28.2188 76.5938 29.1217 76.5938 30.2344C76.5938 31.347 75.6887 32.25 74.5781 32.25C73.4675 32.25 72.5625 31.347 72.5625 30.2344ZM58.4531 48.375C58.4531 49.4876 57.5481 50.3906 56.4375 50.3906C55.3269 50.3906 54.4219 49.4876 54.4219 48.375C54.4219 47.2624 55.3269 46.3594 56.4375 46.3594C57.5481 46.3594 58.4531 47.2624 58.4531 48.375ZM94.7344 110.859C85.8435 110.859 78.6094 103.625 78.6094 94.7344C78.6094 85.8435 85.8435 78.6094 94.7344 78.6094C103.625 78.6094 110.859 85.8435 110.859 94.7344C110.859 103.625 103.625 110.859 94.7344 110.859ZM66.5156 79.1556C65.5501 80.8971 64.752 82.7374 64.119 84.6562H62.4844V68.5312H66.5156V79.1556ZM92.7188 66.6184V74.6809C82.5479 75.6968 74.5781 84.3015 74.5781 94.7344C74.5781 97.6832 75.2312 100.479 76.374 103.007L69.3818 107.044C67.5638 103.319 66.5156 99.1506 66.5156 94.7344C66.5156 79.855 78.0994 67.6585 92.7188 66.6184ZM94.7344 122.953C85.0312 122.953 76.4567 118.029 71.3773 110.547L78.3977 106.494C82.0621 111.569 88.0102 114.891 94.7344 114.891C101.459 114.891 107.407 111.569 111.071 106.494L118.091 110.547C113.012 118.029 104.438 122.953 94.7344 122.953ZM120.087 107.044L113.095 103.007C114.238 100.479 114.891 97.6832 114.891 94.7344C114.891 84.3015 106.921 75.6948 96.75 74.6809V66.6184C111.369 67.6585 122.953 79.855 122.953 94.7344C122.953 99.1506 121.905 103.319 120.087 107.044Z" fill="black"/>
<path d="M94.7344 82.6406C88.0647 82.6406 82.6406 88.0647 82.6406 94.7344C82.6406 101.404 88.0647 106.828 94.7344 106.828C101.404 106.828 106.828 101.404 106.828 94.7344C106.828 88.0647 101.404 82.6406 94.7344 82.6406ZM94.7344 102.797C90.2879 102.797 86.6719 99.1808 86.6719 94.7344C86.6719 90.2879 90.2879 86.6719 94.7344 86.6719C99.1808 86.6719 102.797 90.2879 102.797 94.7344C102.797 99.1808 99.1808 102.797 94.7344 102.797Z" fill="black"/>
<path d="M10.0781 24.1875H14.1094V28.2188H10.0781V24.1875Z" fill="black"/>
<path d="M18.1406 24.1875H46.3594V28.2188H18.1406V24.1875Z" fill="black"/>
<path d="M10.0781 32.25H14.1094V36.2812H10.0781V32.25Z" fill="black"/>
<path d="M18.1406 32.25H46.3594V36.2812H18.1406V32.25Z" fill="black"/>
<path d="M10.0781 40.3125H14.1094V44.3438H10.0781V40.3125Z" fill="black"/>
<path d="M18.1406 40.3125H46.3594V44.3438H18.1406V40.3125Z" fill="black"/>
<path d="M10.0781 48.375H14.1094V52.4062H10.0781V48.375Z" fill="black"/>
<path d="M18.1406 48.375H46.3594V52.4062H18.1406V48.375Z" fill="black"/>
<path d="M10.0781 88.6875H22.1719V68.5312H10.0781V88.6875ZM14.1094 72.5625H18.1406V84.6562H14.1094V72.5625Z" fill="black"/>
<path d="M26.2031 88.6875H38.2969V72.5625H26.2031V88.6875ZM30.2344 76.5938H34.2656V84.6562H30.2344V76.5938Z" fill="black"/>
<path d="M42.3281 88.6875H54.4219V56.4375H42.3281V88.6875ZM46.3594 60.4688H50.3906V84.6562H46.3594V60.4688Z" fill="black"/>
</svg>
