<svg width="602" height="418" viewBox="0 0 602 418" fill="none" xmlns="http://www.w3.org/2000/svg">
<g clip-path="url(#clip0)">
<path d="M17.8268 415.351C9.77277 413.174 -0.0290128 404.118 2.06945 391.67C3.11018 385.496 7.10461 381.5 11.2464 378.916C16.9753 375.342 23.4999 373.995 29.7875 373.655C37.0399 373.262 44.2842 374.252 51.4824 375.298C58.5885 376.331 65.6953 377.257 72.8332 377.821C100.764 380.014 128.865 377.926 156.166 371.628C162.904 370.071 169.602 368.245 176.259 366.15C182.568 364.291 188.736 361.984 194.716 359.245C202.631 355.441 215.502 348.04 214.453 334.332C213.896 327.064 209.62 321.259 205.307 317.215C200.092 312.325 194.057 309.107 188.147 305.983C160.654 291.45 133.108 277.09 105.589 262.644C99.166 259.273 92.7007 255.992 86.4674 252.041C80.6315 248.342 74.823 244.045 70.1265 238.104C66.0246 232.915 62.3591 225.949 62.4884 218.162C62.5957 211.704 65.5317 206.224 69.1276 202.128C78.0303 191.988 90.6239 187.876 102.006 185.723C116.147 183.047 130.493 183.061 144.643 180.477C156.069 178.391 168.277 174.364 177.569 164.927C181.5 161.089 184.28 156.226 185.596 150.89C186.782 145.3 186.206 139.48 183.945 134.232C181.428 128.214 177.413 123.42 173.191 119.495C168.341 115.048 162.841 111.37 156.88 108.587C144.33 102.601 131.134 99.4842 118.278 94.8903C111.974 92.6374 105.606 90.1669 99.7515 86.2971C94.7918 83.0186 89.3891 78.5995 86.6297 72.0278C80.9366 58.469 94.5185 50.3881 102.214 47.3272C107.445 45.3413 112.833 43.7974 118.322 42.7117C119.482 42.4623 118.99 40.1437 117.835 40.3919C112.058 41.5192 106.396 43.1741 100.92 45.3355C96.2794 47.2656 91.4909 49.8021 87.8456 54.1669C86.1859 56.1376 84.9587 58.4356 84.2438 60.9118C83.5289 63.388 83.3423 65.987 83.6959 68.5401C84.6614 75.0458 88.8586 80.0586 92.8005 83.6894C98.0132 88.4909 103.957 91.6265 109.983 94.1826C116.329 96.8746 122.81 98.9726 129.289 101.03C142.236 105.143 155.763 108.807 167.45 117.557C175.626 123.678 186.732 135.155 184.012 149.381C182.805 155.696 179.139 160.633 175.183 164.264C170.538 168.403 165.18 171.664 159.371 173.888C133.473 184.321 104.969 176.86 79.738 191.03C71.1592 195.848 60.7391 204.62 60.6552 218.422C60.6116 225.591 63.4828 232.167 67.0325 237.365C71.284 243.59 76.7894 248.193 82.3908 252.041C88.2889 255.944 94.413 259.493 100.731 262.67C107.633 266.298 114.536 269.922 121.441 273.541L163.344 295.537L184.164 306.465C190.518 309.801 197.035 313 202.813 317.896C207.543 321.905 213.132 328.483 212.65 336.649C212.266 343.135 207.962 347.816 204.028 350.945C198.935 354.997 193.214 357.618 187.521 359.796C180.955 362.308 174.281 364.392 167.594 366.265C153.896 370.098 139.916 372.837 125.786 374.456C111.691 376.081 97.4909 376.611 83.314 376.041C76.1509 375.753 68.999 375.179 61.8581 374.321C54.4975 373.433 47.1683 372.066 39.7886 371.459C33.1136 370.911 26.3742 371.038 19.8006 372.801C14.3118 374.274 8.51307 376.898 4.34661 382.019C1.27565 385.928 -0.262173 390.826 0.022503 395.791C0.304588 400.746 2.06943 405.501 5.08756 409.438C8.15322 413.46 12.4608 416.354 17.34 417.671C18.4906 417.982 18.9826 415.664 17.827 415.351L17.8268 415.351Z" fill="#E6E6E6"/>
<path d="M224.846 416.45H15.5825V417.898H224.846V416.45Z" fill="#3F3D56"/>
<path d="M208.726 348.216C216.276 348.216 222.397 342.089 222.397 334.532C222.397 326.975 216.276 320.848 208.726 320.848C201.176 320.848 195.055 326.975 195.055 334.532C195.055 342.089 201.176 348.216 208.726 348.216Z" fill="#E6E6E6"/>
<path d="M66.8935 224.518C74.4436 224.518 80.5641 218.391 80.5641 210.834C80.5641 203.277 74.4436 197.15 66.8935 197.15C59.3434 197.15 53.2229 203.277 53.2229 210.834C53.2229 218.391 59.3434 224.518 66.8935 224.518Z" fill="#E6E6E6"/>
<path d="M92.3386 362.094C92.3386 362.094 80.5215 378.119 77.8532 380.79C75.1848 383.461 74.4225 393.382 74.4225 393.382L78.9968 404.066L76.3284 409.408L55.7439 388.803L77.8532 355.989L92.3386 362.094Z" fill="#FFB8B8"/>
<path d="M142.656 264.032C142.656 264.032 99.8835 394.492 95.3092 397.544C90.7349 400.597 68.2073 381.437 61.727 376.858C55.2467 372.279 110.637 285.173 110.637 285.173C101.869 256.556 106.062 249.914 106.062 249.914L142.656 264.032Z" fill="#2F2E41"/>
<path d="M75.566 406.355C75.566 406.355 75.566 401.776 77.0382 399.491C78.5105 397.207 81.2839 407.5 81.2839 407.5C81.2839 407.5 98.0565 412.078 90.4326 417.039C82.8087 421.999 60.3182 406.355 53.8379 402.158C47.3576 397.961 49.6448 393 53.0755 389.566L59.7464 382.889L75.566 406.355Z" fill="#2F2E41"/>
<path d="M156.379 370.488C156.379 370.488 159.81 380.409 162.86 389.948C165.909 399.487 180.395 404.447 180.395 404.447L183.063 411.315L175.058 415.131L151.805 409.407C151.805 409.407 152.567 401.776 152.567 399.105C152.567 396.434 140.369 373.922 140.369 373.922L156.379 370.488Z" fill="#FFB8B8"/>
<path d="M126.265 149.945C135.107 149.945 142.275 142.77 142.275 133.919C142.275 125.068 135.107 117.893 126.265 117.893C117.423 117.893 110.255 125.068 110.255 133.919C110.255 142.77 117.423 149.945 126.265 149.945Z" fill="#FFB8B8"/>
<path d="M117.497 142.313C117.497 144.603 106.062 162.155 106.062 162.155L122.814 169.639L130.458 147.655L117.497 142.313Z" fill="#FFB8B8"/>
<path d="M132.745 225.876C135.891 225.86 138.917 227.079 141.174 229.271C143.432 231.463 144.741 234.454 144.82 237.601L145.325 257.545L147.993 262.124C147.993 262.124 164.411 384.678 164.411 388.494C164.411 392.31 148.108 402.832 138.579 402.069C133.864 401.692 123.294 358.338 119.1 334.603C116.114 317.705 113.201 299.317 110.274 285.742C109.297 280.847 108.018 276.018 106.443 271.282C98.0567 248.006 112.542 225.876 112.542 225.876H132.745V225.876Z" fill="#2F2E41"/>
<path d="M177.154 409.598C177.154 409.598 179.251 410.171 176.964 409.408C174.677 408.644 175.439 404.447 175.533 402.314C175.627 400.181 197.929 407.118 197.929 412.46C197.929 417.802 169.34 417.802 160.954 417.039C152.567 416.276 150.661 417.039 149.518 411.697C148.374 406.355 152.758 398.915 152.758 398.915L177.154 409.598Z" fill="#2F2E41"/>
<path d="M114.056 236.51C117.037 236.51 123.448 228.845 126.804 232.204C129.244 234.647 131.315 236.994 133.142 239.064C138.387 245.007 142.972 250.454 146.158 246.546C146.64 245.955 145.021 247.319 146.371 246.4C146.931 246.018 147.359 245.472 147.595 244.836C147.83 244.2 147.863 243.507 147.688 242.852C143.065 228.354 140.186 214.465 143.862 202.864C144.135 201.943 144.265 200.985 144.249 200.025C144.249 199.884 144.255 199.744 144.268 199.603C144.462 197.462 144.414 189.794 135.637 181.009C127.615 172.98 126.076 168.046 125.874 165.82C125.826 165.301 112.895 151.872 112.895 151.872C112.218 151.588 111.465 151.541 110.758 151.74C110.051 151.938 109.432 152.371 109.002 152.966L104.86 158.667C100.358 167.59 98.3929 177.58 99.1799 187.545C100.301 200.48 102.248 226.061 103.847 235.288C103.98 236.129 104.425 236.888 105.094 237.414C105.555 237.771 106.104 237.997 106.684 238.065C107.263 238.134 107.849 238.043 108.381 237.803C110.16 236.975 112.094 236.534 114.056 236.51Z" fill="#31D498"/>
<path d="M130.107 134.531L127.233 131.49C127.472 147.499 142.562 156.431 142.562 156.431L108.872 153.069L108.02 148.823L106.26 152.32L102.147 151.277L100.963 148.688L98.4248 150.071L103.633 129.484C108.777 109.846 124.462 112.726 124.462 112.726C146.424 105.851 143.733 126.818 143.733 126.818L130.107 134.531Z" fill="#2F2E41"/>
<path opacity="0.2" d="M117.276 339.794L111.166 285.703L118.679 335.809L117.276 339.794Z" fill="black"/>
<path d="M106.401 121.411C111.08 121.411 114.872 117.615 114.872 112.932C114.872 108.249 111.08 104.452 106.401 104.452C101.722 104.452 97.9297 108.249 97.9297 112.932C97.9297 117.615 101.722 121.411 106.401 121.411Z" fill="#2F2E41"/>
<path d="M107.746 119.801C107.923 119.801 108.098 119.806 108.277 119.794L108.294 119.793C110.535 119.645 112.626 118.613 114.107 116.922C115.588 115.232 116.338 113.022 116.191 110.779C116.045 108.535 115.014 106.442 113.326 104.959C111.638 103.476 109.431 102.724 107.189 102.87C107.011 102.881 106.838 102.908 106.663 102.931C108.817 102.924 110.892 103.741 112.466 105.214C114.039 106.686 114.992 108.704 115.13 110.856C115.268 113.008 114.581 115.131 113.209 116.793C111.837 118.456 109.884 119.531 107.746 119.801V119.801Z" fill="#2F2E41"/>
<path d="M127.579 138.9C129.041 138.9 130.227 137.24 130.227 135.191C130.227 133.142 129.041 131.481 127.579 131.481C126.117 131.481 124.932 133.142 124.932 135.191C124.932 137.24 126.117 138.9 127.579 138.9Z" fill="#FFB8B8"/>
<path d="M159.285 258.221L170.168 265.931C171.115 266.602 171.899 267.479 172.459 268.496C173.019 269.514 173.342 270.645 173.403 271.805C173.465 272.965 173.262 274.124 172.812 275.195C172.362 276.266 171.675 277.22 170.804 277.988C169.965 278.726 168.974 279.273 167.902 279.59C166.83 279.906 165.702 279.985 164.597 279.82C163.491 279.655 162.435 279.251 161.501 278.636C160.568 278.021 159.779 277.209 159.191 276.257L152.894 266.065L130.732 232.541L139.915 225.778L159.285 258.221Z" fill="#FEB8B8"/>
<path opacity="0.2" d="M141.808 228.178C141.851 234.119 135.985 239.278 127.7 240.025L108.692 199.6C106.697 195.357 105.95 190.633 106.538 185.981C107.126 181.329 109.024 176.94 112.012 173.328L131.199 196.668C131.795 206.814 136.12 217.331 141.808 228.178Z" fill="black"/>
<path d="M141.807 225.592C141.851 231.533 138.568 235.4 130.283 236.146L111.275 195.721C109.28 191.478 108.533 186.755 109.121 182.102C109.709 177.45 111.607 173.061 114.595 169.449L133.782 192.789C134.378 202.935 136.12 214.745 141.807 225.592Z" fill="#31D498"/>
<path d="M598.259 148.573H577.65C576.059 148.644 574.522 149.171 573.221 150.092C571.921 151.012 570.911 152.287 570.313 153.765L565.64 167.237L561.902 177.668L556.668 192.777C556.121 194.581 555.385 196.322 554.471 197.97C553.524 196.316 552.772 194.558 552.228 192.731L547.228 177.715C546.246 174.815 544.611 170.137 543.583 167.237L538.909 153.765C538.308 152.28 537.292 151.001 535.982 150.08C534.672 149.159 533.125 148.635 531.526 148.573H452.267C451.543 148.573 450.826 148.715 450.157 148.993C449.488 149.27 448.88 149.677 448.368 150.189C447.856 150.702 447.45 151.31 447.173 151.98C446.896 152.65 446.753 153.368 446.753 154.092V185.574C446.753 187.05 446.167 188.466 445.124 189.51C444.081 190.554 442.667 191.14 441.192 191.14H418.2C416.728 191.128 415.321 190.538 414.281 189.496C413.24 188.455 412.651 187.046 412.638 185.574V154.092C412.64 152.668 412.091 151.298 411.107 150.27C410.123 149.241 408.779 148.633 407.358 148.573H388.197C386.731 148.573 385.323 149.153 384.282 150.186C383.24 151.22 382.649 152.624 382.636 154.092V168.64C392.824 181.644 392.824 205.314 382.636 240.584V257.377C382.649 258.845 383.24 260.249 384.282 261.283C385.323 262.317 386.731 262.897 388.197 262.897H407.358C408.082 262.897 408.799 262.754 409.468 262.477C410.137 262.199 410.745 261.793 411.257 261.28C411.769 260.768 412.175 260.159 412.452 259.49C412.729 258.82 412.872 258.102 412.872 257.377V223.043C412.871 221.606 413.424 220.224 414.417 219.187C415.41 218.149 416.766 217.536 418.2 217.476H441.192C442.654 217.464 444.062 218.033 445.105 219.06C446.148 220.086 446.74 221.485 446.753 222.949L446.753 222.996V257.33C446.753 258.794 447.334 260.198 448.368 261.234C449.402 262.269 450.805 262.85 452.267 262.85H516.898C518.361 262.85 519.763 262.269 520.798 261.233C521.832 260.198 522.413 258.794 522.413 257.33V243.11C522.413 241.646 521.832 240.242 520.798 239.207C519.763 238.172 518.361 237.59 516.898 237.59H482.597C481.13 237.578 479.727 236.986 478.695 235.944C477.662 234.901 477.082 233.492 477.082 232.024V222.668C477.082 221.2 477.662 219.791 478.695 218.749C479.727 217.706 481.13 217.114 482.597 217.102H503.299C504.762 217.102 506.164 216.52 507.198 215.485C508.233 214.45 508.814 213.046 508.814 211.582V197.362C508.814 195.898 508.233 194.494 507.198 193.459C506.164 192.423 504.762 191.842 503.299 191.842H482.597C481.13 191.83 479.727 191.238 478.695 190.195C477.662 189.152 477.082 187.744 477.082 186.275V179.446C477.07 177.982 477.639 176.573 478.664 175.529C479.69 174.485 481.087 173.892 482.55 173.88L482.597 173.879H510.636C512.264 173.967 513.841 174.479 515.21 175.365C516.579 176.252 517.693 177.481 518.44 178.931L536.619 218.458C538.045 221.807 538.837 225.392 538.956 229.03V257.377C538.956 258.841 539.537 260.245 540.571 261.28C541.605 262.315 543.008 262.897 544.47 262.897H563.631C565.093 262.909 566.501 262.34 567.543 261.313C568.586 260.287 569.179 258.888 569.192 257.424L569.192 257.377V229.03C569.318 225.397 570.093 221.817 571.482 218.458L601.484 153.578C601.822 153.049 602.001 152.435 601.999 151.807C601.998 151.18 601.817 150.566 601.477 150.039C601.138 149.511 600.654 149.093 600.083 148.833C599.513 148.573 598.88 148.483 598.259 148.573V148.573Z" fill="url(#paint0_linear)"/>
<path d="M355.952 168.032C348.61 170.022 341.952 173.986 336.699 179.493C330.577 157.975 317.398 125.418 304.547 120.085C303.188 119.453 301.698 119.157 300.202 119.223C298.705 119.288 297.246 119.712 295.948 120.459C287.91 125.137 282.676 140.2 287.256 168.734C269.591 136.364 263.422 136.411 260.572 136.364C259.202 136.383 257.869 136.806 256.738 137.58C255.608 138.353 254.731 139.444 254.216 140.714C252.3 144.971 248.468 158.256 257.814 186.837C246.552 171.4 243.094 169.435 239.121 169.623C237.85 169.698 236.623 170.116 235.57 170.832C234.517 171.548 233.677 172.537 233.14 173.692C229.775 180.054 230.149 196.052 240.617 219.908C237.032 216.742 232.492 214.865 227.719 214.576C226.433 214.666 225.191 215.077 224.105 215.772C223.02 216.466 222.125 217.422 221.503 218.552C217.251 226.364 226.177 248.302 237.205 263.178C246.131 275.387 264.03 294.144 290.013 294.144C293.651 294.139 297.281 293.794 300.855 293.115C302.098 292.895 303.203 292.19 303.926 291.154C304.65 290.119 304.934 288.838 304.714 287.594C304.495 286.349 303.791 285.243 302.757 284.518C301.723 283.793 300.444 283.508 299.201 283.727C299.144 283.737 299.088 283.748 299.032 283.76C277.442 287.97 261.179 276.088 251.319 265.423C236.598 249.472 230.149 230.293 229.775 224.446C232.859 225.709 241.738 230.948 259.029 253.121C259.761 254.144 260.868 254.835 262.108 255.041C263.348 255.247 264.62 254.952 265.642 254.22C266.665 253.488 267.355 252.379 267.561 251.138C267.767 249.897 267.472 248.624 266.74 247.601C242.439 210.693 240.056 188.334 240.851 180.802C248.001 188.1 265.852 214.856 279.311 235.064C279.988 236.088 281.034 236.811 282.23 237.081C283.426 237.351 284.681 237.147 285.731 236.513C286.781 235.879 287.545 234.863 287.864 233.678C288.183 232.492 288.032 231.229 287.443 230.153C259.403 178.697 260.385 155.309 262.02 147.45C266.226 151.707 277.395 166.535 300.902 217.616C301.426 218.72 302.354 219.58 303.494 220.019C304.634 220.457 305.899 220.44 307.027 219.972C308.155 219.503 309.06 218.619 309.555 217.502C310.05 216.384 310.098 215.119 309.687 213.968C286.882 151.987 296.789 130.984 300.574 128.599C305.481 128.599 319.267 152.268 327.866 183.282C328.38 185.2 328.894 187.071 329.362 188.895C328.155 191.017 327.213 193.279 326.558 195.631C321.884 212.798 317.211 251.764 326.23 262.476C327.128 263.598 328.289 264.48 329.61 265.043C330.931 265.607 332.371 265.833 333.801 265.704C335.612 265.507 337.356 264.909 338.908 263.955C340.46 263 341.78 261.712 342.774 260.184C351.139 247.975 346.232 217.336 339.549 190.532C344.101 184.087 350.684 179.359 358.242 177.107C359.857 176.599 361.58 176.539 363.226 176.935C364.872 177.33 366.38 178.166 367.589 179.352C371.421 183.656 378.103 199.747 357.822 256.488C357.613 257.078 357.522 257.703 357.555 258.328C357.588 258.953 357.743 259.565 358.012 260.13C358.555 261.27 359.529 262.148 360.719 262.57C361.909 262.991 363.217 262.923 364.357 262.379C365.496 261.835 366.373 260.86 366.794 259.669C382.964 214.435 385.487 185.293 374.692 173.037C372.343 170.54 369.344 168.749 366.034 167.865C362.723 166.98 359.232 167.038 355.952 168.032ZM334.923 254.898C334.573 255.527 334.009 256.008 333.334 256.255C329.829 252.091 329.829 227.44 333.661 207.232C340.904 242.175 336.699 252.419 334.923 254.898V254.898Z" fill="url(#paint1_linear)"/>
<path d="M152.877 0.572372L114.919 17.0899C113.242 17.8217 111.924 19.1892 111.254 20.8925C110.583 22.5958 110.615 24.4957 111.342 26.1754L123.129 53.315C123.86 54.9931 125.227 56.3125 126.928 56.9836C128.63 57.6547 130.528 57.6227 132.206 56.8947L170.165 40.3772C171.841 39.6454 173.159 38.2779 173.83 36.5746C174.5 34.8713 174.468 32.9714 173.741 31.2916L161.954 4.15202C161.223 2.47392 159.857 1.1546 158.155 0.483518C156.454 -0.187563 154.556 -0.155607 152.877 0.572372ZM154.449 4.19099C154.676 4.09327 154.914 4.02456 155.159 3.98647L142.325 28.2228L115.967 21.0027C116.131 20.8871 116.306 20.7886 116.49 20.7085L154.449 4.19099ZM168.593 36.7585L130.634 53.2761C129.915 53.5881 129.102 53.6018 128.373 53.3141C127.643 53.0265 127.058 52.4611 126.744 51.7419L115.063 24.846L142.807 32.4458C143.239 32.5641 143.699 32.5316 144.11 32.3536C144.521 32.1757 144.859 31.8629 145.069 31.4668L158.501 6.0989L170.126 32.8647C170.438 33.5846 170.451 34.3989 170.164 35.1289C169.877 35.8588 169.312 36.4449 168.593 36.7585H168.593Z" fill="#E6E6E6"/>
</g>
<defs>
<linearGradient id="paint0_linear" x1="211.533" y1="205.72" x2="604.413" y2="205.72" gradientUnits="userSpaceOnUse">
<stop stop-color="#2D6DD0"/>
<stop offset="0.99" stop-color="#6C139C"/>
</linearGradient>
<linearGradient id="paint1_linear" x1="90045.5" y1="-5.80203e+06" x2="187870" y2="-5.80203e+06" gradientUnits="userSpaceOnUse">
<stop stop-color="#2D6DD0"/>
<stop offset="0.99" stop-color="#6C139C"/>
</linearGradient>
<clipPath id="clip0">
<rect width="602" height="418" fill="white"/>
</clipPath>
</defs>
</svg>
