<svg width="294" height="645" viewBox="0 0 294 645" fill="none" xmlns="http://www.w3.org/2000/svg">
<path d="M294 153.229H290.761V56.1734C290.761 48.7966 289.432 41.492 286.852 34.6767C284.272 27.8614 280.489 21.6689 275.721 16.4527C270.953 11.2366 265.291 7.09887 259.061 4.2759C252.831 1.45293 246.154 -2.32697e-05 239.41 2.79508e-10H51.4397C44.6963 -1.74522e-05 38.0189 1.45293 31.7888 4.27591C25.5587 7.09888 19.8979 11.2366 15.1295 16.4527C10.3612 21.669 6.57875 27.8614 3.99815 34.6767C1.41756 41.492 0.0893482 48.7966 0.0893555 56.1734V588.63C0.0893466 596.007 1.41756 603.312 3.99815 610.127C6.57875 616.942 10.3612 623.135 15.1295 628.351C19.8979 633.567 25.5586 637.705 31.7888 640.528C38.0189 643.35 44.6963 644.803 51.4397 644.803H239.41C246.154 644.803 252.831 643.35 259.061 640.528C265.291 637.705 270.953 633.567 275.721 628.351C280.489 623.135 284.272 616.942 286.852 610.127C289.432 603.312 290.761 596.007 290.761 588.63V222.315H294V153.229Z" fill="#010643"/>
<path d="M241.483 14.6143H216.946C218.075 17.6406 218.505 20.9239 218.201 24.1751C217.896 27.4263 216.864 30.5456 215.198 33.2582C213.532 35.9708 211.281 38.1935 208.644 39.7304C206.007 41.2673 203.066 42.0714 200.078 42.0715H92.3922C89.4044 42.0714 86.4628 41.2673 83.8257 39.7304C81.1894 38.1935 78.9385 35.9708 77.272 33.2582C75.6055 30.5456 74.5744 27.4263 74.2695 24.1751C73.9647 20.9239 74.3954 17.6405 75.5238 14.6143H52.6067C47.5708 14.6143 42.5842 15.6993 37.9316 17.8075C33.2791 19.9156 29.0516 23.0056 25.4906 26.901C21.9298 30.7963 19.105 35.4209 17.1779 40.5104C15.2507 45.6 14.2588 51.0549 14.2588 56.5638V588.239C14.2588 593.748 15.2507 599.203 17.1779 604.292C19.105 609.382 21.9298 614.006 25.4906 617.902C29.0516 621.798 33.2791 624.887 37.9316 626.996C42.5842 629.104 47.5708 630.189 52.6067 630.189H241.483C246.519 630.189 251.505 629.104 256.158 626.996C260.81 624.887 265.038 621.798 268.599 617.902C272.16 614.006 274.985 609.382 276.912 604.292C278.839 599.203 279.831 593.748 279.831 588.239V56.5639C279.831 51.055 278.839 45.6 276.912 40.5104C274.985 35.4209 272.16 30.7964 268.599 26.901C265.038 23.0057 260.81 19.9157 256.158 17.8075C251.505 15.6994 246.519 14.6143 241.483 14.6143Z" fill="white"/>
<path d="M173.304 157.444H106.357V164.245H173.304V157.444Z" fill="#31D498"/>
<path d="M223.041 180.971H106.357V187.772H223.041V180.971Z" fill="#E6E6E6"/>
<path d="M222.926 204.498H106.357V211.299H222.926V204.498Z" fill="#E6E6E6"/>
<path d="M92.482 157.545H42.7458V211.953H92.482V157.545Z" fill="#31D498"/>
<path d="M173.304 300.265H106.357V307.066H173.304V300.265Z" fill="#31D498"/>
<path d="M223.041 323.792H106.357V330.593H223.041V323.792Z" fill="#E6E6E6"/>
<path d="M222.926 347.318H106.357V354.119H222.926V347.318Z" fill="#E6E6E6"/>
<path d="M92.482 300.366H42.7458V354.774H92.482V300.366Z" fill="#31D498"/>
<path d="M173.304 443.086H106.357V449.887H173.304V443.086Z" fill="#31D498"/>
<path d="M223.041 466.612H106.357V473.413H223.041V466.612Z" fill="#E6E6E6"/>
<path d="M222.926 490.14H106.357V496.941H222.926V490.14Z" fill="#E6E6E6"/>
<path d="M92.482 443.187H42.7458V497.595H92.482V443.187Z" fill="#31D498"/>
</svg>
