<svg width="54" height="54" viewBox="0 0 54 54" fill="none" xmlns="http://www.w3.org/2000/svg">
<g clip-path="url(#clip0)">
<path d="M26.958 0C18.1995 0 11.0742 7.12532 11.0742 15.8838V38.1162C11.0742 46.8747 18.1995 54 26.958 54C35.7164 54 42.8417 46.8747 42.8417 38.1162V15.8838C42.8417 7.12532 35.7164 0 26.958 0ZM39.6019 38.1162C39.6019 45.0879 33.9296 50.7601 26.958 50.7601C19.9863 50.7601 14.3141 45.0879 14.3141 38.1162V15.8838C14.3141 8.91211 19.9863 3.23987 26.958 3.23987C33.9296 3.23987 39.6019 8.91211 39.6019 15.8838V38.1162Z" fill="#010643"/>
<path d="M26.9583 10.7421C26.0635 10.7421 25.3384 11.4672 25.3384 12.3621V19.8182C25.3384 20.7126 26.0635 21.4381 26.9583 21.4381C27.8527 21.4381 28.5782 20.7126 28.5782 19.8182V12.3621C28.5782 11.4672 27.8531 10.7421 26.9583 10.7421Z" fill="#010643"/>
</g>
<defs>
<clipPath id="clip0">
<rect width="54" height="54" fill="white"/>
</clipPath>
</defs>
</svg>
