<svg width="584" height="574" viewBox="0 0 584 574" fill="none" xmlns="http://www.w3.org/2000/svg">
<g clip-path="url(#clip0)">
<path d="M289.115 175.606H285.122C283.849 174.821 282.571 174.045 281.287 173.279C280.492 172.784 279.688 172.307 278.883 171.821C265.594 163.812 252.223 156.132 238.772 148.783C225.333 141.428 211.828 134.415 198.258 127.745C197.898 127.591 197.604 127.316 197.426 126.968C197.249 126.619 197.199 126.22 197.285 125.839C197.299 125.789 197.321 125.741 197.351 125.698C197.538 125.343 197.959 125.194 198.576 125.493C200.24 126.315 201.915 127.138 203.579 127.979C217.187 134.764 230.738 141.892 244.233 149.363C257.719 156.83 271.13 164.631 284.467 172.765C284.747 172.933 285.028 173.111 285.308 173.279C286.58 174.055 287.843 174.831 289.115 175.606Z" fill="white"/>
<path d="M340.599 175.606H338.13C337.569 174.831 337.017 174.055 336.456 173.279C323.27 155.017 310.086 136.755 296.905 118.493C275.32 88.5946 253.742 58.6966 232.169 28.7986C232.042 28.6378 231.946 28.4537 231.889 28.2565C231.702 27.593 232.188 27.2004 232.815 27.2659C233.079 27.3021 233.332 27.3942 233.558 27.536C233.784 27.6778 233.977 27.8661 234.124 28.0883C246.226 44.8551 258.324 61.6157 270.42 78.37C291.893 108.118 313.362 137.864 334.829 167.606C336.194 169.494 337.56 171.391 338.925 173.279C339.486 174.055 340.047 174.831 340.599 175.606Z" fill="white"/>
<path d="M395.525 160.97C395.422 165.129 395.169 169.223 394.832 173.279C394.767 174.055 394.702 174.831 394.636 175.606H392.045C392.12 174.831 392.195 174.055 392.261 173.279C392.775 167.419 393.13 161.494 393.149 155.409C393.124 138.541 391.385 121.72 387.959 105.203C384.316 87.418 379.131 69.9841 372.462 53.0984C365.462 35.289 357.046 18.0684 347.295 1.60166C347.112 1.33341 347.029 1.00905 347.062 0.685754C347.164 -0.0525833 348.146 -0.276887 348.885 0.424066C349.031 0.561588 349.157 0.718889 349.259 0.891368C350.465 2.93815 351.65 4.99116 352.813 7.05041C362.208 23.6108 370.267 40.8935 376.914 58.734C383.244 75.6771 388.085 93.1393 391.381 110.922C394.468 127.42 395.857 144.19 395.525 160.97Z" fill="white"/>
<path d="M575.836 173.279H8.15489C5.99264 173.281 3.91952 174.14 2.3906 175.668C0.861683 177.196 0.00189932 179.268 0 181.429V565.85C0.00189685 568.011 0.861683 570.083 2.3906 571.611C3.91952 573.139 5.99264 573.998 8.15489 574H575.836C577.015 574 578.18 573.744 579.25 573.251C580.321 572.757 581.271 572.037 582.036 571.14C582.101 571.07 582.161 570.995 582.214 570.916C582.701 570.321 583.095 569.656 583.383 568.944C583.793 567.964 584.003 566.912 584 565.85V181.429C583.998 179.267 583.136 177.194 581.606 175.665C580.075 174.137 577.999 173.279 575.836 173.279ZM581.672 565.85C581.672 566.987 581.337 568.099 580.708 569.047C580.149 569.88 579.39 570.562 578.501 571.028C577.677 571.453 576.763 571.675 575.836 571.673H8.15489C6.6102 571.671 5.1293 571.057 4.03703 569.965C2.94477 568.874 2.33032 567.394 2.32844 565.85V181.429C2.3303 179.885 2.94477 178.405 4.03703 177.314C5.1293 176.222 6.61019 175.608 8.15489 175.606H575.836C577.382 175.606 578.865 176.219 579.959 177.311C581.053 178.403 581.669 179.884 581.672 181.429V565.85Z" fill="#3F3D56"/>
<path d="M582.831 205.943H1.16211V208.273H582.831V205.943Z" fill="#3F3D56"/>
<path d="M20.9786 197.742C24.8413 197.742 27.9726 194.613 27.9726 190.753C27.9726 186.892 24.8413 183.763 20.9786 183.763C17.1159 183.763 13.9846 186.892 13.9846 190.753C13.9846 194.613 17.1159 197.742 20.9786 197.742Z" fill="#3F3D56"/>
<path d="M41.0863 197.742C44.949 197.742 48.0803 194.613 48.0803 190.753C48.0803 186.892 44.949 183.763 41.0863 183.763C37.2236 183.763 34.0923 186.892 34.0923 190.753C34.0923 194.613 37.2236 197.742 41.0863 197.742Z" fill="#3F3D56"/>
<path d="M61.194 197.742C65.0567 197.742 68.188 194.613 68.188 190.753C68.188 186.892 65.0567 183.763 61.194 183.763C57.3313 183.763 54.2 186.892 54.2 190.753C54.2 194.613 57.3313 197.742 61.194 197.742Z" fill="#3F3D56"/>
<path d="M259.035 404.005C252.041 399.455 248.561 388.879 250.275 379.208C251.989 369.537 258.444 361.207 266.181 357.615C269.945 355.919 274.072 355.185 278.19 355.478C282.308 355.77 286.289 357.08 289.775 359.291C296.87 363.627 306.906 366.002 310.275 374.677C312.865 381.343 309.58 394.88 306.095 401.356C303.083 406.952 297.359 409.512 291.981 410.625C286.032 411.837 279.891 411.759 273.975 410.394C268.058 409.03 262.504 406.412 257.688 402.717L259.035 404.005Z" fill="#2F2E41"/>
<path d="M255.387 455.371L249.795 465.007L249.056 466.278L247.98 468.147H231.492L232.605 466.278L235.486 461.427L242.201 450.1L249.804 453.137L255.387 455.371Z" fill="#FFB8B8"/>
<path d="M230.258 468.147L227.246 466.277L226.872 466.044L245.773 431.622C246.586 430.132 247.686 428.819 249.011 427.757C250.335 426.695 251.857 425.906 253.489 425.435C255.549 424.822 257.73 424.742 259.83 425.202C261.055 425.46 262.234 425.901 263.327 426.51C263.777 426.757 264.212 427.031 264.627 427.333C266.226 428.452 267.539 429.931 268.462 431.65C269.56 433.663 270.103 435.931 270.034 438.222C269.965 440.514 269.286 442.745 268.069 444.688L260.784 456.324L254.555 466.277L253.386 468.147H230.258Z" fill="#2F2E41"/>
<path d="M278.818 416.221C291.504 416.221 301.788 405.944 301.788 393.267C301.788 380.589 291.504 370.312 278.818 370.312C266.132 370.312 255.848 380.589 255.848 393.267C255.848 405.944 266.132 416.221 278.818 416.221Z" fill="#FFB8B8"/>
<path d="M301.877 468.147H250.244L250.477 467.483C250.346 467.081 250.225 466.679 250.113 466.277C249.991 465.857 249.888 465.427 249.795 465.006C248.956 461.094 248.959 457.048 249.804 453.137C252.657 439.137 264.038 427.762 264.038 427.762C264.235 427.613 264.431 427.473 264.627 427.333C266.32 426.094 268.157 425.064 270.098 424.267C278.553 420.762 287.419 422.173 293.376 423.987C295.45 424.614 297.479 425.385 299.446 426.295C300.137 426.622 300.512 426.828 300.512 426.828L301.101 444.782L301.812 466.277L301.877 468.147Z" fill="#31D498"/>
<path d="M325.763 466.277L321.816 446.221L317.832 425.996C317.666 425.161 317.251 424.395 316.642 423.8C316.033 423.204 315.258 422.807 314.418 422.66L306.076 421.22L298.314 419.884C297.565 419.749 296.794 419.821 296.083 420.093C295.373 420.365 294.75 420.826 294.283 421.426C293.7 422.152 293.38 423.055 293.376 423.987C293.376 424.562 293.494 425.131 293.722 425.66C297.771 435.099 297.846 450.043 296.818 466.278C296.771 466.894 296.733 467.521 296.686 468.147H326.137L325.763 466.277Z" fill="#2F2E41"/>
<path d="M270.098 424.267C269.927 423.587 269.588 422.96 269.114 422.443C268.64 421.926 268.044 421.535 267.381 421.305C266.718 421.075 266.008 421.014 265.315 421.126C264.622 421.239 263.968 421.521 263.412 421.949L259.83 425.202L245.165 438.548C244.708 438.958 244.35 439.466 244.118 440.034C242.462 443.987 239.236 451.791 235.486 461.427C234.878 462.997 234.251 464.614 233.606 466.277C233.381 466.894 233.138 467.52 232.895 468.147H257.062C257.258 467.52 257.454 466.894 257.651 466.277C258.726 462.885 259.774 459.558 260.784 456.324C263.739 446.931 266.404 438.398 268.462 431.65C269.032 429.781 269.553 428.055 270.024 426.473C270.243 425.757 270.269 424.996 270.098 424.267Z" fill="#2F2E41"/>
<path d="M331.187 468.147H332.749L332.534 467.624L331.963 466.278L323.163 445.408L321.816 446.221L311.005 452.754L316.551 466.278L317.318 468.147H326.137H331.187Z" fill="#FFB8B8"/>
<path d="M322.265 428.856C321.074 425.741 318.725 423.207 315.707 421.784C312.69 420.361 309.239 420.159 306.076 421.22C305.672 421.354 305.275 421.51 304.888 421.688C302.673 422.675 300.785 424.274 299.446 426.295C298.899 427.102 298.45 427.971 298.108 428.884C297.501 430.468 297.214 432.157 297.264 433.852C297.314 435.548 297.699 437.217 298.398 438.763L301.101 444.782L310.771 466.278L311.613 468.147H331.187L332.534 467.623L336.032 466.278L336.518 466.091L322.265 428.856Z" fill="#2F2E41"/>
<path d="M296.859 366.903C297.659 367.143 298.517 367.112 299.298 366.816C300.08 366.519 300.742 365.974 301.182 365.263C301.598 364.539 301.843 363.73 301.898 362.897C301.953 362.063 301.816 361.229 301.498 360.456C300.846 358.915 299.819 357.561 298.509 356.517C297.023 355.173 295.213 354.236 293.256 353.799C292.278 353.589 291.267 353.591 290.29 353.806C289.314 354.021 288.395 354.442 287.595 355.043C286.81 355.663 286.229 356.504 285.924 357.457C285.62 358.409 285.607 359.431 285.888 360.391C286.482 362.115 288.093 363.27 289.702 364.13C292.894 365.833 296.414 366.833 300.025 367.063L296.859 366.903Z" fill="#2F2E41"/>
<path d="M301.327 392.581C297.635 393.09 298.109 391.211 296.63 387.792C295.151 384.372 293.171 380.313 289.459 379.966C286.417 379.682 283.911 382.113 281.447 383.917C277.055 387.133 271.136 388.708 266.045 386.778C260.953 384.849 257.415 378.785 259.347 373.697C259.948 372.293 260.832 371.026 261.943 369.976C263.054 368.927 264.369 368.116 265.806 367.595C268.69 366.571 271.752 366.146 274.806 366.346C281.597 366.563 288.258 368.267 294.318 371.337C298.5 373.461 302.572 376.5 304.159 380.912C305.745 385.324 306.79 391.524 302.253 392.717L301.327 392.581Z" fill="#2F2E41"/>
<path d="M294.971 354.767C293.146 351.592 294.653 347.236 297.639 345.114C300.626 342.992 304.632 342.784 308.196 343.635C311.721 344.522 314.95 346.32 317.56 348.848C320.17 351.376 322.069 354.546 323.067 358.039C324.579 363.591 323.68 369.555 324.961 375.166C325.643 378.157 326.931 380.976 328.746 383.451C330.56 385.925 332.862 388.002 335.51 389.554C338.158 391.106 341.095 392.1 344.142 392.475C347.189 392.849 350.28 392.596 353.225 391.732C357.062 390.606 360.96 387.869 361.337 383.891C361.735 388.459 360.692 393.037 358.357 396.983C356.021 400.93 352.509 404.048 348.312 405.9C343.369 407.961 337.856 408.095 332.502 407.958C329.013 407.868 325.444 407.658 322.226 406.31C319.999 405.295 317.997 403.846 316.337 402.048C314.678 400.25 313.394 398.139 312.562 395.838C310.923 391.215 310.48 386.253 311.275 381.413C311.802 377.648 312.85 373.958 313.143 370.167C313.436 366.377 312.88 362.33 310.542 359.332C308.204 356.333 303.737 354.801 300.413 356.649C299.077 357.392 297.999 358.605 296.548 359.084C295.096 359.564 293.039 358.721 293.171 357.199L294.971 354.767Z" fill="#2F2E41"/>
<path d="M451.719 468.147L451.896 466.277L457.171 411.435C458.9 410.082 460.758 408.902 462.717 407.911C473.575 402.444 484.05 405.061 489.717 407.323C491.219 407.91 492.67 408.62 494.056 409.444L497.143 466.277L497.245 468.147H451.719Z" fill="#31D498"/>
<path d="M476.421 396.839C489.107 396.839 499.391 386.562 499.391 373.884C499.391 361.206 489.107 350.929 476.421 350.929C463.734 350.929 453.45 361.206 453.45 373.884C453.45 386.562 463.734 396.839 476.421 396.839Z" fill="#FFB8B8"/>
<path d="M495.058 387.881C496.765 386.082 497.898 383.817 498.314 381.373C498.729 378.929 498.408 376.417 497.391 374.156C496.374 371.896 494.707 369.988 492.601 368.677C490.496 367.365 488.049 366.709 485.57 366.792C482.393 366.898 479.4 368.197 476.369 369.151C471.775 370.712 466.873 371.153 462.074 370.437C457.246 369.688 452.889 367.117 449.901 363.254C447.059 359.351 446.173 353.936 448.18 349.546C450.498 344.477 455.912 341.684 461.006 339.415C463.06 338.387 465.253 337.667 467.517 337.277C468.651 337.089 469.812 337.137 470.926 337.417C472.041 337.698 473.086 338.206 473.995 338.909C475.426 340.139 476.265 341.988 477.822 343.054C479.576 344.254 481.853 344.223 483.968 344.434C488.731 344.911 493.235 346.825 496.883 349.923C500.531 353.02 503.148 357.154 504.388 361.774C505.627 366.395 505.43 371.283 503.821 375.788C502.213 380.294 499.27 384.203 495.384 386.996L495.058 387.881Z" fill="#2F2E41"/>
<path d="M466.14 417.407L462.717 407.912L462.503 407.32C462.402 407.039 462.238 406.785 462.024 406.577C461.81 406.369 461.552 406.212 461.268 406.119C460.985 406.026 460.683 405.998 460.388 406.038C460.092 406.078 459.809 406.185 459.561 406.351L455.675 408.94C455.675 408.94 430.751 408.94 428.749 423.884C428.722 424.118 428.684 424.379 428.656 424.66C428.655 424.672 428.652 424.685 428.647 424.697C428.394 425.678 423.69 443.847 419.65 466.278C419.538 466.894 419.426 467.521 419.313 468.147H473.472V468.147C475.234 445.614 474.248 424.664 466.14 417.407Z" fill="#2F2E41"/>
<path d="M530.745 466.277C527.79 443.268 523.563 424.66 523.563 424.66C523.525 424.379 523.488 424.117 523.459 423.884C521.467 408.94 496.544 408.94 496.544 408.94L492.66 406.352C492.411 406.186 492.128 406.08 491.832 406.039C491.536 405.999 491.235 406.027 490.952 406.121C490.668 406.214 490.409 406.371 490.195 406.579C489.981 406.788 489.818 407.042 489.716 407.323L486.079 417.407C477.97 424.664 476.984 445.614 478.746 468.146L478.747 468.147H530.979C530.904 467.521 530.82 466.894 530.745 466.277Z" fill="#2F2E41"/>
<path d="M92.0502 413.884L86.495 466.277L86.2986 468.147H71.2698C71.4474 467.539 71.625 466.913 71.8123 466.277C76.077 451.66 81.8846 430.323 81.2577 424.669C80.2759 415.846 87.1499 412.902 87.1499 412.902L87.58 412.986L92.0502 413.884Z" fill="#31D498"/>
<path d="M116.288 397.712C128.974 397.712 139.258 387.434 139.258 374.757C139.258 362.079 128.974 351.802 116.288 351.802C103.602 351.802 93.3181 362.079 93.3181 374.757C93.3181 387.434 103.602 397.712 116.288 397.712Z" fill="#A0616A"/>
<path d="M146.022 457.025C144.864 459.159 143.915 461.4 143.188 463.717C142.917 464.539 142.655 465.399 142.412 466.277C142.234 466.885 142.076 467.511 141.917 468.147H81.3325C81.417 467.53 81.4914 466.904 81.5759 466.277C84.6716 441.838 87.1777 417.033 87.58 412.986C87.6174 412.603 87.6361 412.407 87.6361 412.407C123.941 393.285 150.436 418.295 150.436 418.295C150.436 418.295 150.474 418.472 150.53 418.818C151.11 422.314 154.065 442.725 146.022 457.025Z" fill="#31D498"/>
<path d="M143.188 463.717L139.148 455.062L140.13 420.744L150.53 418.818L150.895 418.753C156.27 421.876 160.43 426.724 162.697 432.51C164.717 437.557 168.561 452.735 171.806 466.277C171.956 466.904 172.105 467.53 172.255 468.147H145.255L144.385 466.277L143.188 463.717Z" fill="#31D498"/>
<path d="M180.139 313.937H47.3189C44.47 313.94 41.7388 315.073 39.7243 317.086C37.7098 319.099 36.5765 321.829 36.573 324.676V457.408C36.5765 460.255 37.7098 462.985 39.7243 464.998C41.7388 467.011 44.47 468.143 47.3189 468.147H180.139C182.989 468.145 185.721 467.013 187.736 464.999C189.75 462.986 190.883 460.256 190.885 457.408V324.676C190.883 321.828 189.75 319.098 187.736 317.084C185.721 315.071 182.989 313.939 180.139 313.937ZM189.014 457.408C189.012 459.76 188.077 462.015 186.413 463.677C184.749 465.34 182.493 466.275 180.139 466.277H47.3189C44.9661 466.274 42.7107 465.338 41.047 463.676C39.3833 462.013 38.4471 459.759 38.4434 457.408V324.676C38.4471 322.324 39.3833 320.07 41.047 318.408C42.7107 316.745 44.9661 315.81 47.3189 315.806H180.139C182.493 315.808 184.749 316.743 186.413 318.406C188.077 320.069 189.012 322.324 189.014 324.676V457.408ZM86.4951 466.277L86.2987 468.147H141.917C142.076 467.511 142.234 466.885 142.412 466.277H86.4951Z" fill="#3F3D56"/>
<path d="M358.402 313.937H225.582C222.733 313.94 220.001 315.073 217.987 317.086C215.972 319.099 214.839 321.829 214.836 324.676V457.408C214.839 460.255 215.972 462.985 217.987 464.998C220.001 467.011 222.733 468.143 225.582 468.147H358.402C361.251 468.145 363.983 467.013 365.998 464.999C368.013 462.986 369.146 460.256 369.147 457.408V324.676C369.146 321.828 368.013 319.098 365.998 317.084C363.983 315.071 361.251 313.939 358.402 313.937ZM367.277 457.408C367.275 459.76 366.339 462.015 364.675 463.677C363.012 465.34 360.755 466.275 358.402 466.277H225.582C223.229 466.274 220.973 465.338 219.31 463.676C217.646 462.013 216.71 459.759 216.706 457.408V324.676C216.71 322.324 217.646 320.07 219.31 318.408C220.973 316.745 223.229 315.81 225.582 315.806H358.402C360.755 315.808 363.012 316.743 364.675 318.406C366.339 320.069 367.275 322.324 367.277 324.676V457.408ZM250.112 466.277C250.225 466.679 250.346 467.081 250.477 467.483L250.244 468.147H296.686C296.733 467.52 296.771 466.894 296.817 466.277H250.112Z" fill="#3F3D56"/>
<path d="M536.674 313.937H403.854C401.005 313.939 398.272 315.071 396.258 317.084C394.243 319.098 393.11 321.828 393.108 324.676V457.408C393.11 460.256 394.243 462.986 396.258 464.999C398.272 467.013 401.005 468.145 403.854 468.147H536.674C539.523 468.143 542.255 467.011 544.269 464.998C546.283 462.984 547.417 460.255 547.42 457.408V324.676C547.417 321.829 546.283 319.099 544.269 317.086C542.255 315.073 539.523 313.94 536.674 313.937ZM545.55 457.408C545.546 459.759 544.61 462.013 542.946 463.676C541.283 465.338 539.027 466.274 536.674 466.277H403.854C401.501 466.276 399.244 465.34 397.58 463.678C395.916 462.015 394.981 459.76 394.979 457.408V324.676C394.981 322.324 395.916 320.069 397.58 318.406C399.244 316.743 401.501 315.808 403.854 315.806H536.674C539.027 315.81 541.283 316.745 542.946 318.408C544.61 320.07 545.546 322.324 545.55 324.676V457.408ZM473.612 466.277C473.566 466.894 473.519 467.52 473.472 468.147H513.771C513.846 467.53 513.93 466.904 514.004 466.277H473.612Z" fill="#3F3D56"/>
<path d="M446.308 522.354H137.684C135.7 522.354 133.797 521.566 132.394 520.164C130.991 518.762 130.203 516.86 130.203 514.877C130.203 512.894 130.991 510.992 132.394 509.59C133.797 508.188 135.7 507.4 137.684 507.4H446.308C448.292 507.4 450.195 508.188 451.599 509.59C453.002 510.992 453.79 512.894 453.79 514.877C453.79 516.86 453.002 518.762 451.599 520.164C450.195 521.566 448.292 522.354 446.308 522.354Z" fill="#CCCCCC"/>
<path d="M359.8 274.684H224.193C222.208 274.684 220.305 273.896 218.902 272.494C217.499 271.092 216.711 269.19 216.711 267.207C216.711 265.224 217.499 263.322 218.902 261.92C220.305 260.518 222.208 259.73 224.193 259.73H359.8C361.784 259.73 363.687 260.518 365.091 261.92C366.494 263.322 367.282 265.224 367.282 267.207C367.282 269.19 366.494 271.092 365.091 272.494C363.687 273.896 361.784 274.684 359.8 274.684Z" fill="#31D498"/>
<path d="M127.275 394.756C128.053 395.523 129.081 395.983 130.172 396.053C131.262 396.123 132.341 395.797 133.21 395.136C138.624 391.126 143.376 386.134 146.189 380.045C149.412 373.068 149.771 364.507 145.885 357.876C142.601 352.271 136.8 348.653 131.019 345.683C128.775 344.417 126.357 343.486 123.843 342.919C121.301 342.359 118.642 342.788 116.406 344.118C115.312 344.803 114.45 345.802 113.933 346.985C113.416 348.167 113.267 349.477 113.506 350.745C110.729 347.579 107.173 345.193 103.189 343.824C100.68 342.843 97.9334 342.644 95.3094 343.253C91.641 344.293 88.9628 347.55 87.4979 351.068C86.3133 353.745 85.9042 356.699 86.3173 359.597C86.5346 361.038 87.0524 362.418 87.837 363.647C88.6217 364.876 89.6558 365.927 90.8724 366.732C93.9054 368.607 97.7749 368.472 101.258 367.706C104.741 366.94 108.113 365.607 111.664 365.27C115.214 364.933 119.168 365.818 121.329 368.654C122.851 370.65 123.242 373.26 123.583 375.746L125.36 388.68C125.505 390.552 125.984 392.382 126.772 394.085C126.909 394.33 127.078 394.556 127.275 394.756Z" fill="#2F2E41"/>
</g>
<defs>
<clipPath id="clip0">
<rect width="584" height="574" fill="white"/>
</clipPath>
</defs>
</svg>
