<svg width="584" height="401" viewBox="0 0 584 401" fill="none" xmlns="http://www.w3.org/2000/svg">
<g clip-path="url(#clip0)">
<path d="M575.836 0.279053H8.15489C5.99264 0.28102 3.91952 1.14032 2.3906 2.66827C0.861683 4.19623 0.00189932 6.26798 0 8.4288V392.85C0.00189685 395.011 0.861683 397.083 2.3906 398.611C3.91952 400.139 5.99264 400.998 8.15489 401H575.836C577.015 401 578.18 400.744 579.25 400.251C580.321 399.757 581.271 399.037 582.036 398.14C582.101 398.07 582.161 397.995 582.214 397.916C582.701 397.321 583.095 396.656 583.383 395.944C583.793 394.964 584.003 393.912 584 392.85V8.42886C583.998 6.26651 583.136 4.19353 581.606 2.66539C580.075 1.13725 577.999 0.27893 575.836 0.279053ZM581.672 392.85C581.672 393.987 581.337 395.099 580.708 396.047C580.149 396.88 579.39 397.561 578.501 398.028C577.677 398.453 576.763 398.674 575.836 398.673H8.15489C6.6102 398.671 5.1293 398.057 4.03703 396.965C2.94477 395.874 2.33032 394.394 2.32844 392.85V8.42886C2.3303 6.88518 2.94477 5.40525 4.03703 4.3137C5.1293 3.22215 6.61019 2.60808 8.15489 2.60621H575.836C577.382 2.60601 578.865 3.21912 579.959 4.31085C581.053 5.40257 581.669 6.88367 581.672 8.42886V392.85Z" fill="#3F3D56"/>
<path d="M575.836 0.279053H8.15489C5.99264 0.28102 3.91952 1.14032 2.3906 2.66827C0.861683 4.19623 0.00189932 6.26798 0 8.4288V392.85C0.00189685 395.011 0.861683 397.083 2.3906 398.611C3.91952 400.139 5.99264 400.998 8.15489 401H575.836C577.015 401 578.18 400.744 579.25 400.251C580.321 399.757 581.271 399.037 582.036 398.14C582.101 398.07 582.161 397.995 582.214 397.916C582.701 397.321 583.095 396.656 583.383 395.944C583.793 394.964 584.003 393.912 584 392.85V8.42886C583.998 6.26651 583.136 4.19353 581.606 2.66539C580.075 1.13725 577.999 0.27893 575.836 0.279053ZM581.672 392.85C581.672 393.987 581.337 395.099 580.708 396.047C580.149 396.88 579.39 397.561 578.501 398.028C577.677 398.453 576.763 398.674 575.836 398.673H8.15489C6.6102 398.671 5.1293 398.057 4.03703 396.965C2.94477 395.874 2.33032 394.394 2.32844 392.85V8.42886C2.3303 6.88518 2.94477 5.40525 4.03703 4.3137C5.1293 3.22215 6.61019 2.60808 8.15489 2.60621H575.836C577.382 2.60601 578.865 3.21912 579.959 4.31085C581.053 5.40257 581.669 6.88367 581.672 8.42886V392.85Z" fill="#3F3D56"/>
<path d="M582.831 32.9429H1.16211V35.2727H582.831V32.9429Z" fill="#3F3D56"/>
<path d="M20.9786 24.7419C24.8413 24.7419 27.9726 21.6127 27.9726 17.7526C27.9726 13.8924 24.8413 10.7632 20.9786 10.7632C17.1159 10.7632 13.9846 13.8924 13.9846 17.7526C13.9846 21.6127 17.1159 24.7419 20.9786 24.7419Z" fill="#3F3D56"/>
<path d="M41.0863 24.7419C44.949 24.7419 48.0803 21.6127 48.0803 17.7526C48.0803 13.8924 44.949 10.7632 41.0863 10.7632C37.2236 10.7632 34.0923 13.8924 34.0923 17.7526C34.0923 21.6127 37.2236 24.7419 41.0863 24.7419Z" fill="#3F3D56"/>
<path d="M61.194 24.7419C65.0567 24.7419 68.188 21.6127 68.188 17.7526C68.188 13.8924 65.0567 10.7632 61.194 10.7632C57.3313 10.7632 54.2 13.8924 54.2 17.7526C54.2 21.6127 57.3313 24.7419 61.194 24.7419Z" fill="#3F3D56"/>
<path d="M259.035 231.005C252.041 226.454 248.561 215.879 250.275 206.208C251.989 196.537 258.444 188.207 266.181 184.615C269.945 182.919 274.072 182.185 278.19 182.477C282.308 182.77 286.289 184.08 289.775 186.291C296.87 190.627 306.906 193.002 310.275 201.677C312.865 208.343 309.58 221.88 306.095 228.355C303.083 233.952 297.359 236.512 291.981 237.624C286.032 238.837 279.891 238.758 273.975 237.394C268.058 236.03 262.504 233.412 257.688 229.717L259.035 231.005Z" fill="#2F2E41"/>
<path d="M255.387 282.371L249.795 292.007L249.056 293.278L247.98 295.147H231.492L232.605 293.278L235.486 288.427L242.201 277.1L249.804 280.137L255.387 282.371Z" fill="#FFB8B8"/>
<path d="M230.258 295.147L227.246 293.277L226.872 293.044L245.773 258.622C246.586 257.132 247.686 255.818 249.011 254.756C250.335 253.694 251.857 252.905 253.489 252.435C255.549 251.822 257.73 251.742 259.83 252.202C261.055 252.46 262.234 252.901 263.327 253.51C263.777 253.757 264.212 254.031 264.627 254.332C266.226 255.452 267.539 256.931 268.462 258.65C269.56 260.663 270.103 262.931 270.034 265.222C269.965 267.514 269.286 269.745 268.069 271.688L260.784 283.324L254.555 293.277L253.386 295.147H230.258Z" fill="#2F2E41"/>
<path d="M278.818 243.221C291.504 243.221 301.788 232.944 301.788 220.267C301.788 207.589 291.504 197.312 278.818 197.312C266.132 197.312 255.848 207.589 255.848 220.267C255.848 232.944 266.132 243.221 278.818 243.221Z" fill="#FFB8B8"/>
<path d="M301.877 295.147H250.244L250.477 294.483C250.346 294.081 250.225 293.679 250.113 293.277C249.991 292.857 249.888 292.427 249.795 292.006C248.956 288.094 248.959 284.048 249.804 280.137C252.657 266.136 264.038 254.762 264.038 254.762C264.235 254.613 264.431 254.473 264.627 254.332C266.32 253.094 268.157 252.064 270.098 251.267C278.553 247.762 287.419 249.173 293.376 250.987C295.45 251.614 297.479 252.385 299.446 253.295C300.137 253.622 300.512 253.828 300.512 253.828L301.101 271.781L301.811 293.277L301.877 295.147Z" fill="#31D498"/>
<path d="M325.763 293.277L321.816 273.221L317.832 252.996C317.666 252.161 317.251 251.395 316.642 250.8C316.033 250.204 315.258 249.807 314.418 249.659L306.076 248.22L298.314 246.884C297.565 246.749 296.794 246.821 296.083 247.093C295.373 247.365 294.75 247.826 294.283 248.426C293.7 249.152 293.38 250.055 293.376 250.987C293.376 251.562 293.494 252.131 293.722 252.66C297.771 262.099 297.846 277.043 296.818 293.277C296.771 293.894 296.733 294.52 296.686 295.147H326.137L325.763 293.277Z" fill="#2F2E41"/>
<path d="M270.098 251.267C269.927 250.587 269.588 249.96 269.114 249.443C268.64 248.926 268.044 248.535 267.381 248.305C266.718 248.075 266.008 248.014 265.315 248.126C264.622 248.238 263.968 248.521 263.412 248.949L259.83 252.201L245.165 265.548C244.708 265.958 244.35 266.466 244.118 267.034C242.462 270.987 239.236 278.791 235.486 288.427C234.878 289.997 234.251 291.614 233.606 293.277C233.381 293.894 233.138 294.52 232.895 295.147H257.062C257.258 294.52 257.454 293.894 257.651 293.277C258.726 289.885 259.774 286.558 260.784 283.324C263.739 273.931 266.404 265.398 268.462 258.65C269.032 256.781 269.553 255.055 270.024 253.473C270.243 252.757 270.269 251.996 270.098 251.267Z" fill="#2F2E41"/>
<path d="M331.187 295.147H332.749L332.534 294.624L331.963 293.278L323.163 272.408L321.816 273.221L311.005 279.754L316.551 293.278L317.318 295.147H326.137H331.187Z" fill="#FFB8B8"/>
<path d="M322.265 255.856C321.074 252.741 318.725 250.207 315.707 248.784C312.69 247.361 309.239 247.159 306.076 248.22C305.672 248.354 305.275 248.51 304.888 248.688C302.673 249.675 300.785 251.274 299.446 253.295C298.899 254.102 298.45 254.971 298.108 255.884C297.501 257.468 297.214 259.157 297.264 260.852C297.314 262.548 297.699 264.217 298.398 265.763L301.101 271.782L310.771 293.278L311.613 295.147H331.187L332.534 294.623L336.032 293.278L336.518 293.091L322.265 255.856Z" fill="#2F2E41"/>
<path d="M296.859 193.903C297.659 194.142 298.517 194.112 299.298 193.816C300.08 193.519 300.742 192.974 301.182 192.263C301.598 191.539 301.843 190.73 301.898 189.896C301.953 189.063 301.816 188.229 301.498 187.456C300.846 185.915 299.819 184.561 298.509 183.517C297.023 182.173 295.213 181.236 293.256 180.799C292.278 180.589 291.267 180.591 290.29 180.806C289.314 181.021 288.395 181.442 287.595 182.043C286.81 182.663 286.229 183.504 285.924 184.456C285.62 185.409 285.607 186.431 285.888 187.391C286.482 189.115 288.093 190.27 289.702 191.13C292.894 192.833 296.414 193.833 300.025 194.062L296.859 193.903Z" fill="#2F2E41"/>
<path d="M301.327 219.581C297.635 220.09 298.109 218.211 296.63 214.792C295.151 211.372 293.171 207.313 289.459 206.966C286.417 206.682 283.911 209.113 281.447 210.917C277.055 214.133 271.136 215.708 266.045 213.778C260.953 211.849 257.415 205.785 259.347 200.697C259.948 199.293 260.832 198.026 261.943 196.976C263.054 195.927 264.369 195.116 265.806 194.595C268.69 193.571 271.752 193.146 274.806 193.346C281.597 193.563 288.258 195.267 294.318 198.337C298.5 200.461 302.572 203.499 304.159 207.912C305.745 212.324 306.79 218.524 302.253 219.717L301.327 219.581Z" fill="#2F2E41"/>
<path d="M294.971 181.767C293.146 178.592 294.653 174.235 297.639 172.114C300.626 169.992 304.632 169.784 308.196 170.635C311.721 171.522 314.95 173.32 317.56 175.848C320.17 178.376 322.069 181.546 323.067 185.039C324.579 190.591 323.68 196.555 324.961 202.166C325.643 205.157 326.931 207.976 328.746 210.451C330.56 212.925 332.862 215.002 335.51 216.554C338.158 218.106 341.095 219.1 344.142 219.475C347.189 219.849 350.28 219.596 353.225 218.732C357.062 217.606 360.96 214.869 361.337 210.891C361.735 215.459 360.692 220.037 358.357 223.983C356.021 227.93 352.509 231.048 348.312 232.9C343.369 234.961 337.856 235.095 332.502 234.958C329.013 234.868 325.444 234.658 322.226 233.309C319.999 232.295 317.997 230.846 316.337 229.048C314.678 227.249 313.394 225.138 312.562 222.838C310.923 218.215 310.48 213.253 311.275 208.413C311.802 204.648 312.85 200.958 313.143 197.167C313.436 193.377 312.88 189.33 310.542 186.332C308.204 183.333 303.737 181.801 300.413 183.649C299.077 184.392 297.999 185.605 296.548 186.084C295.096 186.564 293.039 185.721 293.171 184.199L294.971 181.767Z" fill="#2F2E41"/>
<path d="M451.719 295.147L451.896 293.277L457.171 238.435C458.9 237.082 460.758 235.902 462.717 234.911C473.575 229.444 484.05 232.061 489.717 234.323C491.219 234.91 492.67 235.62 494.056 236.444L497.143 293.277L497.245 295.147H451.719Z" fill="#31D498"/>
<path d="M476.421 223.839C489.107 223.839 499.391 213.562 499.391 200.884C499.391 188.206 489.107 177.929 476.421 177.929C463.734 177.929 453.45 188.206 453.45 200.884C453.45 213.562 463.734 223.839 476.421 223.839Z" fill="#FFB8B8"/>
<path d="M495.058 214.881C496.765 213.082 497.898 210.817 498.314 208.373C498.729 205.929 498.408 203.417 497.391 201.156C496.374 198.895 494.707 196.988 492.601 195.677C490.496 194.365 488.049 193.709 485.57 193.792C482.393 193.898 479.4 195.197 476.369 196.15C471.775 197.712 466.873 198.153 462.074 197.437C457.246 196.688 452.889 194.117 449.901 190.254C447.059 186.35 446.173 180.936 448.18 176.546C450.498 171.477 455.912 168.684 461.006 166.415C463.06 165.387 465.253 164.667 467.517 164.277C468.651 164.089 469.812 164.136 470.926 164.417C472.041 164.698 473.086 165.206 473.995 165.909C475.426 167.139 476.265 168.988 477.822 170.054C479.576 171.254 481.853 171.223 483.968 171.434C488.731 171.911 493.235 173.825 496.883 176.922C500.531 180.02 503.148 184.154 504.388 188.774C505.627 193.395 505.43 198.283 503.821 202.788C502.213 207.293 499.27 211.203 495.384 213.996L495.058 214.881Z" fill="#2F2E41"/>
<path d="M466.14 244.407L462.717 234.912L462.503 234.32C462.402 234.039 462.238 233.785 462.024 233.577C461.81 233.369 461.552 233.213 461.268 233.119C460.985 233.026 460.683 232.998 460.388 233.038C460.092 233.078 459.809 233.185 459.561 233.351L455.675 235.94C455.675 235.94 430.751 235.94 428.749 250.884C428.722 251.118 428.684 251.379 428.656 251.66C428.655 251.673 428.652 251.685 428.647 251.697C428.394 252.678 423.69 270.847 419.65 293.278C419.538 293.895 419.426 294.521 419.313 295.147H473.472C475.234 272.614 474.248 251.664 466.14 244.407Z" fill="#2F2E41"/>
<path d="M530.745 293.278C527.79 270.268 523.563 251.66 523.563 251.66C523.525 251.379 523.488 251.118 523.459 250.884C521.467 235.94 496.544 235.94 496.544 235.94L492.66 233.352C492.411 233.186 492.128 233.08 491.832 233.04C491.536 232.999 491.235 233.027 490.952 233.121C490.668 233.214 490.409 233.371 490.195 233.579C489.981 233.788 489.818 234.042 489.716 234.323L486.079 244.407C477.97 251.664 476.984 272.614 478.746 295.146L478.747 295.147H530.979C530.904 294.521 530.82 293.894 530.745 293.278Z" fill="#2F2E41"/>
<path d="M92.0502 240.884L86.495 293.278L86.2986 295.147H71.2698C71.4474 294.539 71.625 293.913 71.8123 293.278C76.077 278.66 81.8846 257.323 81.2577 251.669C80.2759 242.846 87.1499 239.902 87.1499 239.902L87.58 239.986L92.0502 240.884Z" fill="#31D498"/>
<path d="M116.288 224.712C128.974 224.712 139.258 214.434 139.258 201.757C139.258 189.079 128.974 178.802 116.288 178.802C103.602 178.802 93.3181 189.079 93.3181 201.757C93.3181 214.434 103.602 224.712 116.288 224.712Z" fill="#A0616A"/>
<path d="M146.022 284.025C144.864 286.159 143.915 288.4 143.188 290.717C142.917 291.539 142.655 292.399 142.412 293.277C142.234 293.885 142.076 294.511 141.917 295.147H81.3325C81.417 294.53 81.4914 293.904 81.5759 293.277C84.6716 268.838 87.1777 244.033 87.58 239.986C87.6174 239.603 87.6361 239.407 87.6361 239.407C123.941 220.285 150.436 245.295 150.436 245.295C150.436 245.295 150.474 245.472 150.53 245.818C151.11 249.314 154.065 269.725 146.022 284.025Z" fill="#31D498"/>
<path d="M143.188 290.717L139.148 282.062L140.13 247.744L150.53 245.818L150.895 245.753C156.27 248.876 160.43 253.724 162.697 259.51C164.717 264.557 168.561 279.735 171.806 293.278C171.956 293.904 172.105 294.53 172.255 295.147H145.255L144.385 293.278L143.188 290.717Z" fill="#31D498"/>
<path d="M180.139 140.937H47.3189C44.47 140.94 41.7388 142.073 39.7243 144.086C37.7098 146.099 36.5765 148.829 36.573 151.676V284.408C36.5765 287.255 37.7098 289.985 39.7243 291.998C41.7388 294.011 44.47 295.143 47.3189 295.147H180.139C182.989 295.145 185.721 294.013 187.736 291.999C189.75 289.986 190.883 287.256 190.885 284.408V151.676C190.883 148.828 189.75 146.098 187.736 144.084C185.721 142.071 182.989 140.939 180.139 140.937ZM189.014 284.408C189.012 286.76 188.077 289.015 186.413 290.677C184.749 292.34 182.493 293.275 180.139 293.277H47.3189C44.9661 293.274 42.7107 292.338 41.047 290.676C39.3833 289.013 38.4471 286.759 38.4434 284.408V151.676C38.4471 149.324 39.3833 147.07 41.047 145.408C42.7107 143.745 44.9661 142.81 47.3189 142.806H180.139C182.493 142.808 184.749 143.743 186.413 145.406C188.077 147.069 189.012 149.324 189.014 151.676V284.408ZM86.4951 293.277L86.2987 295.147H141.917C142.076 294.511 142.234 293.885 142.412 293.277H86.4951Z" fill="#3F3D56"/>
<path d="M358.402 140.937H225.582C222.733 140.94 220.001 142.073 217.987 144.086C215.972 146.099 214.839 148.829 214.836 151.676V284.408C214.839 287.255 215.972 289.985 217.987 291.998C220.001 294.011 222.733 295.143 225.582 295.147H358.402C361.251 295.145 363.983 294.013 365.998 291.999C368.013 289.986 369.146 287.256 369.147 284.408V151.676C369.146 148.828 368.013 146.098 365.998 144.084C363.983 142.071 361.251 140.939 358.402 140.937ZM367.277 284.408C367.275 286.76 366.339 289.015 364.675 290.677C363.012 292.34 360.755 293.275 358.402 293.277H225.582C223.229 293.274 220.973 292.338 219.31 290.676C217.646 289.013 216.71 286.759 216.706 284.408V151.676C216.71 149.324 217.646 147.07 219.31 145.408C220.973 143.745 223.229 142.81 225.582 142.806H358.402C360.755 142.808 363.012 143.743 364.675 145.406C366.339 147.069 367.275 149.324 367.277 151.676V284.408ZM250.112 293.277C250.225 293.679 250.346 294.081 250.477 294.483L250.244 295.147H296.686C296.733 294.521 296.771 293.894 296.817 293.277H250.112Z" fill="#3F3D56"/>
<path d="M536.675 140.937H403.854C401.005 140.939 398.272 142.071 396.258 144.084C394.243 146.098 393.11 148.828 393.108 151.676V284.408C393.11 287.256 394.243 289.986 396.258 291.999C398.272 294.013 401.005 295.145 403.854 295.147H536.675C539.523 295.143 542.255 294.011 544.269 291.998C546.283 289.984 547.417 287.255 547.42 284.408V151.676C547.417 148.829 546.283 146.099 544.269 144.086C542.255 142.073 539.523 140.941 536.675 140.937ZM545.55 284.408C545.546 286.759 544.61 289.013 542.946 290.676C541.283 292.338 539.027 293.274 536.675 293.277H403.854C401.501 293.276 399.244 292.341 397.58 290.678C395.916 289.015 394.981 286.76 394.979 284.408V151.676C394.981 149.324 395.916 147.069 397.58 145.406C399.244 143.743 401.501 142.808 403.854 142.806H536.675C539.027 142.81 541.283 143.745 542.946 145.408C544.61 147.071 545.546 149.324 545.55 151.676V284.408ZM473.612 293.277C473.566 293.894 473.519 294.521 473.472 295.147H513.771C513.846 294.53 513.93 293.904 514.004 293.277H473.612Z" fill="#3F3D56"/>
<path d="M446.308 349.354H137.684C135.7 349.354 133.797 348.566 132.394 347.164C130.991 345.762 130.203 343.86 130.203 341.877C130.203 339.894 130.991 337.992 132.394 336.59C133.797 335.188 135.7 334.4 137.684 334.4H446.308C448.292 334.4 450.195 335.188 451.599 336.59C453.002 337.992 453.79 339.894 453.79 341.877C453.79 343.86 453.002 345.762 451.599 347.164C450.195 348.566 448.292 349.354 446.308 349.354Z" fill="#CCCCCC"/>
<path d="M359.8 101.684H224.193C222.208 101.684 220.305 100.896 218.902 99.4937C217.499 98.0915 216.711 96.1898 216.711 94.2068C216.711 92.2238 217.499 90.3221 218.902 88.9199C220.305 87.5177 222.208 86.73 224.193 86.73H359.8C361.784 86.73 363.687 87.5177 365.091 88.9199C366.494 90.3221 367.282 92.2238 367.282 94.2068C367.282 96.1898 366.494 98.0915 365.091 99.4937C363.687 100.896 361.784 101.684 359.8 101.684Z" fill="#31D498"/>
<path d="M127.275 221.756C128.053 222.523 129.081 222.983 130.172 223.053C131.262 223.123 132.341 222.797 133.21 222.136C138.624 218.126 143.376 213.134 146.189 207.045C149.412 200.068 149.771 191.507 145.885 184.876C142.601 179.271 136.8 175.653 131.019 172.683C128.775 171.417 126.357 170.486 123.843 169.919C121.301 169.359 118.642 169.788 116.406 171.118C115.312 171.803 114.45 172.802 113.933 173.985C113.416 175.167 113.267 176.477 113.506 177.745C110.729 174.579 107.173 172.193 103.189 170.824C100.68 169.843 97.9334 169.644 95.3094 170.253C91.641 171.293 88.9628 174.55 87.4979 178.068C86.3133 180.745 85.9042 183.699 86.3173 186.597C86.5346 188.038 87.0524 189.418 87.837 190.647C88.6217 191.876 89.6558 192.927 90.8724 193.732C93.9054 195.607 97.7749 195.472 101.258 194.706C104.741 193.94 108.113 192.607 111.664 192.27C115.214 191.933 119.168 192.818 121.329 195.654C122.851 197.65 123.242 200.26 123.583 202.746L125.36 215.68C125.505 217.552 125.984 219.382 126.772 221.085C126.909 221.33 127.078 221.556 127.275 221.756Z" fill="#2F2E41"/>
</g>
<defs>
<clipPath id="clip0">
<rect width="584" height="401" fill="white"/>
</clipPath>
</defs>
</svg>
