<svg width="599" height="376" viewBox="0 0 599 376" fill="none" xmlns="http://www.w3.org/2000/svg">
<g clip-path="url(#clip0)">
<path d="M571.201 376H64.9212C60.4189 376 56.1011 374.214 52.9175 371.034C49.7339 367.854 47.9454 363.542 47.9454 359.045C231.472 337.742 411.549 337.742 588.176 359.045C588.176 363.542 586.388 367.854 583.204 371.034C580.021 374.214 575.703 376 571.201 376Z" fill="#CCCCCC"/>
<path d="M588.176 360.042L47.9454 359.045L110.556 253.825L110.856 253.326V21.433C110.856 18.6183 111.41 15.8311 112.489 13.2307C113.567 10.6302 115.148 8.26734 117.141 6.27706C119.133 4.28678 121.499 2.70804 124.103 1.63102C126.707 0.55399 129.497 -0.000235125 132.315 7.48285e-08H500.811C503.629 -0.000235125 506.42 0.55399 509.023 1.63102C511.627 2.70804 513.993 4.28678 515.985 6.27706C517.978 8.26734 519.559 10.6302 520.637 13.2307C521.716 15.8311 522.271 18.6183 522.27 21.433V254.922L588.176 360.042Z" fill="#E6E6E6"/>
<path d="M131.826 14.9602C129.973 14.9623 128.196 15.6985 126.886 17.0073C125.575 18.3161 124.838 20.0907 124.836 21.9416V233.379C124.838 235.23 125.575 237.005 126.886 238.314C128.196 239.622 129.973 240.359 131.826 240.361H504.296C506.149 240.358 507.926 239.622 509.236 238.313C510.547 237.005 511.284 235.23 511.286 233.379V21.9416C511.284 20.0907 510.547 18.3162 509.236 17.0074C507.926 15.6986 506.149 14.9624 504.296 14.9602H131.826Z" fill="white"/>
<path d="M134.274 268.286C133.701 268.287 133.141 268.452 132.659 268.76C132.176 269.069 131.792 269.509 131.552 270.028L112.26 311.917C112.05 312.372 111.958 312.874 111.993 313.374C112.027 313.875 112.188 314.359 112.459 314.781C112.73 315.204 113.103 315.551 113.544 315.792C113.984 316.033 114.479 316.159 114.981 316.159H520.689C521.2 316.159 521.702 316.029 522.148 315.78C522.594 315.532 522.969 315.174 523.237 314.74C523.506 314.306 523.659 313.811 523.682 313.301C523.704 312.792 523.596 312.285 523.368 311.829L502.398 269.94C502.15 269.442 501.768 269.024 501.295 268.731C500.822 268.439 500.276 268.285 499.719 268.287L134.274 268.286Z" fill="#CCCCCC"/>
<path d="M316.563 11.4695C319.045 11.4695 321.057 9.46016 321.057 6.98147C321.057 4.50278 319.045 2.49341 316.563 2.49341C314.081 2.49341 312.069 4.50278 312.069 6.98147C312.069 9.46016 314.081 11.4695 316.563 11.4695Z" fill="white"/>
<path d="M276.685 324.138C276.027 324.139 275.387 324.356 274.864 324.756C274.341 325.156 273.965 325.717 273.793 326.352L268.954 344.304C268.834 344.747 268.818 345.212 268.907 345.663C268.996 346.114 269.188 346.538 269.468 346.902C269.748 347.267 270.108 347.562 270.52 347.765C270.932 347.969 271.386 348.074 271.846 348.074H363.879C364.356 348.074 364.827 347.96 365.251 347.742C365.676 347.523 366.042 347.206 366.319 346.818C366.595 346.429 366.775 345.98 366.843 345.508C366.911 345.036 366.865 344.554 366.708 344.103L360.487 326.151C360.283 325.563 359.901 325.054 359.393 324.693C358.886 324.332 358.279 324.138 357.656 324.138H276.685Z" fill="#CCCCCC"/>
<path d="M522.271 249.835V253.825H110.556L110.866 253.326V249.835H522.271Z" fill="#CCCCCC"/>
<path d="M471.452 258.974C471.292 258.974 471.136 259.027 471.009 259.125C470.881 259.222 470.79 259.359 470.748 259.513L469.569 263.885C469.54 263.993 469.536 264.106 469.558 264.216C469.58 264.326 469.627 264.429 469.695 264.518C469.763 264.606 469.85 264.678 469.951 264.728C470.051 264.777 470.162 264.803 470.274 264.803H492.685C492.801 264.803 492.916 264.775 493.019 264.722C493.123 264.669 493.212 264.592 493.279 264.497C493.347 264.402 493.39 264.293 493.407 264.178C493.423 264.063 493.412 263.946 493.374 263.836L491.859 259.464C491.809 259.321 491.716 259.197 491.593 259.109C491.469 259.021 491.321 258.974 491.17 258.974H471.452Z" fill="#CCCCCC"/>
<path d="M438.729 258.974C438.569 258.974 438.413 259.027 438.285 259.125C438.158 259.222 438.066 259.359 438.025 259.513L436.846 263.885C436.817 263.993 436.813 264.106 436.835 264.216C436.857 264.326 436.903 264.429 436.971 264.518C437.04 264.606 437.127 264.678 437.228 264.728C437.328 264.777 437.439 264.803 437.55 264.803H459.962C460.078 264.803 460.193 264.775 460.296 264.722C460.399 264.669 460.489 264.592 460.556 264.497C460.623 264.402 460.667 264.293 460.684 264.178C460.7 264.063 460.689 263.946 460.651 263.836L459.136 259.464C459.086 259.321 458.993 259.197 458.87 259.109C458.746 259.021 458.598 258.974 458.447 258.974H438.729Z" fill="#CCCCCC"/>
<path d="M343.923 286.752H345.679L342.166 52.2596H340.41L340.48 56.9378H301.112L301.182 52.2596H299.425L295.912 286.752H297.669L297.897 271.548H343.695L343.923 286.752ZM341.391 117.754H300.201L300.63 89.1001H340.962L341.391 117.754ZM341.417 119.508L341.846 148.162H299.745L300.174 119.508H341.417ZM341.873 149.916L342.302 178.57H299.29L299.719 149.916H341.873ZM342.328 180.324L342.758 208.978H298.834L299.263 180.324H342.328ZM342.784 210.732L343.213 239.386H298.379L298.808 210.732H342.784ZM340.506 58.6921L340.935 87.3457H300.656L301.086 58.6921H340.506ZM297.923 269.793L298.352 241.14H343.239L343.669 269.793H297.923Z" fill="#3F3D56"/>
<path d="M312.095 133.026C327.913 133.026 340.736 120.219 340.736 104.42C340.736 88.6218 327.913 75.8145 312.095 75.8145C296.276 75.8145 283.453 88.6218 283.453 104.42C283.453 120.219 296.276 133.026 312.095 133.026Z" fill="#2F2E41"/>
<path d="M328.942 124.189L320.38 125.738L323.157 141.059L331.719 139.511L328.942 124.189Z" fill="#2F2E41"/>
<path d="M311.818 127.286L303.256 128.834L306.033 144.155L314.595 142.607L311.818 127.286Z" fill="#2F2E41"/>
<path d="M310.578 147.379C313.634 144.795 315.324 141.771 314.354 140.627C313.383 139.482 310.119 140.65 307.063 143.235C304.007 145.819 302.317 148.843 303.287 149.987C304.258 151.132 307.522 149.964 310.578 147.379Z" fill="#2F2E41"/>
<path d="M327.345 144.348C330.401 141.763 332.092 138.74 331.121 137.595C330.151 136.45 326.886 137.618 323.83 140.203C320.775 142.788 319.084 145.811 320.055 146.956C321.025 148.1 324.289 146.933 327.345 144.348Z" fill="#2F2E41"/>
<path d="M310.089 107.2C315.496 107.2 319.878 102.823 319.878 97.4232C319.878 92.0237 315.496 87.6465 310.089 87.6465C304.683 87.6465 300.301 92.0237 300.301 97.4232C300.301 102.823 304.683 107.2 310.089 107.2Z" fill="white"/>
<path d="M306.066 97.1776C307.868 97.1776 309.329 95.7185 309.329 93.9187C309.329 92.1188 307.868 90.6598 306.066 90.6598C304.264 90.6598 302.803 92.1188 302.803 93.9187C302.803 95.7185 304.264 97.1776 306.066 97.1776Z" fill="#3F3D56"/>
<path d="M334.689 73.3001C335.119 62.7098 325.981 53.7397 314.277 53.2649C302.573 52.7901 292.736 60.9903 292.305 71.5807C291.875 82.171 300.01 84.5772 311.714 85.0521C323.418 85.5269 334.258 83.8905 334.689 73.3001Z" fill="#31D498"/>
<path d="M299.607 102.404C300.162 99.9873 294.362 96.5971 286.653 94.8322C278.944 93.0673 272.244 93.5961 271.69 96.0132C271.135 98.4304 276.935 101.821 284.644 103.585C292.353 105.35 299.052 104.822 299.607 102.404Z" fill="#2F2E41"/>
<path d="M355.829 111.743C356.383 109.325 350.584 105.935 342.874 104.17C335.165 102.405 328.466 102.934 327.911 105.351C327.357 107.769 333.156 111.159 340.866 112.924C348.575 114.689 355.274 114.16 355.829 111.743Z" fill="#2F2E41"/>
<path d="M319.961 115.694C320.115 116.536 320.102 117.401 319.921 118.238C319.741 119.075 319.397 119.869 318.909 120.573C318.422 121.277 317.8 121.879 317.079 122.343C316.359 122.808 315.554 123.126 314.71 123.279C313.867 123.432 313.001 123.418 312.163 123.237C311.325 123.056 310.531 122.712 309.826 122.225C309.121 121.737 308.519 121.115 308.055 120.395C307.591 119.675 307.273 118.871 307.12 118.028L307.118 118.016C306.476 114.474 309.218 113.22 312.764 112.579C316.311 111.938 319.319 112.152 319.961 115.694Z" fill="white"/>
<path d="M215.088 201.577C217.982 194.013 218.402 187.145 216.024 186.238C213.647 185.33 209.373 190.726 206.478 198.29C203.583 205.854 203.164 212.722 205.542 213.629C207.919 214.537 212.193 209.141 215.088 201.577Z" fill="#2F2E41"/>
<path d="M212.626 226.775C215.224 210.789 204.354 195.726 188.348 193.132C172.342 190.538 157.261 201.394 154.664 217.38C152.066 233.367 162.936 248.429 178.942 251.023C194.948 253.618 210.029 242.761 212.626 226.775Z" fill="#2F2E41"/>
<path d="M179.185 245.092H170.266V261.053H179.185V245.092Z" fill="#2F2E41"/>
<path d="M197.024 245.092H188.105V261.053H197.024V245.092Z" fill="#2F2E41"/>
<path d="M177.699 264.022C181.804 264.022 185.132 262.776 185.132 261.239C185.132 259.701 181.804 258.455 177.699 258.455C173.593 258.455 170.266 259.701 170.266 261.239C170.266 262.776 173.593 264.022 177.699 264.022Z" fill="#2F2E41"/>
<path d="M195.538 263.651C199.643 263.651 202.971 262.405 202.971 260.867C202.971 259.33 199.643 258.083 195.538 258.083C191.433 258.083 188.105 259.33 188.105 260.867C188.105 262.405 191.433 263.651 195.538 263.651Z" fill="#2F2E41"/>
<path d="M155.164 194.807C152.794 184.203 160.372 173.488 172.091 170.874C183.81 168.261 195.232 174.738 197.603 185.342C199.973 195.947 192.207 199.858 180.488 202.471C168.769 205.085 157.535 205.411 155.164 194.807Z" fill="#31D498"/>
<path d="M163.839 214.754C164.93 212.457 159.876 207.782 152.55 204.312C145.225 200.842 138.402 199.891 137.311 202.188C136.22 204.485 141.275 209.16 148.6 212.63C155.926 216.1 162.749 217.051 163.839 214.754Z" fill="#2F2E41"/>
<path d="M56.5164 281.094C72.7318 281.094 85.8769 267.965 85.8769 251.77C85.8769 235.574 72.7318 222.445 56.5164 222.445C40.301 222.445 27.1559 235.574 27.1559 251.77C27.1559 267.965 40.301 281.094 56.5164 281.094Z" fill="#2F2E41"/>
<path d="M52.0565 274.784H43.1369V290.745H52.0565V274.784Z" fill="#2F2E41"/>
<path d="M69.8958 274.784H60.9762V290.745H69.8958V274.784Z" fill="#2F2E41"/>
<path d="M50.57 293.715C54.6751 293.715 58.003 292.468 58.003 290.931C58.003 289.393 54.6751 288.147 50.57 288.147C46.4648 288.147 43.1369 289.393 43.1369 290.931C43.1369 292.468 46.4648 293.715 50.57 293.715Z" fill="#2F2E41"/>
<path d="M68.4092 293.344C72.5144 293.344 75.8423 292.097 75.8423 290.56C75.8423 289.022 72.5144 287.776 68.4092 287.776C64.3041 287.776 60.9762 289.022 60.9762 290.56C60.9762 292.097 64.3041 293.344 68.4092 293.344Z" fill="#2F2E41"/>
<path d="M57.2597 254.368C62.8017 254.368 67.2943 249.881 67.2943 244.346C67.2943 238.811 62.8017 234.324 57.2597 234.324C51.7177 234.324 47.2251 238.811 47.2251 244.346C47.2251 249.881 51.7177 254.368 57.2597 254.368Z" fill="white"/>
<path d="M57.2597 247.687C59.107 247.687 60.6046 246.191 60.6046 244.346C60.6046 242.501 59.107 241.005 57.2597 241.005C55.4123 241.005 53.9148 242.501 53.9148 244.346C53.9148 246.191 55.4123 247.687 57.2597 247.687Z" fill="#3F3D56"/>
<path d="M28.0357 224.499C25.665 213.895 33.2432 203.18 44.9622 200.566C56.6812 197.953 68.1032 204.431 70.4739 215.035C72.8446 225.639 65.078 229.55 53.359 232.163C41.6401 234.777 30.4064 235.103 28.0357 224.499Z" fill="#E6E6E6"/>
<path d="M77.9246 147.008C80.8192 139.444 81.2385 132.577 78.861 131.669C76.4835 130.761 72.2096 136.157 69.3149 143.721C66.4202 151.285 66.001 158.153 68.3784 159.061C70.7559 159.968 75.0299 154.572 77.9246 147.008Z" fill="#2F2E41"/>
<path d="M75.4631 172.206C78.0606 156.22 67.1908 141.157 51.1848 138.563C35.1788 135.969 20.0978 146.825 17.5003 162.812C14.9029 178.798 25.7727 193.86 41.7787 196.454C57.7847 199.049 72.8657 188.192 75.4631 172.206Z" fill="#2F2E41"/>
<path d="M42.0219 190.523H33.1023V206.484H42.0219V190.523Z" fill="#2F2E41"/>
<path d="M59.8612 190.523H50.9416V206.484H59.8612V190.523Z" fill="#2F2E41"/>
<path d="M40.5354 209.454C44.6405 209.454 47.9684 208.207 47.9684 206.67C47.9684 205.132 44.6405 203.886 40.5354 203.886C36.4302 203.886 33.1023 205.132 33.1023 206.67C33.1023 208.207 36.4302 209.454 40.5354 209.454Z" fill="#2F2E41"/>
<path d="M58.3746 209.082C62.4798 209.082 65.8077 207.836 65.8077 206.299C65.8077 204.761 62.4798 203.515 58.3746 203.515C54.2695 203.515 50.9416 204.761 50.9416 206.299C50.9416 207.836 54.2695 209.082 58.3746 209.082Z" fill="#2F2E41"/>
<path d="M47.2251 170.107C52.7671 170.107 57.2597 165.62 57.2597 160.085C57.2597 154.55 52.7671 150.063 47.2251 150.063C41.6831 150.063 37.1905 154.55 37.1905 160.085C37.1905 165.62 41.6831 170.107 47.2251 170.107Z" fill="white"/>
<path d="M47.2251 163.426C49.0724 163.426 50.5699 161.93 50.5699 160.085C50.5699 158.24 49.0724 156.744 47.2251 156.744C45.3777 156.744 43.8802 158.24 43.8802 160.085C43.8802 161.93 45.3777 163.426 47.2251 163.426Z" fill="#3F3D56"/>
<path d="M18.0011 140.238C15.6304 129.634 23.2086 118.919 34.9276 116.305C46.6466 113.692 58.0686 120.169 60.4393 130.774C62.81 141.378 55.0434 145.289 43.3244 147.902C31.6054 150.516 20.3718 150.842 18.0011 140.238Z" fill="#31D498"/>
<path d="M26.6761 160.185C27.7668 157.888 22.7125 153.213 15.387 149.743C8.06143 146.273 1.23872 145.322 0.148006 147.619C-0.942707 149.916 4.11161 154.591 11.4371 158.061C18.7627 161.531 25.5854 162.482 26.6761 160.185Z" fill="#2F2E41"/>
<path d="M32.0599 178.088C32.0599 180.958 39.459 186.625 47.6693 186.625C55.8796 186.625 63.5777 178.545 63.5777 175.675C63.5777 172.805 55.8796 176.232 47.6693 176.232C39.459 176.232 32.0599 175.218 32.0599 178.088Z" fill="white"/>
<path d="M75.3479 55.5397C74.8057 55.5403 74.2858 55.7557 73.9024 56.1386C73.519 56.5216 73.3033 57.0408 73.3027 57.5824V142.013C73.3033 142.555 73.519 143.074 73.9024 143.457C74.2858 143.84 74.8057 144.055 75.3479 144.056H271.006C271.548 144.055 272.068 143.84 272.451 143.457C272.835 143.074 273.051 142.555 273.051 142.013V57.5824C273.051 57.0408 272.835 56.5216 272.451 56.1386C272.068 55.7557 271.548 55.5403 271.006 55.5397H75.3479Z" fill="#31D498"/>
<path d="M128.179 119.626C139.143 119.626 148.031 110.749 148.031 99.7979C148.031 88.847 139.143 79.9695 128.179 79.9695C117.214 79.9695 108.326 88.847 108.326 99.7979C108.326 110.749 117.214 119.626 128.179 119.626Z" fill="white"/>
<path d="M172.986 97.1596C172.377 97.1696 171.796 97.4183 171.369 97.852C170.942 98.2857 170.703 98.8696 170.703 99.478C170.703 100.086 170.942 100.67 171.369 101.104C171.796 101.538 172.377 101.786 172.986 101.796H235.669C235.973 101.802 236.277 101.747 236.56 101.635C236.844 101.523 237.103 101.357 237.322 101.145C237.541 100.933 237.717 100.68 237.838 100.401C237.96 100.121 238.025 99.8207 238.03 99.5161C238.035 99.2114 237.98 98.9088 237.867 98.6255C237.755 98.3422 237.588 98.0838 237.376 97.8649C237.164 97.6461 236.911 97.4712 236.631 97.3501C236.351 97.2291 236.05 97.1644 235.745 97.1596C235.719 97.1592 235.694 97.1592 235.669 97.1596H172.986Z" fill="white"/>
<path d="M172.986 83.7275C172.377 83.7375 171.796 83.9862 171.369 84.4198C170.942 84.8535 170.703 85.4375 170.703 86.0458C170.703 86.6542 170.942 87.2382 171.369 87.6718C171.796 88.1055 172.377 88.3542 172.986 88.3642H204.288C204.593 88.3694 204.896 88.3146 205.18 88.2028C205.464 88.091 205.723 87.9245 205.942 87.7127C206.161 87.501 206.337 87.2481 206.458 86.9686C206.579 86.6892 206.644 86.3885 206.649 86.0839C206.654 85.7793 206.599 85.4767 206.487 85.1934C206.375 84.9101 206.208 84.6516 205.996 84.4328C205.784 84.2139 205.53 84.039 205.25 83.918C204.97 83.797 204.669 83.7322 204.364 83.7275C204.339 83.7271 204.314 83.7271 204.288 83.7275H172.986Z" fill="white"/>
<path d="M172.986 111.232C172.377 111.242 171.796 111.49 171.369 111.924C170.942 112.358 170.703 112.942 170.703 113.55C170.703 114.158 170.942 114.742 171.369 115.176C171.796 115.61 172.377 115.858 172.986 115.868H235.669C235.973 115.873 236.277 115.819 236.56 115.707C236.844 115.595 237.103 115.429 237.322 115.217C237.541 115.005 237.717 114.752 237.838 114.473C237.96 114.193 238.025 113.893 238.03 113.588C238.035 113.283 237.98 112.981 237.867 112.697C237.755 112.414 237.588 112.156 237.376 111.937C237.164 111.718 236.911 111.543 236.631 111.422C236.351 111.301 236.05 111.236 235.745 111.232C235.719 111.231 235.694 111.231 235.669 111.232H172.986Z" fill="white"/>
<path d="M477.413 267.404C479.79 266.496 479.371 259.629 476.476 252.065C473.582 244.501 469.308 239.105 466.93 240.012C464.553 240.92 464.972 247.788 467.867 255.352C470.761 262.916 475.035 268.312 477.413 267.404Z" fill="#2F2E41"/>
<path d="M497.877 310.926C513.883 308.332 524.753 293.269 522.155 277.283C519.558 261.297 504.477 250.44 488.471 253.035C472.465 255.629 461.595 270.691 464.193 286.678C466.79 302.664 481.871 313.52 497.877 310.926Z" fill="#2F2E41"/>
<path d="M506.553 304.995H497.634L499.379 324.109L506.569 322.158L506.553 304.995Z" fill="#2F2E41"/>
<path d="M487.108 305.044H478.188L479.933 324.159L486.798 322.159L487.108 305.044Z" fill="#2F2E41"/>
<path d="M479.68 325.057C483.774 324.758 487.002 323.272 486.89 321.739C486.778 320.206 483.368 319.205 479.273 319.504C475.179 319.803 471.951 321.288 472.063 322.822C472.176 324.355 475.586 325.356 479.68 325.057Z" fill="#2F2E41"/>
<path d="M492.431 284.579C497.973 284.579 502.465 280.092 502.465 274.556C502.465 269.021 497.973 264.534 492.431 264.534C486.889 264.534 482.396 269.021 482.396 274.556C482.396 280.092 486.889 284.579 492.431 284.579Z" fill="white"/>
<path d="M492.431 277.897C494.278 277.897 495.775 276.402 495.775 274.556C495.775 272.711 494.278 271.216 492.431 271.216C490.583 271.216 489.086 272.711 489.086 274.556C489.086 276.402 490.583 277.897 492.431 277.897Z" fill="#3F3D56"/>
<path d="M527.905 264.3C532.722 257.786 534.968 251.281 532.92 249.771C530.873 248.261 525.308 252.317 520.491 258.83C515.674 265.344 513.429 271.848 515.477 273.359C517.524 274.869 523.089 270.813 527.905 264.3Z" fill="#2F2E41"/>
<path d="M478.849 297.101C478.849 294.735 484.947 290.064 491.714 290.064C498.48 290.064 504.825 296.724 504.825 299.089C504.825 301.455 498.48 298.63 491.714 298.63C484.947 298.63 478.849 299.466 478.849 297.101Z" fill="white"/>
<path d="M575.505 257.747L414.789 235.495C413.536 235.32 412.404 234.655 411.64 233.648C410.877 232.64 410.545 231.371 410.717 230.119L428.785 99.9512C428.96 98.6997 429.625 97.5687 430.634 96.8064C431.643 96.044 432.913 95.7125 434.167 95.8845L594.883 118.137C596.136 118.312 597.268 118.976 598.032 119.984C598.795 120.992 599.127 122.261 598.954 123.513L580.887 253.68C580.712 254.932 580.047 256.063 579.038 256.825C578.029 257.587 576.758 257.919 575.505 257.747Z" fill="#31D498"/>
<path d="M517.929 217.123L435.88 205.763C435.777 205.75 435.675 205.728 435.576 205.696L483.7 143.935C483.995 143.55 484.387 143.249 484.836 143.065C485.285 142.88 485.775 142.818 486.256 142.885C486.737 142.951 487.192 143.144 487.574 143.444C487.956 143.743 488.251 144.139 488.43 144.59L508.22 193.248L509.169 195.577L517.929 217.123Z" fill="white"/>
<path opacity="0.2" d="M517.929 217.123L489.915 213.245L506.436 195.198L507.626 193.898L508.221 193.248L509.169 195.577L517.929 217.123Z" fill="black"/>
<path d="M563.614 223.449L492.648 213.623L509.169 195.577L510.358 194.276L531.887 170.758C532.259 170.405 532.701 170.134 533.185 169.962C533.668 169.791 534.183 169.723 534.695 169.763C535.206 169.803 535.704 169.95 536.155 170.194C536.606 170.439 537.001 170.775 537.314 171.182C537.392 171.296 537.464 171.416 537.527 171.539L563.614 223.449Z" fill="white"/>
<path d="M518.927 164.901C525.704 164.901 531.198 159.414 531.198 152.645C531.198 145.877 525.704 140.389 518.927 140.389C512.15 140.389 506.656 145.877 506.656 152.645C506.656 159.414 512.15 164.901 518.927 164.901Z" fill="white"/>
<path d="M451.764 107.948L436.908 105.891L434.849 120.729L449.705 122.786L451.764 107.948Z" fill="#3F3D56"/>
<path d="M521.655 254.709C524.025 244.105 516.447 233.39 504.728 230.777C493.009 228.163 481.587 234.641 479.216 245.245C476.846 255.849 484.612 259.76 496.331 262.374C508.05 264.987 519.284 265.314 521.655 254.709Z" fill="#F2F2F2"/>
<path d="M499.241 325.01C503.335 324.711 506.563 323.225 506.451 321.692C506.338 320.158 502.928 319.158 498.834 319.457C494.74 319.756 491.512 321.241 491.624 322.775C491.736 324.308 495.146 325.309 499.241 325.01Z" fill="#2F2E41"/>
</g>
<defs>
<clipPath id="clip0">
<rect width="599" height="376" fill="white"/>
</clipPath>
</defs>
</svg>
