<svg width="524" height="416" viewBox="0 0 524 416" fill="none" xmlns="http://www.w3.org/2000/svg">
<g clip-path="url(#clip0)">
<path d="M390.884 411.003C383.631 404.88 379.226 395.207 380.381 385.79C381.537 376.373 388.693 367.716 397.975 365.717C407.257 363.717 417.838 369.252 420.658 378.312C422.209 360.846 423.997 342.648 433.292 327.774C441.708 314.306 456.284 304.669 472.082 302.945C487.879 301.22 504.512 307.732 514.364 320.19C524.217 332.647 526.629 350.758 519.729 365.061C514.645 375.597 505.28 383.438 495.468 389.817C463.761 410.257 425.732 418.569 388.38 413.224" fill="#F2F2F2"/>
<path d="M498.742 308.093C485.707 318.701 473.749 330.564 463.041 343.513C446.282 363.708 432.721 386.35 422.829 410.651C422.105 412.423 424.987 413.195 425.703 411.442C441.887 371.948 467.723 337.139 500.849 310.198C502.337 308.988 500.218 306.893 498.742 308.093Z" fill="white"/>
<path d="M128.112 415.194H86.9772C85.5873 415.193 84.2547 414.64 83.2719 413.658C82.2891 412.676 81.7362 411.345 81.7346 409.956V324.537C81.7362 323.148 82.2891 321.817 83.2719 320.835C84.2547 319.853 85.5873 319.301 86.9772 319.299H128.112C129.502 319.301 130.834 319.853 131.817 320.835C132.8 321.817 133.353 323.148 133.354 324.537V409.956C133.353 411.345 132.8 412.676 131.817 413.658C130.834 414.64 129.502 415.193 128.112 415.194Z" fill="#31D498"/>
<path d="M225.705 416H184.571C182.967 415.998 181.429 415.361 180.295 414.228C179.161 413.095 178.523 411.559 178.521 409.956V243.953C178.523 242.351 179.161 240.815 180.295 239.682C181.429 238.549 182.967 237.911 184.571 237.909H225.705C227.309 237.911 228.846 238.549 229.98 239.682C231.115 240.815 231.752 242.351 231.754 243.953V409.956C231.752 411.559 231.115 413.095 229.98 414.228C228.846 415.361 227.309 415.998 225.705 416ZM184.571 239.521C183.395 239.522 182.267 239.99 181.435 240.821C180.604 241.652 180.136 242.778 180.135 243.953V409.956C180.136 411.131 180.604 412.258 181.435 413.089C182.267 413.92 183.395 414.387 184.571 414.388H225.705C226.881 414.387 228.009 413.92 228.84 413.089C229.672 412.258 230.14 411.131 230.141 409.956V243.953C230.14 242.778 229.672 241.652 228.84 240.821C228.009 239.99 226.881 239.522 225.705 239.521H184.571Z" fill="#3F3D56"/>
<path d="M323.298 416H282.164C280.56 415.998 279.023 415.361 277.888 414.228C276.754 413.095 276.117 411.559 276.115 409.956V138.388C276.117 136.786 276.754 135.25 277.888 134.117C279.023 132.983 280.56 132.346 282.164 132.344H323.298C324.902 132.346 326.44 132.983 327.574 134.117C328.708 135.25 329.346 136.786 329.347 138.388V409.956C329.346 411.559 328.708 413.095 327.574 414.228C326.44 415.361 324.902 415.998 323.298 416ZM282.164 133.956C280.988 133.957 279.86 134.425 279.029 135.256C278.197 136.087 277.729 137.213 277.728 138.388V409.956C277.729 411.131 278.197 412.258 279.029 413.089C279.86 413.92 280.988 414.387 282.164 414.388H323.298C324.474 414.387 325.602 413.92 326.434 413.089C327.265 412.258 327.733 411.131 327.734 409.956V138.388C327.733 137.213 327.265 136.087 326.434 135.256C325.602 134.425 324.474 133.957 323.298 133.956H282.164Z" fill="#3F3D56"/>
<path d="M421.803 415.597H380.668C379.278 415.595 377.946 415.043 376.963 414.061C375.98 413.079 375.427 411.748 375.426 410.359V27.5852C375.427 26.1965 375.98 24.8651 376.963 23.8832C377.946 22.9012 379.278 22.3489 380.668 22.3472H421.803C423.193 22.3489 424.525 22.9012 425.508 23.8832C426.491 24.8651 427.044 26.1965 427.045 27.5852V410.359C427.044 411.748 426.491 413.079 425.508 414.061C424.525 415.043 423.193 415.595 421.803 415.597Z" fill="#31D498"/>
<path d="M165.973 179.185C166.122 178.01 166.012 176.816 165.649 175.688C165.287 174.56 164.681 173.526 163.875 172.657C163.069 171.788 162.082 171.106 160.984 170.66C159.886 170.213 158.703 170.013 157.519 170.072L143.181 143.794L139.954 155.076L149.777 179.159C150.01 181.14 150.961 182.967 152.451 184.294C153.942 185.621 155.867 186.356 157.864 186.359C159.86 186.362 161.788 185.634 163.283 184.312C164.777 182.989 165.734 181.165 165.973 179.185V179.185Z" fill="#A0616A"/>
<path d="M55.504 282.941L63.4897 288.766L89.7795 260.761L77.9924 252.163L55.504 282.941Z" fill="#A0616A"/>
<path d="M73.4783 307.41L48.3782 289.102L55.4581 279.413L70.8604 290.647C73.4324 292.523 75.1532 295.343 75.6441 298.487C76.135 301.63 75.356 304.84 73.4783 307.41L73.4783 307.41Z" fill="#2F2E41"/>
<path d="M97.7555 313.776L107.644 313.775L112.348 275.668L97.7539 275.669L97.7555 313.776Z" fill="#A0616A"/>
<path d="M126.714 322.948L95.6373 322.949L95.6367 310.953L114.707 310.952C117.891 310.952 120.945 312.216 123.197 314.465C125.449 316.715 126.714 319.766 126.714 322.948Z" fill="#2F2E41"/>
<path d="M127.453 165.149C127.453 165.149 132.292 211.888 120.194 244.122L111.322 305.365H95.9971L97.6103 232.84L91.9644 168.373C91.9644 168.373 103.256 139.362 127.453 165.149Z" fill="#2F2E41"/>
<path d="M75.0267 168.372L91.1579 223.975L59.7021 273.937L75.43 287.234L111.322 231.228L100.837 162.731L75.0267 168.372Z" fill="#2F2E41"/>
<path d="M116.164 43.6879C127.105 43.6879 135.974 34.8266 135.974 23.8956C135.974 12.9647 127.105 4.10339 116.164 4.10339C105.224 4.10339 96.3544 12.9647 96.3544 23.8956C96.3544 34.8266 105.224 43.6879 116.164 43.6879Z" fill="#A0616A"/>
<path d="M99.6266 51.1229C99.6266 51.1229 111.725 43.0645 125.436 60.793L129.066 172.402C129.066 172.402 118.581 157.897 96.8036 171.596C75.0266 185.295 70.1872 169.984 70.1872 169.984C70.1872 169.984 54.8627 54.7492 99.6266 51.1229Z" fill="#CCCCCC"/>
<path d="M124.461 60.5116C127.94 60.6995 131.227 62.1663 133.69 64.6299C136.152 67.0935 137.615 70.3798 137.798 73.8565L140.358 122.44L157.295 168.373L147.617 176.431L116.161 121.634L109.721 76.5929C109.426 74.5285 109.592 72.4244 110.209 70.432C110.825 68.4397 111.876 66.6086 113.286 65.0707C114.695 63.5328 116.428 62.3262 118.361 61.5378C120.293 60.7495 122.376 60.399 124.461 60.5116Z" fill="#CCCCCC"/>
<path d="M101.608 38.7418C104.847 42.1885 110.861 40.3382 111.283 35.6296C111.316 35.264 111.314 34.8961 111.276 34.531C111.058 32.4453 109.852 30.5517 110.141 28.3495C110.206 27.8014 110.411 27.2791 110.735 26.832C113.315 23.3793 119.373 28.3763 121.809 25.2507C123.302 23.3341 121.547 20.3165 122.693 18.1745C124.206 15.3472 128.686 16.7419 131.495 15.1936C134.621 13.4709 134.434 8.67899 132.377 5.76431C129.867 2.20975 125.467 0.313 121.122 0.0396184C116.777 -0.233763 112.462 0.939813 108.405 2.51931C103.796 4.31391 99.2253 6.79414 96.3889 10.8433C92.9396 15.7676 92.6077 22.3878 94.3328 28.1458C95.3822 31.6484 98.9636 35.9273 101.608 38.7418Z" fill="#2F2E41"/>
<path d="M523.04 415.658H0.960372C0.706152 415.657 0.46259 415.556 0.283089 415.376C0.103588 415.196 0.00280762 414.953 0.00280762 414.699C0.00280762 414.445 0.103588 414.201 0.283089 414.021C0.46259 413.841 0.706152 413.74 0.960372 413.739H523.04C523.294 413.74 523.537 413.841 523.717 414.021C523.896 414.201 523.997 414.445 523.997 414.699C523.997 414.953 523.896 415.196 523.717 415.376C523.537 415.556 523.294 415.657 523.04 415.658Z" fill="#3F3D56"/>
</g>
<defs>
<clipPath id="clip0">
<rect width="524" height="416" fill="white"/>
</clipPath>
</defs>
</svg>
