<svg width="141" height="29" viewBox="0 0 141 29" fill="none" xmlns="http://www.w3.org/2000/svg">
<path d="M16.9818 20.2111C16.9818 11.3719 4.18748 14.7822 4.18748 9.31865C4.18748 6.98705 5.96061 5.87345 8.25523 5.94305C10.7585 6.01265 12.1839 7.50905 12.323 9.14465H16.7036C16.356 5.00345 13.0879 2.56745 8.46384 2.56745C3.52691 2.56745 0.154495 5.21225 0.154495 9.45785C0.154495 18.3666 12.9836 14.5735 12.9836 20.4198C12.9836 22.473 11.419 23.9694 8.63767 23.9694C5.89107 23.9694 4.50039 22.3686 4.32655 20.385H0.0849609C0.0849609 24.6654 3.80504 27.3102 8.63767 27.3102C14.0266 27.3102 16.9818 23.8302 16.9818 20.2111ZM29.7245 10.9194C32.6797 10.9194 35.0091 12.7986 35.0787 15.7566H24.4747C24.8919 12.729 27.0474 10.9194 29.7245 10.9194ZM38.6944 21.3594H34.4181C33.688 22.8559 32.332 24.039 29.8983 24.039C26.9779 24.039 24.718 22.125 24.4399 18.9582H39.0769C39.1812 18.297 39.2159 17.6707 39.2159 17.0094C39.2159 11.3719 35.3568 7.57865 29.8983 7.57865C24.2313 7.57865 20.3374 11.4414 20.3374 17.4618C20.3374 23.4822 24.4051 27.3798 29.8983 27.3798C34.5919 27.3798 37.6166 24.7002 38.6944 21.3594ZM61.3692 17.4618C61.3692 11.4414 57.058 7.57865 51.5996 7.57865C46.1412 7.57865 41.83 11.4414 41.83 17.4618C41.83 23.4822 45.9673 27.3798 51.4258 27.3798C56.919 27.3798 61.3692 23.4822 61.3692 17.4618ZM45.863 17.4618C45.863 13.1118 48.5401 11.0238 51.5301 11.0238C54.4853 11.0238 57.3014 13.1118 57.3014 17.4618C57.3014 21.8118 54.381 23.9346 51.4258 23.9346C48.4358 23.9346 45.863 21.8118 45.863 17.4618ZM65.774 27.0666H69.7722V11.1282H73.3184V7.89185H69.7722V6.53465C69.7722 4.34225 70.6066 3.50705 73.0403 3.50705V0.20105C68.0338 0.20105 65.774 2.11505 65.774 6.53465V7.89185H63.5141V11.1282H65.774V27.0666ZM76.8309 27.0666H80.7943V1.31465H76.8309V27.0666ZM104.251 17.4618C104.251 11.4414 99.9396 7.57865 94.4812 7.57865C89.0227 7.57865 84.7116 11.4414 84.7116 17.4618C84.7116 23.4822 88.8489 27.3798 94.3074 27.3798C99.8006 27.3798 104.251 23.4822 104.251 17.4618ZM88.7446 17.4618C88.7446 13.1118 91.4217 11.0238 94.4116 11.0238C97.3669 11.0238 100.183 13.1118 100.183 17.4618C100.183 21.8118 97.2626 23.9346 94.3074 23.9346C91.3174 23.9346 88.7446 21.8118 88.7446 17.4618ZM111.889 27.0666H116.061L119.92 12.903L123.779 27.0666H127.951L133.896 7.89185H130.003L126.039 23.2386L122.145 7.89185H118.008L113.94 23.3082L109.942 7.89185H105.909L111.889 27.0666ZM140.961 24.7698C140.961 23.3431 139.849 22.2295 138.458 22.2295C137.032 22.2295 135.92 23.3431 135.92 24.7698C135.92 26.1966 137.032 27.3102 138.458 27.3102C139.849 27.3102 140.961 26.1966 140.961 24.7698Z" fill="black"/>
</svg>
